*
*
G04 PADS VX.2 Build Number: 5060570 generated Gerber (RS-274-X) file*
G04 PC Version=2.1*
*
%IN "20220803_3_copper_2.pcb"*%
*
%MOIN*%
*
%FSLAX35Y35*%
*
*
*
*
G04 PC Standard Apertures*
*
*
G04 Thermal Relief Aperture macro.*
%AMTER*
1,1,$1,0,0*
1,0,$1-$2,0,0*
21,0,$3,$4,0,0,45*
21,0,$3,$4,0,0,135*
%
*
*
G04 Annular Aperture macro.*
%AMANN*
1,1,$1,0,0*
1,0,$2,0,0*
%
*
*
G04 Odd Aperture macro.*
%AMODD*
1,1,$1,0,0*
1,0,$1-0.005,0,0*
%
*
*
G04 PC Custom Aperture Macros*
*
*
*
*
*
*
G04 PC Aperture Table*
*
%ADD010C,0.001*%
%ADD011R,0.042X0.1*%
%ADD012R,0.425X0.33071*%
%ADD013C,0.06*%
%ADD014R,0.06X0.06*%
%ADD015R,0.07874X0.06693*%
%ADD016C,0.15748*%
%ADD017R,0.03937X0.05118*%
%ADD018C,0.11811*%
%ADD019C,0.01181*%
%ADD020C,0.03937*%
%ADD021C,0.0315*%
%ADD022C,0.05906*%
%ADD023C,0.01969*%
%ADD024C,0.01*%
*
*
*
*
G04 PC Circuitry*
G04 Layer Name 20220803_3_copper_2.pcb - circuitry*
%LPD*%
*
*
G04 PC Custom Flashes*
G04 Layer Name 20220803_3_copper_2.pcb - flashes*
%LPD*%
*
*
G04 PC Circuitry*
G04 Layer Name 20220803_3_copper_2.pcb - circuitry*
%LPD*%
*
G54D10*
G54D11*
G01X354025Y193125D03*
X347325D03*
X340625D03*
X333925D03*
X327225D03*
G54D12*
X340625Y155999D03*
G54D13*
X170866Y139370D03*
X222047D03*
X125000Y267500D03*
X134843D03*
X125000Y247500D03*
X134843D03*
X125000Y227500D03*
X134843D03*
X125000Y207500D03*
X134843D03*
X125000Y187500D03*
X134843D03*
X125000Y167500D03*
X134843D03*
X125000Y147500D03*
X134843D03*
X295000Y285000D03*
X304843D03*
X295000Y265000D03*
X304843D03*
X295000Y245000D03*
X304843D03*
X295000Y225000D03*
X304843D03*
X295000Y205000D03*
X304843D03*
X295000Y185000D03*
X304843D03*
X295000Y165000D03*
X304843D03*
X295000Y145000D03*
X304843D03*
X155236Y284921D03*
Y274921D03*
Y264921D03*
Y254921D03*
Y244921D03*
Y234921D03*
Y224921D03*
Y214921D03*
Y204921D03*
Y194921D03*
Y184921D03*
Y174921D03*
X165236D03*
Y184921D03*
Y194921D03*
Y204921D03*
Y214921D03*
Y224921D03*
Y234921D03*
Y244921D03*
Y254921D03*
Y264921D03*
Y274921D03*
Y284921D03*
X255236D03*
Y274921D03*
Y264921D03*
Y254921D03*
Y244921D03*
Y234921D03*
Y224921D03*
Y214921D03*
Y204921D03*
Y194921D03*
Y184921D03*
Y174921D03*
X265236D03*
Y184921D03*
Y194921D03*
Y204921D03*
Y214921D03*
Y224921D03*
Y234921D03*
Y244921D03*
Y254921D03*
Y264921D03*
Y274921D03*
Y284921D03*
X295000Y317500D03*
X304843D03*
X338469Y288474D03*
X348312D03*
X358155D03*
X338469Y264852D03*
X348312D03*
X358155D03*
X390625Y240625D03*
X400468D03*
X338125D03*
X347968D03*
X334026Y311801D03*
Y321801D03*
X344026Y311801D03*
Y321801D03*
X354026Y311801D03*
Y321801D03*
X125000Y287500D03*
X134843D03*
G54D14*
X190866Y139370D03*
X242047D03*
X115157Y267500D03*
Y247500D03*
Y227500D03*
Y207500D03*
Y187500D03*
Y167500D03*
Y147500D03*
X285157Y285000D03*
Y265000D03*
Y245000D03*
Y225000D03*
Y205000D03*
Y185000D03*
Y165000D03*
Y145000D03*
Y317500D03*
X328627Y288474D03*
Y264852D03*
X380782Y240625D03*
X328282D03*
X115157Y287500D03*
G54D15*
X291501Y121250D03*
X307249D03*
G54D16*
X348907Y125625D03*
X368593D03*
X348593Y212500D03*
X328907D03*
X401718Y211875D03*
X382032D03*
G54D17*
X140207Y320000D03*
X147293D03*
X158957D03*
X166043D03*
X178509Y310034D03*
X185595D03*
X198194D03*
X205281D03*
X217879D03*
X224966D03*
X217254Y319473D03*
X224341D03*
X177884D03*
X184970D03*
X197569D03*
X204656D03*
X237564Y310034D03*
X244651D03*
X236939Y319473D03*
X244026D03*
G54D18*
X112500Y112500D03*
X402500D03*
X403150Y324409D03*
X111811D03*
X170866Y139370D02*
X202362Y107874D01*
X368593*
Y125625*
X368593*
G54D19*
X291501Y121250D02*
X292092D01*
X294375Y126033*
Y127500*
X222047Y139370D02*
X252677Y170000D01*
X306260*
X315000Y178740*
X134843Y147500D02*
X147500Y160157D01*
Y227185*
X155236Y234921*
X285157Y145000D02*
X295625Y134532D01*
Y132283*
X306658Y121250*
X307249*
X295000Y145000D02*
X304375Y135625D01*
X311875*
X115157Y167500D02*
Y147500D01*
X134843Y167500D02*
Y176718D01*
X145445Y187320*
Y231695*
X153750Y240000*
X160157*
X165236Y234921*
X285157Y165000D02*
Y145000D01*
X315000Y178740D02*
X324409D01*
X333925Y188256*
Y193125*
X315000Y178740D02*
Y162500D01*
X336875Y178125D02*
Y185625D01*
X347950*
X347500Y181250D02*
Y185175D01*
X347950Y185625*
X115157Y187500D02*
Y167500D01*
X134843Y187500D02*
X142500Y195650D01*
Y234921*
X152500Y244921*
X155236*
X165236Y184921D02*
X170625Y190310D01*
Y190625*
X174375Y194375*
X165236Y194921D02*
X170315Y200000D01*
X176875*
X180000Y203125*
X255236Y194921D02*
X260315Y200000D01*
X266875*
X273125Y206250*
Y224375*
X284375Y235625*
X339375*
X343125Y239375*
Y242500*
X346250Y245625*
X395468*
X400468Y240625*
X265236Y194921D02*
X275625Y205310D01*
Y223750*
X285000Y233125*
X340468*
X347968Y240625*
X327225Y193125D02*
Y196025D01*
X331200Y200000*
X336650*
X340625Y196025*
X346475Y201875*
X347343*
X348593Y203125*
Y212500*
X340625Y196025D02*
Y193125D01*
X347325D02*
Y186250D01*
X347950Y185625*
X115157Y207500D02*
Y187500D01*
X134843Y207500D02*
Y217343D01*
X140000Y222500*
Y237500*
X152500Y250000*
X160157*
X165236Y244921*
X285157Y205000D02*
Y185000D01*
X155236Y214921D02*
X160157Y210000D01*
X188125*
X238125Y260000*
X299843*
X304843Y265000*
X165236Y214921D02*
X172815Y222500D01*
X190000*
X246875Y279375*
X273125*
X115157Y227500D02*
Y207500D01*
X134843Y227500D02*
X137766Y230423D01*
Y241358*
X150782Y254375*
X155782*
X150625Y224921D02*
Y226875D01*
X153750Y230000*
X166875*
X170625Y233750*
Y294473*
X185595Y309444*
Y310034*
X150625Y224921D02*
Y189532D01*
X155236Y184921*
X171875Y225625D02*
X182500Y236250D01*
Y266978*
X224966Y309444*
Y310034*
X174375Y231875D02*
Y277913D01*
X205281Y308819*
Y310034*
X190000Y231875D02*
Y254793D01*
X244651Y309444*
Y310034*
X285157Y225000D02*
Y205000D01*
X255236Y234921D02*
X260157Y230000D01*
X275625*
X283750Y238125*
X306250*
X316875Y248750*
Y261875*
X338469Y283469*
Y288474*
X328282Y240625D02*
Y252657D01*
X328627Y253002*
Y264852*
X115157Y247500D02*
Y227500D01*
X134843Y247500D02*
X146875Y257480D01*
X149395Y260000*
X160157*
X165236Y254921*
X255236Y244921D02*
X260315Y250000D01*
X269375*
X276875Y257500*
X303750*
X315000Y268750*
Y273125*
X322500Y280625*
X265236Y244921D02*
X267421D01*
X277500Y255000*
X304375*
X333750Y284375*
Y290000*
X336875Y293125*
X353504*
X358155Y288474*
X155236Y254921D02*
X155782Y254375D01*
X236875Y255000D02*
X241875Y250000D01*
X256875*
X260625Y253750*
Y254921*
X265236*
X115157Y267500D02*
Y247500D01*
X134843Y267500D02*
X142500D01*
X145079Y264921*
X155236*
X358155Y264852D02*
Y275655D01*
X363125Y280625*
Y288474*
X125000Y287500D02*
X135000Y297500D01*
X170000*
Y306875*
X170625Y307500*
X134843Y287500D02*
X152343Y270000D01*
X160157*
X165236Y264921*
X265236Y284921D02*
X277539D01*
X282618Y290000*
X314375*
X315901Y288474*
X328627*
X285157Y285000D02*
Y265000D01*
X105625Y299822D02*
Y308750D01*
X117500*
X135625Y326875*
X159759*
X166043Y320591*
Y320000*
X105625Y299822D02*
Y297032D01*
X115157Y287500*
X258750Y304375D02*
X348750D01*
X363125Y290000*
Y288474*
X140207Y320000D02*
Y320591D01*
X143991Y324375*
X155172*
X158957Y320591*
Y320000*
X147293D02*
Y319409D01*
X159203Y307500*
X170625*
X166043Y320000D02*
X169793Y323750D01*
X180694*
X184970Y319473*
X177884D02*
Y315000D01*
X178509Y314375*
Y310034*
X184970Y319473D02*
X189473D01*
X193750Y323750*
X200969*
X204656Y320064*
Y319473*
X197569D02*
Y315000D01*
X198194Y314375*
Y310034*
X204656Y319473D02*
X209473D01*
X213750Y323750*
X220655*
X224341Y320064*
Y319473*
X217254D02*
Y315000D01*
X217879Y314375*
Y310034*
X224341Y319473D02*
X228848D01*
X233125Y323750*
X240340*
X244026Y320064*
X236939Y319473D02*
Y315000D01*
X237564Y314375*
Y310034*
X244026Y320064D02*
X246590Y317500D01*
X285157*
X244026Y320064D02*
Y319473D01*
Y318883*
X255000Y307908*
Y295157*
X265236Y284921*
X285157Y317500D02*
X290157Y322500D01*
X312500*
X323199Y311801*
X334026*
X269614Y184921D02*
G75*
G03X269614I-4378J0D01*
G01X259614D02*
G03X259614I-4378J0D01*
G01X269614Y214921D02*
G03X269614I-4378J0D01*
G01X259614D02*
G03X259614I-4378J0D01*
G01X358404Y311801D02*
G03X358404I-4378J0D01*
G01Y321801D02*
G03X358404I-4378J0D01*
G01X348404D02*
G03X348404I-4378J0D01*
G01X338404D02*
G03X338404I-4378J0D01*
G01X169614Y174921D02*
G03X169614I-4378J0D01*
G01X159614D02*
G03X159614I-4378J0D01*
G01X300690Y143519D02*
G03X300663Y143695I-590J0D01*
G01X300506Y144398D02*
G03X300663Y143695I4337J602D01*
G01X300506Y144398D02*
G03X299336I-585J-82D01*
G01X299248Y143941D02*
G03X299336Y144398I-4248J1059D01*
G01X299248Y143941D02*
G03X299230Y143798I573J-143D01*
X299403Y143381I591J0*
G01X299682Y143102*
G03X300690Y143519I418J417*
G01X396237Y241827D02*
G03X396064Y242244I-590J-0D01*
G01X395785Y242523*
G03X394777Y242106I-417J-417*
X394804Y241930I591J-0*
G01X394961Y241227D02*
G03X394804Y241930I-4336J-602D01*
G01X394961Y241227D02*
G03X396131I585J82D01*
G01X396220Y241684D02*
G03X396131Y241227I4248J-1059D01*
G01X396220Y241684D02*
G03X396237Y241827I-573J143D01*
G01X300612Y263798D02*
G03X300595Y263941I-590J0D01*
G01X300506Y264398D02*
G03X300595Y263941I4337J602D01*
G01X300506Y264398D02*
G03X299336I-585J-82D01*
G01X299179Y263695D02*
G03X299336Y264398I-4179J1305D01*
G01X299179Y263695D02*
G03X299152Y263519I564J-176D01*
X300160Y263102I591J0*
G01X300439Y263381*
G03X300612Y263798I-417J417*
G01X291263Y262559D02*
G03X291187Y262849I-591J0D01*
G01X290705Y264150D02*
G03X291187Y262849I4295J850D01*
G01X290705Y264150D02*
G03X289535Y264035I-579J-115D01*
G01Y262559*
G03X290126Y261969I591J0*
G01X290672*
G03X291263Y262559I0J590*
G01X145531Y183197D02*
G03X144523Y183614I-590J-0D01*
G01X136984Y176075*
G03X136811Y175658I418J-417*
G01Y171759*
G03X137097Y171253I591J-0*
G01X139220Y167500D02*
G03X137097Y171253I-4377J0D01*
G01X130506Y166898D02*
G03X139220Y167500I4337J602D01*
G01X130506Y166898D02*
G03X129336I-585J-82D01*
G01X128122Y164431D02*
G03X129336Y166898I-3122J3069D01*
G01X128122Y164431D02*
G03X127953Y164017I421J-414D01*
G01Y150983*
G03X128122Y150569I590J-0*
G01X129336Y148102D02*
G03X128122Y150569I-4336J-602D01*
G01X129336Y148102D02*
G03X130506I585J82D01*
G01X135902Y151748D02*
G03X130506Y148102I-1059J-4248D01*
G01X135902Y151748D02*
G03X136462Y151903I142J573D01*
G01X145359Y160800*
G03X145531Y161217I-418J417*
G01Y183197*
X143476Y192323D02*
G03X142455Y192727I-591J-0D01*
G01X139193Y189256*
G03X139033Y188851I431J-405*
X139055Y188691I591J0*
G01X139220Y187500D02*
G03X139055Y188691I-4377J0D01*
G01X130506Y186898D02*
G03X139220Y187500I4337J602D01*
G01X130506Y186898D02*
G03X129336I-585J-82D01*
G01X128122Y184431D02*
G03X129336Y186898I-3122J3069D01*
G01X128122Y184431D02*
G03X127953Y184017I421J-414D01*
G01Y170983*
G03X128122Y170569I590J-0*
G01X129336Y168102D02*
G03X128122Y170569I-4336J-602D01*
G01X129336Y168102D02*
G03X130506I585J82D01*
G01X132588Y171253D02*
G03X130506Y168102I2255J-3753D01*
G01X132588Y171253D02*
G03X132874Y171759I-305J506D01*
G01Y176718*
X133451Y178109D02*
G03X132874Y176718I1392J-1391D01*
G01X133451Y178109D02*
X143303Y187962D01*
G03X143476Y188380I-418J418*
G01Y192323*
X140531Y218822D02*
G03X139523Y219239I-590J-0D01*
G01X136984Y216700*
G03X136811Y216283I418J-417*
G01Y211759*
G03X137097Y211253I591J-0*
G01X139220Y207500D02*
G03X137097Y211253I-4377J0D01*
G01X130506Y206898D02*
G03X139220Y207500I4337J602D01*
G01X130506Y206898D02*
G03X129336I-585J-82D01*
G01X128122Y204431D02*
G03X129336Y206898I-3122J3069D01*
G01X128122Y204431D02*
G03X127953Y204017I421J-414D01*
G01Y190983*
G03X128122Y190569I590J-0*
G01X129336Y188102D02*
G03X128122Y190569I-4336J-602D01*
G01X129336Y188102D02*
G03X130506I585J82D01*
G01X135769Y191779D02*
G03X130506Y188102I-926J-4279D01*
G01X135769Y191779D02*
G03X136324Y191952I125J577D01*
G01X140371Y196259*
G03X140531Y196663I-430J404*
G01Y218822*
X137416Y222944D02*
G03X136589Y223486I-591J0D01*
G01X130506Y226898D02*
G03X136589Y223486I4337J602D01*
G01X130506Y226898D02*
G03X129336I-585J-82D01*
G01X128122Y224431D02*
G03X129336Y226898I-3122J3069D01*
G01X128122Y224431D02*
G03X127953Y224017I421J-414D01*
G01Y210983*
G03X128122Y210569I590J-0*
G01X129336Y208102D02*
G03X128122Y210569I-4336J-602D01*
G01X129336Y208102D02*
G03X130506I585J82D01*
G01X132588Y211253D02*
G03X130506Y208102I2255J-3753D01*
G01X132588Y211253D02*
G03X132874Y211759I-305J506D01*
G01Y217343*
X133451Y218734D02*
G03X132874Y217343I1392J-1391D01*
G01X133451Y218734D02*
X137243Y222527D01*
G03X137416Y222944I-418J417*
G01X136106Y242577D02*
G03X135436Y243162I-590J0D01*
G01X130506Y246898D02*
G03X135436Y243162I4337J602D01*
G01X130506Y246898D02*
G03X129336I-585J-82D01*
G01X128122Y244431D02*
G03X129336Y246898I-3122J3069D01*
G01X128122Y244431D02*
G03X127953Y244017I421J-414D01*
G01Y230983*
G03X128122Y230569I590J-0*
G01X129336Y228102D02*
G03X128122Y230569I-4336J-602D01*
G01X129336Y228102D02*
G03X130506I585J82D01*
G01X135163Y231866D02*
G03X130506Y228102I-320J-4366D01*
G01X135163Y231866D02*
G03X135797Y232455I44J589D01*
G01Y241358*
X136035Y242296D02*
G03X135797Y241358I1731J-938D01*
G01X136035Y242296D02*
G03X136106Y242577I-519J281D01*
G01X149001Y262362D02*
G03X148410Y262953I-591J0D01*
G01X145079*
X143687Y263529D02*
G03X145079Y262953I1392J1392D01*
G01X143687Y263529D02*
X141858Y265359D01*
G03X141440Y265531I-418J-418*
G01X139101*
G03X138595Y265245I0J-590*
G01X130506Y266898D02*
G03X138595Y265245I4337J602D01*
G01X130506Y266898D02*
G03X129336I-585J-82D01*
G01X128122Y264431D02*
G03X129336Y266898I-3122J3069D01*
G01X128122Y264431D02*
G03X127953Y264017I421J-414D01*
G01Y250983*
G03X128122Y250569I590J-0*
G01X129336Y248102D02*
G03X128122Y250569I-4336J-602D01*
G01X129336Y248102D02*
G03X130506I585J82D01*
G01X136291Y251631D02*
G03X130506Y248102I-1448J-4131D01*
G01X136291Y251631D02*
G03X136864Y251734I196J558D01*
G01X145527Y258919*
G03X145567Y258956I-377J455*
G01X148003Y261392*
X148637Y261817D02*
G03X148003Y261392I758J-1817D01*
G01X148637Y261817D02*
G03X149001Y262362I-227J545D01*
G01X151734Y267739D02*
G03X151421Y268261I-590J-0D01*
G01X150951Y268608D02*
G03X151421Y268261I1392J1392D01*
G01X150951Y268608D02*
X136462Y283097D01*
G03X135902Y283252I-418J-418*
G01X130506Y286898D02*
G03X135902Y283252I4337J602D01*
G01X130506Y286898D02*
G03X129336I-585J-82D01*
G01X128122Y284431D02*
G03X129336Y286898I-3122J3069D01*
G01X128122Y284431D02*
G03X127953Y284017I421J-414D01*
G01Y270983*
G03X128122Y270569I590J-0*
G01X129336Y268102D02*
G03X128122Y270569I-4336J-602D01*
G01X129336Y268102D02*
G03X130506I585J82D01*
G01X138595Y269755D02*
G03X130506Y268102I-3752J-2255D01*
G01X138595Y269755D02*
G03X139101Y269469I506J304D01*
G01X142500*
X143892Y268892D02*
G03X142500Y269469I-1392J-1392D01*
G01X143892Y268892D02*
X145721Y267063D01*
G03X146139Y266890I418J417*
G01X150977*
G03X151484Y267176I0J590*
G01X151630Y267404D02*
G03X151484Y267176I3606J-2483D01*
G01X151630Y267404D02*
G03X151734Y267739I-486J335D01*
G01X130690Y288981D02*
G03X129682Y289398I-590J-0D01*
G01X129403Y289119*
G03X129230Y288702I418J-417*
X129248Y288559I591J-0*
G01X129336Y288102D02*
G03X129248Y288559I-4336J-602D01*
G01X129336Y288102D02*
G03X130506I585J82D01*
G01X130663Y288805D02*
G03X130506Y288102I4180J-1305D01*
G01X130663Y288805D02*
G03X130690Y288981I-563J176D01*
G01X386888Y243066D02*
G03X386297Y243656I-591J-0D01*
G01X385751*
G03X385160Y243066I0J-590*
G01Y241590*
G03X386330Y241475I591J-0*
G01X386812Y242776D02*
G03X386330Y241475I3813J-2151D01*
G01X386812Y242776D02*
G03X386888Y243066I-515J290D01*
G01X334388Y238184D02*
G03X334312Y238474I-591J0D01*
G01X333830Y239775D02*
G03X334312Y238474I4295J850D01*
G01X333830Y239775D02*
G03X332660Y239660I-579J-115D01*
G01Y238184*
G03X333251Y237594I591J0*
G01X333797*
G03X334388Y238184I0J590*
G01X361156Y284130D02*
G03X360279Y284647I-590J0D01*
G01X353818Y287872D02*
G03X360279Y284647I4337J602D01*
G01X353818Y287872D02*
G03X352648I-585J-81D01*
G01X343976D02*
G03X352648I4336J602D01*
G01X343976D02*
G03X342806I-585J-81D01*
G01X340724Y284722D02*
G03X342806Y287872I-2255J3752D01*
G01X340724Y284722D02*
G03X340438Y284216I305J-506D01*
G01Y283469*
X339861Y282078D02*
G03X340438Y283469I-1392J1391D01*
G01X339861Y282078D02*
X328022Y270238D01*
G03X327849Y269821I418J-417*
X328440Y269230I591J-0*
G01X331627*
X333005Y267852D02*
G03X331627Y269230I-1378J0D01*
G01X333005Y267852D02*
Y265817D01*
G03X334175Y265702I590J-0*
G01X342806Y265455D02*
G03X334175Y265702I-4337J-603D01*
G01X342806Y265455D02*
G03X343976I585J81D01*
G01X352648D02*
G03X343976I-4336J-603D01*
G01X352648D02*
G03X353818I585J81D01*
G01X355900Y268605D02*
G03X353818Y265455I2255J-3753D01*
G01X355900Y268605D02*
G03X356186Y269111I-305J506D01*
G01Y275655*
X356763Y277046D02*
G03X356186Y275655I1392J-1391D01*
G01X356763Y277046D02*
X360984Y281267D01*
G03X361156Y281685I-418J418*
G01Y284130*
X353924Y289676D02*
G03X353751Y290094I-590J0D01*
G01X353472Y290373*
G03X352464Y289955I-417J-418*
X352491Y289779I591J0*
G01X352648Y289077D02*
G03X352491Y289779I-4336J-603D01*
G01X352648Y289077D02*
G03X353818I585J81D01*
G01X353907Y289533D02*
G03X353818Y289077I4248J-1059D01*
G01X353907Y289533D02*
G03X353924Y289676I-573J143D01*
G01X344396Y290566D02*
G03X343805Y291156I-591J-0D01*
G01X342976*
G03X342386Y290566I0J-590*
X342441Y290317I590J-0*
G01X342806Y289077D02*
G03X342441Y290317I-4337J-603D01*
G01X342806Y289077D02*
G03X343976I585J81D01*
G01X344341Y290317D02*
G03X343976Y289077I3971J-1843D01*
G01X344341Y290317D02*
G03X344396Y290566I-536J249D01*
G01X324260Y277914D02*
G03X323436Y278456I-590J-0D01*
G01X323114Y278344D02*
G03X323436Y278456I-614J2281D01*
G01X323114Y278344D02*
G03X322850Y278191I154J-570D01*
G01X317141Y272483*
G03X316969Y272065I418J-418*
G01Y271803*
G03X317977Y271386I590J0*
G01X324087Y277496*
G03X324260Y277914I-417J418*
G01X302118Y181299D02*
G03X301921Y181739I-591J0D01*
G01X300506Y184398D02*
G03X301921Y181739I4337J602D01*
G01X300506Y184398D02*
G03X299336I-585J-82D01*
G01X297921Y181739D02*
G03X299336Y184398I-2921J3261D01*
G01X297921Y181739D02*
G03X297725Y181299I394J-440D01*
X298315Y180709I590J0*
G01X301527*
G03X302118Y181299I0J590*
G01X302972Y240684D02*
G03X302674Y241197I-591J0D01*
G01X300506Y244398D02*
G03X302674Y241197I4337J602D01*
G01X300506Y244398D02*
G03X299336I-585J-82D01*
G01X297169Y241197D02*
G03X299336Y244398I-2169J3803D01*
G01X297169Y241197D02*
G03X296871Y240684I293J-513D01*
X297462Y240094I591J0*
G01X302381*
G03X302972Y240684I0J590*
G01X293129D02*
G03X292831Y241197I-591J0D01*
G01X290705Y244150D02*
G03X292831Y241197I4295J850D01*
G01X290705Y244150D02*
G03X289535Y244035I-579J-115D01*
G01Y242000*
X289182Y241079D02*
G03X289535Y242000I-1025J921D01*
G01X289182Y241079D02*
G03X289031Y240684I440J-395D01*
X289622Y240094I591J0*
G01X292538*
G03X293129Y240684I0J590*
G01X292275Y181299D02*
G03X292079Y181739I-590J0D01*
G01X290705Y184150D02*
G03X292079Y181739I4295J850D01*
G01X290705Y184150D02*
G03X289535Y184035I-579J-115D01*
G01Y182000*
X289445Y181509D02*
G03X289535Y182000I-1288J491D01*
G01X289445Y181509D02*
G03X289407Y181299I552J-210D01*
G01X289406D02*
G03X289997Y180709I591J0D01*
G01X291685*
G03X292275Y181299I-0J590*
G01X410433Y313274D02*
G03X409538Y313780I-590J-0D01*
G01X390748Y324409D02*
G03X409538Y313780I12402J0D01*
G01X390748Y324409D02*
X390748D01*
X392520Y330798D02*
G03X390748Y324409I10630J-6389D01*
G01X392520Y330798D02*
G03X392605Y331102I-506J304D01*
X392014Y331693I-591J0*
G01X122947*
G03X122356Y331102I-0J-591*
X122440Y330798I591J0*
G01X124213Y324409D02*
G03X122440Y330798I-12402J0D01*
G01X124213Y324409D02*
X124213D01*
X105422Y313780D02*
G03X124213Y324409I6389J10629D01*
G01X105422Y313780D02*
G03X104528Y313274I-304J-506D01*
G01Y123191*
G03X105454Y122705I590J0*
G01X124902Y112500D02*
G03X105454Y122705I-12402J0D01*
G01X124315Y108731D02*
G03X124902Y112500I-11815J3769D01*
G01X122705Y105454D02*
G03X124315Y108731I-10205J7046D01*
G01X122705Y105454D02*
G03X122601Y105118I486J-336D01*
X123191Y104528I590J0*
G01X193983*
G03X194573Y105118I-0J590*
X194400Y105536I-590J0*
G01X165716Y134220*
X163583Y139370D02*
G03X165716Y134220I7283J0D01*
G01X176016Y144520D02*
G03X163583Y139370I-5150J-5150D01*
G01X176016Y144520D02*
X205206Y115330D01*
G03X205624Y115158I418J418*
G01X205624D02*
X360718D01*
X360718D02*
G03X361309Y115748I0J590D01*
G01Y119719*
G03X361191Y120074I-591J0*
G01X359341Y125606D02*
G03X361191Y120074I9252J19D01*
G01X359341Y125606D02*
G03X359340Y125625I-591J-1D01*
X359341Y125644I-590J20*
G01X363967Y133637D02*
G03X359341Y125644I4626J-8012D01*
G01X363967Y133637D02*
G03X364262Y134149I-296J512D01*
G01Y138658*
G03X363132Y138900I-591J0*
G01X361875Y138086D02*
G03X363132Y138900I0J1378D01*
G01X361875Y138086D02*
X319375D01*
X317997Y139464D02*
G03X319375Y138086I1378J-0D01*
G01X317997Y139464D02*
Y160789D01*
G03X316925Y161131I-591J-0*
G01X312638Y162500D02*
G03X316925Y161131I2362J0D01*
G01X312953Y163678D02*
G03X312638Y162500I2047J-1178D01*
G01X312953Y163678D02*
G03X313031Y163973I-512J295D01*
G01Y172562*
G03X312023Y172980I-590J0*
G01X307956Y168913*
G03X307783Y168495I418J-418*
X307954Y168080I591J0*
G01X309220Y165000D02*
G03X307954Y168080I-4377J0D01*
G01X300506Y164398D02*
G03X309220Y165000I4337J602D01*
G01X300506Y164398D02*
G03X299336I-585J-82D01*
G01X298122Y161931D02*
G03X299336Y164398I-3122J3069D01*
G01X298122Y161931D02*
G03X297953Y161517I421J-414D01*
G01Y148483*
G03X298122Y148069I590J-0*
G01X299336Y145602D02*
G03X298122Y148069I-4336J-602D01*
G01X299336Y145602D02*
G03X300506I585J82D01*
G01X309220Y145000D02*
G03X300506Y145602I-4377J0D01*
G01X303538Y140821D02*
G03X309220Y145000I1305J4179D01*
G01X303538Y140821D02*
G03X302771Y140257I-176J-564D01*
X302944Y139840I591J0*
G01X305017Y137766*
G03X305435Y137594I418J418*
G01X310402*
G03X310697Y137672I-0J590*
G01X314237Y135625D02*
G03X310697Y137672I-2362J0D01*
G01Y133578D02*
G03X314237Y135625I1178J2047D01*
G01X310697Y133578D02*
G03X310402Y133656I-295J-512D01*
G01X304375*
X302983Y134233D02*
G03X304375Y133656I1392J1392D01*
G01X302983Y134233D02*
X296619Y140597D01*
G03X296059Y140752I-417J-418*
G01X290705Y144150D02*
G03X296059Y140752I4295J850D01*
G01X290705Y144150D02*
G03X289535Y144035I-579J-115D01*
G01Y142000*
X288157Y140622D02*
G03X289535Y142000I0J1378D01*
G01X288157Y140622D02*
X282157D01*
X280780Y142000D02*
G03X282157Y140622I1377J0D01*
G01X280780Y142000D02*
Y148000D01*
X282157Y149378D02*
G03X280780Y148000I0J-1378D01*
G01X282157Y149378D02*
X288157D01*
X289535Y148000D02*
G03X288157Y149378I-1378J0D01*
G01X289535Y148000D02*
Y145965D01*
G03X290705Y145850I591J-0*
G01X291878Y148069D02*
G03X290705Y145850I3122J-3069D01*
G01X291878Y148069D02*
G03X292047Y148483I-421J414D01*
G01Y161517*
G03X291878Y161931I-590J0*
G01X290705Y164150D02*
G03X291878Y161931I4295J850D01*
G01X290705Y164150D02*
G03X289535Y164035I-579J-115D01*
G01Y162000*
X288157Y160622D02*
G03X289535Y162000I0J1378D01*
G01X288157Y160622D02*
X282157D01*
X280780Y162000D02*
G03X282157Y160622I1377J0D01*
G01X280780Y162000D02*
Y167441D01*
G03X280189Y168031I-591J-0*
G01X273422*
G03X273005Y167859I0J-590*
G01X258872Y153726*
X257480Y153150D02*
G03X258872Y153726I0J1968D01*
G01X257480Y153150D02*
X238855D01*
G03X238438Y152977I0J-591*
G01X226451Y140990*
G03X226278Y140572I417J-418*
X226295Y140429I590J-0*
G01X226425Y139370D02*
G03X226295Y140429I-4378J0D01*
G01X217669Y139370D02*
G03X226425I4378J0D01*
G01X223106Y143618D02*
G03X217669Y139370I-1059J-4248D01*
G01X223106Y143618D02*
G03X223667Y143773I143J573D01*
G01X251285Y171392*
X251517Y171590D02*
G03X251285Y171392I1160J-1590D01*
G01X251517Y171590D02*
G03X251760Y172067I-348J477D01*
X251652Y172407I-591J0*
G01X250858Y174921D02*
G03X251652Y172407I4378J0D01*
G01X259614Y174921D02*
G03X250858I-4378J0D01*
G01X259088Y172840D02*
G03X259614Y174921I-3852J2081D01*
G01X259088Y172840D02*
G03X259017Y172559I519J-281D01*
X259607Y171969I590J0*
G01X260865*
G03X261456Y172559I0J590*
X261385Y172840I-591J0*
G01X260858Y174921D02*
G03X261385Y172840I4378J0D01*
G01X269614Y174921D02*
G03X260858I-4378J0D01*
G01X269088Y172840D02*
G03X269614Y174921I-3852J2081D01*
G01X269088Y172840D02*
G03X269017Y172559I519J-281D01*
X269607Y171969I590J0*
G01X271302*
G03X271720Y172141I0J590*
G01X279710Y180132*
X280534Y180625D02*
G03X279710Y180132I568J-1885D01*
G01X280534Y180625D02*
G03X280954Y181190I-171J565D01*
X280902Y181433I-591J0*
G01X280780Y182000D02*
G03X280902Y181433I1377J0D01*
G01X280780Y182000D02*
Y188000D01*
X282157Y189378D02*
G03X280780Y188000I0J-1378D01*
G01X282157Y189378D02*
X288157D01*
X289535Y188000D02*
G03X288157Y189378I-1378J0D01*
G01X289535Y188000D02*
Y185965D01*
G03X290705Y185850I591J-0*
G01X290719Y185915D02*
G03X290705Y185850I4281J-915D01*
G01X291878Y188069D02*
G03X290719Y185915I3122J-3069D01*
G01X291878Y188069D02*
G03X292047Y188483I-421J414D01*
G01Y201517*
G03X291878Y201931I-590J0*
G01X290705Y204150D02*
G03X291878Y201931I4295J850D01*
G01X290705Y204150D02*
G03X289535Y204035I-579J-115D01*
G01Y202000*
X288157Y200622D02*
G03X289535Y202000I0J1378D01*
G01X288157Y200622D02*
X282157D01*
X280780Y202000D02*
G03X282157Y200622I1377J0D01*
G01X280780Y202000D02*
Y208000D01*
X282157Y209378D02*
G03X280780Y208000I0J-1378D01*
G01X282157Y209378D02*
X288157D01*
X289535Y208000D02*
G03X288157Y209378I-1378J0D01*
G01X289535Y208000D02*
Y205965D01*
G03X290705Y205850I591J-0*
G01X290719Y205915D02*
G03X290705Y205850I4281J-915D01*
G01X291878Y208069D02*
G03X290719Y205915I3122J-3069D01*
G01X291878Y208069D02*
G03X292047Y208483I-421J414D01*
G01Y221517*
G03X291878Y221931I-590J0*
G01X290705Y224150D02*
G03X291878Y221931I4295J850D01*
G01X290705Y224150D02*
G03X289535Y224035I-579J-115D01*
G01Y222000*
X288157Y220622D02*
G03X289535Y222000I0J1378D01*
G01X288157Y220622D02*
X282157D01*
X280780Y222000D02*
G03X282157Y220622I1377J0D01*
G01X280780Y222000D02*
Y224695D01*
G03X279771Y225112I-591J-0*
G01X277766Y223108*
G03X277594Y222690I418J-418*
G01Y205310*
X277017Y203918D02*
G03X277594Y205310I-1392J1392D01*
G01X277017Y203918D02*
X269640Y196541D01*
G03X269467Y196123I417J-418*
X269484Y195980I590J0*
G01X269614Y194921D02*
G03X269484Y195980I-4378J0D01*
G01X260858Y194921D02*
G03X269614I4378J0D01*
G01X260858D02*
X260858D01*
X261129Y196436D02*
G03X260858Y194921I4107J-1515D01*
G01X261129Y196436D02*
G03X261165Y196641I-554J205D01*
X260157Y197058I-590J-0*
G01X259640Y196541*
G03X259467Y196123I417J-418*
X259484Y195980I590J0*
G01X259614Y194921D02*
G03X259484Y195980I-4378J0D01*
G01X250858Y194921D02*
G03X259614I4378J0D01*
G01X256295Y199169D02*
G03X250858Y194921I-1059J-4248D01*
G01X256295Y199169D02*
G03X256856Y199325I143J573D01*
G01X257373Y199842*
G03X257546Y200260I-417J418*
X256751Y200814I-590J-0*
G01X250858Y204921D02*
G03X256751Y200814I4378J0D01*
G01X259614Y204921D02*
G03X250858I-4378J0D01*
G01X259029Y202734D02*
G03X259614Y204921I-3793J2187D01*
G01X259029Y202734D02*
G03X258950Y202439I511J-295D01*
X259719Y201876I590J-0*
G01X260315Y201969D02*
G03X259719Y201876I-0J-1969D01*
G01X260315Y201969D02*
X260865D01*
G03X261456Y202559I0J590*
X261385Y202840I-591J0*
G01X260858Y204921D02*
G03X261385Y202840I4378J0D01*
G01X269343Y206437D02*
G03X260858Y204921I-4107J-1516D01*
G01X269343Y206437D02*
G03X270315Y206224I554J205D01*
G01X270984Y206892*
G03X271156Y207310I-418J418*
G01Y224375*
X271733Y225767D02*
G03X271156Y224375I1392J-1392D01*
G01X271733Y225767D02*
X272989Y227023D01*
G03X273162Y227441I-417J418*
X272572Y228031I-590J-0*
G01X269518*
G03X268928Y227441I0J-590*
X269009Y227141I590J-0*
G01X269614Y224921D02*
G03X269009Y227141I-4378J0D01*
G01X260858Y224921D02*
G03X269614I4378J0D01*
G01X261463Y227141D02*
G03X260858Y224921I3773J-2220D01*
G01X261463Y227141D02*
G03X261545Y227441I-509J300D01*
X260954Y228031I-591J-0*
G01X260157*
X259621Y228106D02*
G03X260157Y228031I536J1894D01*
G01X259621Y228106D02*
G03X258869Y227538I-161J-568D01*
X258958Y227227I591J-0*
G01X259614Y224921D02*
G03X258958Y227227I-4378J0D01*
G01X250858Y224921D02*
G03X259614I4378J0D01*
G01X256751Y229029D02*
G03X250858Y224921I-1515J-4108D01*
G01X256751Y229029D02*
G03X257546Y229583I205J554D01*
X257373Y230000I-590J-0*
G01X256856Y230518*
G03X256295Y230673I-418J-418*
G01X250858Y234921D02*
G03X256295Y230673I4378J0D01*
G01X259614Y234921D02*
G03X250858I-4378J0D01*
G01X259484Y233862D02*
G03X259614Y234921I-4248J1059D01*
G01X259484Y233862D02*
G03X259467Y233719I573J-143D01*
X259640Y233302I590J0*
G01X260157Y232784*
G03X261165Y233202I418J418*
X261129Y233406I-590J-0*
G01X260858Y234921D02*
G03X261129Y233406I4378J0D01*
G01X269614Y234921D02*
G03X260858I-4378J0D01*
G01X269614D02*
X269614D01*
X269088Y232840D02*
G03X269614Y234921I-3852J2081D01*
G01X269088Y232840D02*
G03X269017Y232559I519J-281D01*
X269607Y231969I590J0*
G01X274565*
G03X274983Y232141I-0J590*
G01X282358Y239517*
X282440Y239594D02*
G03X282358Y239517I1310J-1469D01*
G01X282440Y239594D02*
G03X282637Y240035I-394J441D01*
X282080Y240624I-591J-0*
G01X281969Y240635D02*
G03X282080Y240624I188J1365D01*
G01X280780Y242000D02*
G03X281969Y240635I1377J0D01*
G01X280780Y242000D02*
Y248000D01*
X282157Y249378D02*
G03X280780Y248000I0J-1378D01*
G01X282157Y249378D02*
X288157D01*
X289535Y248000D02*
G03X288157Y249378I-1378J0D01*
G01X289535Y248000D02*
Y245965D01*
G03X290705Y245850I591J-0*
G01X299336Y245602D02*
G03X290705Y245850I-4336J-602D01*
G01X299336Y245602D02*
G03X300506I585J82D01*
G01X309213Y245261D02*
G03X300506Y245602I-4370J-261D01*
G01X309213Y245261D02*
G03X310220Y244879I589J35D01*
G01X314734Y249392*
G03X314906Y249810I-418J418*
G01Y261322*
G03X313898Y261739I-590J-0*
G01X305767Y253608*
X304375Y253031D02*
G03X305767Y253608I0J1969D01*
G01X304375Y253031D02*
X278560D01*
G03X278142Y252859I0J-590*
G01X269701Y244417*
G03X269538Y244109I417J-418*
G01X260858Y244921D02*
G03X269538Y244109I4378J0D01*
G01X260858Y244921D02*
X260858D01*
X261129Y246436D02*
G03X260858Y244921I4107J-1515D01*
G01X261129Y246436D02*
G03X261165Y246641I-554J205D01*
X260157Y247058I-590J-0*
G01X259640Y246541*
G03X259467Y246123I417J-418*
X259484Y245980I590J0*
G01X259614Y244921D02*
G03X259484Y245980I-4378J0D01*
G01X250858Y244921D02*
G03X259614I4378J0D01*
G01X251463Y247141D02*
G03X250858Y244921I3773J-2220D01*
G01X251463Y247141D02*
G03X251545Y247441I-509J300D01*
X250954Y248031I-591J-0*
G01X241875*
X240483Y248608D02*
G03X241875Y248031I1392J1392D01*
G01X240483Y248608D02*
X236525Y252566D01*
G03X236261Y252719I-418J-417*
G01X235153Y253383D02*
G03X236261Y252719I1722J1617D01*
G01X235153Y253383D02*
G03X234305Y253396I-430J-404D01*
G01X189517Y208608*
X188125Y208031D02*
G03X189517Y208608I0J1969D01*
G01X188125Y208031D02*
X169518D01*
G03X168928Y207441I0J-590*
X169009Y207141I590J-0*
G01X169614Y204921D02*
G03X169009Y207141I-4378J0D01*
G01X169614Y204921D02*
X169614D01*
X169029Y202734D02*
G03X169614Y204921I-3793J2187D01*
G01X169029Y202734D02*
G03X168950Y202439I511J-295D01*
X169719Y201876I590J-0*
G01X170315Y201969D02*
G03X169719Y201876I-0J-1969D01*
G01X170315Y201969D02*
X175815D01*
G03X176233Y202141I-0J590*
G01X177566Y203475*
G03X177719Y203739I-417J418*
G01X182362Y203125D02*
G03X177719Y203739I-2362J0D01*
G01X182362Y203125D02*
X182362D01*
X180614Y200844D02*
G03X182362Y203125I-614J2281D01*
G01X180614Y200844D02*
G03X180350Y200691I154J-570D01*
G01X178267Y198608*
X176875Y198031D02*
G03X178267Y198608I0J1969D01*
G01X176875Y198031D02*
X171375D01*
G03X170957Y197859I-0J-590*
G01X169640Y196541*
G03X169467Y196123I417J-418*
X169484Y195980I590J0*
G01X169614Y194921D02*
G03X169484Y195980I-4378J0D01*
G01X169614Y194921D02*
X169614D01*
X169471Y193811D02*
G03X169614Y194921I-4235J1110D01*
G01X169471Y193811D02*
G03X169452Y193661I571J-150D01*
X170460Y193244I590J0*
G01X171941Y194725*
G03X172094Y194989I-417J418*
G01X176737Y194375D02*
G03X172094Y194989I-2362J0D01*
G01X176737Y194375D02*
X176737D01*
X174989Y192094D02*
G03X176737Y194375I-614J2281D01*
G01X174989Y192094D02*
G03X174725Y191941I154J-570D01*
G01X172598Y189814*
G03X172464Y189607I417J-418*
G01X172017Y188918D02*
G03X172464Y189607I-1392J1392D01*
G01X172017Y188918D02*
X169640Y186541D01*
G03X169467Y186123I417J-418*
X169484Y185980I590J0*
G01X169614Y184921D02*
G03X169484Y185980I-4378J0D01*
G01X160858Y184921D02*
G03X169614I4378J0D01*
G01X166295Y189169D02*
G03X160858Y184921I-1059J-4248D01*
G01X166295Y189169D02*
G03X166856Y189325I143J573D01*
G01X167373Y189842*
G03X167546Y190260I-417J418*
X166751Y190814I-590J-0*
G01X160858Y194921D02*
G03X166751Y190814I4378J0D01*
G01X166295Y199169D02*
G03X160858Y194921I-1059J-4248D01*
G01X166295Y199169D02*
G03X166856Y199325I143J573D01*
G01X167373Y199842*
G03X167546Y200260I-417J418*
X166751Y200814I-590J-0*
G01X160858Y204921D02*
G03X166751Y200814I4378J0D01*
G01X161463Y207141D02*
G03X160858Y204921I3773J-2220D01*
G01X161463Y207141D02*
G03X161545Y207441I-509J300D01*
X160954Y208031I-591J-0*
G01X160157*
X159621Y208106D02*
G03X160157Y208031I536J1894D01*
G01X159621Y208106D02*
G03X158869Y207538I-161J-568D01*
X158958Y207227I591J-0*
G01X159614Y204921D02*
G03X158958Y207227I-4378J0D01*
G01X153428Y200934D02*
G03X159614Y204921I1808J3987D01*
G01X153428Y200934D02*
G03X152594Y200396I-244J-538D01*
G01Y199446*
G03X153428Y198908I590J0*
G01X159614Y194921D02*
G03X153428Y198908I-4378J0D01*
G01X153721Y190814D02*
G03X159614Y194921I1515J4107D01*
G01X153721Y190814D02*
G03X152926Y190260I-204J-554D01*
X153099Y189842I591J-0*
G01X153617Y189325*
G03X154177Y189169I417J417*
G01X159614Y184921D02*
G03X154177Y189169I-4378J0D01*
G01X150858Y184921D02*
G03X159614I4378J0D01*
G01X150988Y185980D02*
G03X150858Y184921I4248J-1059D01*
G01X150988Y185980D02*
G03X151006Y186123I-573J143D01*
X150833Y186541I-591J0*
G01X150477Y186897*
G03X149469Y186479I-418J-418*
G01Y160157*
X148892Y158766D02*
G03X149469Y160157I-1392J1391D01*
G01X148892Y158766D02*
X139246Y149119D01*
G03X139073Y148702I417J-417*
X139090Y148559I590J-0*
G01X139220Y147501D02*
G03X139090Y148559I-4377J-1D01*
G01X139220Y147501D02*
Y147491D01*
X130506Y146898D02*
G03X139220Y147491I4337J602D01*
G01X130506Y146898D02*
G03X129336I-585J-82D01*
G01X120705Y146650D02*
G03X129336Y146898I4295J850D01*
G01X120705Y146650D02*
G03X119535Y146535I-579J-115D01*
G01Y144500*
X118157Y143122D02*
G03X119535Y144500I0J1378D01*
G01X118157Y143122D02*
X112157D01*
X110780Y144500D02*
G03X112157Y143122I1377J0D01*
G01X110780Y144500D02*
Y150500D01*
X112157Y151878D02*
G03X110780Y150500I0J-1378D01*
G01X112157Y151878D02*
X118157D01*
X119535Y150500D02*
G03X118157Y151878I-1378J0D01*
G01X119535Y150500D02*
Y148465D01*
G03X120705Y148350I591J-0*
G01X120719Y148415D02*
G03X120705Y148350I4281J-915D01*
G01X121878Y150569D02*
G03X120719Y148415I3122J-3069D01*
G01X121878Y150569D02*
G03X122047Y150983I-421J414D01*
G01Y164017*
G03X121878Y164431I-590J0*
G01X120705Y166650D02*
G03X121878Y164431I4295J850D01*
G01X120705Y166650D02*
G03X119535Y166535I-579J-115D01*
G01Y164500*
X118157Y163122D02*
G03X119535Y164500I0J1378D01*
G01X118157Y163122D02*
X112157D01*
X110780Y164500D02*
G03X112157Y163122I1377J0D01*
G01X110780Y164500D02*
Y170500D01*
X112157Y171878D02*
G03X110780Y170500I0J-1378D01*
G01X112157Y171878D02*
X118157D01*
X119535Y170500D02*
G03X118157Y171878I-1378J0D01*
G01X119535Y170500D02*
Y168465D01*
G03X120705Y168350I591J-0*
G01X120719Y168415D02*
G03X120705Y168350I4281J-915D01*
G01X121878Y170569D02*
G03X120719Y168415I3122J-3069D01*
G01X121878Y170569D02*
G03X122047Y170983I-421J414D01*
G01Y184017*
G03X121878Y184431I-590J0*
G01X120705Y186650D02*
G03X121878Y184431I4295J850D01*
G01X120705Y186650D02*
G03X119535Y186535I-579J-115D01*
G01Y184500*
X118157Y183122D02*
G03X119535Y184500I0J1378D01*
G01X118157Y183122D02*
X112157D01*
X110780Y184500D02*
G03X112157Y183122I1377J0D01*
G01X110780Y184500D02*
Y190500D01*
X112157Y191878D02*
G03X110780Y190500I0J-1378D01*
G01X112157Y191878D02*
X118157D01*
X119535Y190500D02*
G03X118157Y191878I-1378J0D01*
G01X119535Y190500D02*
Y188465D01*
G03X120705Y188350I591J-0*
G01X120719Y188415D02*
G03X120705Y188350I4281J-915D01*
G01X121878Y190569D02*
G03X120719Y188415I3122J-3069D01*
G01X121878Y190569D02*
G03X122047Y190983I-421J414D01*
G01Y204017*
G03X121878Y204431I-590J0*
G01X120705Y206650D02*
G03X121878Y204431I4295J850D01*
G01X120705Y206650D02*
G03X119535Y206535I-579J-115D01*
G01Y204500*
X118157Y203122D02*
G03X119535Y204500I0J1378D01*
G01X118157Y203122D02*
X112157D01*
X110780Y204500D02*
G03X112157Y203122I1377J0D01*
G01X110780Y204500D02*
Y210500D01*
X112157Y211878D02*
G03X110780Y210500I0J-1378D01*
G01X112157Y211878D02*
X118157D01*
X119535Y210500D02*
G03X118157Y211878I-1378J0D01*
G01X119535Y210500D02*
Y208465D01*
G03X120705Y208350I591J-0*
G01X120719Y208415D02*
G03X120705Y208350I4281J-915D01*
G01X121878Y210569D02*
G03X120719Y208415I3122J-3069D01*
G01X121878Y210569D02*
G03X122047Y210983I-421J414D01*
G01Y224017*
G03X121878Y224431I-590J0*
G01X120705Y226650D02*
G03X121878Y224431I4295J850D01*
G01X120705Y226650D02*
G03X119535Y226535I-579J-115D01*
G01Y224500*
X118157Y223122D02*
G03X119535Y224500I0J1378D01*
G01X118157Y223122D02*
X112157D01*
X110780Y224500D02*
G03X112157Y223122I1377J0D01*
G01X110780Y224500D02*
Y230500D01*
X112157Y231878D02*
G03X110780Y230500I0J-1378D01*
G01X112157Y231878D02*
X118157D01*
X119535Y230500D02*
G03X118157Y231878I-1378J0D01*
G01X119535Y230500D02*
Y228465D01*
G03X120705Y228350I591J-0*
G01X120719Y228415D02*
G03X120705Y228350I4281J-915D01*
G01X121878Y230569D02*
G03X120719Y228415I3122J-3069D01*
G01X121878Y230569D02*
G03X122047Y230983I-421J414D01*
G01Y244017*
G03X121878Y244431I-590J0*
G01X120705Y246650D02*
G03X121878Y244431I4295J850D01*
G01X120705Y246650D02*
G03X119535Y246535I-579J-115D01*
G01Y244500*
X118157Y243122D02*
G03X119535Y244500I0J1378D01*
G01X118157Y243122D02*
X112157D01*
X110780Y244500D02*
G03X112157Y243122I1377J0D01*
G01X110780Y244500D02*
Y250500D01*
X112157Y251878D02*
G03X110780Y250500I0J-1378D01*
G01X112157Y251878D02*
X118157D01*
X119535Y250500D02*
G03X118157Y251878I-1378J0D01*
G01X119535Y250500D02*
Y248465D01*
G03X120705Y248350I591J-0*
G01X120719Y248415D02*
G03X120705Y248350I4281J-915D01*
G01X121878Y250569D02*
G03X120719Y248415I3122J-3069D01*
G01X121878Y250569D02*
G03X122047Y250983I-421J414D01*
G01Y264017*
G03X121878Y264431I-590J0*
G01X120705Y266650D02*
G03X121878Y264431I4295J850D01*
G01X120705Y266650D02*
G03X119535Y266535I-579J-115D01*
G01Y264500*
X118157Y263122D02*
G03X119535Y264500I0J1378D01*
G01X118157Y263122D02*
X112157D01*
X110780Y264500D02*
G03X112157Y263122I1377J0D01*
G01X110780Y264500D02*
Y270500D01*
X112157Y271878D02*
G03X110780Y270500I0J-1378D01*
G01X112157Y271878D02*
X118157D01*
X119535Y270500D02*
G03X118157Y271878I-1378J0D01*
G01X119535Y270500D02*
Y268465D01*
G03X120705Y268350I591J-0*
G01X120719Y268415D02*
G03X120705Y268350I4281J-915D01*
G01X121878Y270569D02*
G03X120719Y268415I3122J-3069D01*
G01X121878Y270569D02*
G03X122047Y270983I-421J414D01*
G01Y284017*
G03X121878Y284431I-590J0*
G01X120705Y286650D02*
G03X121878Y284431I4295J850D01*
G01X120705Y286650D02*
G03X119535Y286535I-579J-115D01*
G01Y284500*
X118157Y283122D02*
G03X119535Y284500I0J1378D01*
G01X118157Y283122D02*
X112157D01*
X110780Y284500D02*
G03X112157Y283122I1377J0D01*
G01X110780Y284500D02*
Y290500D01*
X112157Y291878D02*
G03X110780Y290500I0J-1378D01*
G01X112157Y291878D02*
X118157D01*
X119535Y290500D02*
G03X118157Y291878I-1378J0D01*
G01X119535Y290500D02*
Y288465D01*
G03X120705Y288350I591J-0*
G01X126059Y291748D02*
G03X120705Y288350I-1059J-4248D01*
G01X126059Y291748D02*
G03X126619Y291903I143J573D01*
G01X133608Y298892*
X135000Y299469D02*
G03X133608Y298892I0J-1969D01*
G01X135000Y299469D02*
X167441D01*
G03X168031Y300059I-0J590*
G01Y304941*
G03X167441Y305531I-590J-0*
G01X159203*
X157811Y306108D02*
G03X159203Y305531I1392J1392D01*
G01X157811Y306108D02*
X148029Y315890D01*
G03X147611Y316063I-418J-418*
G01X145325*
X144222Y316614D02*
G03X145325Y316063I1103J827D01*
G01X144222Y316614D02*
G03X143278I-472J-354D01*
G01X142175Y316063D02*
G03X143278Y316614I0J1378D01*
G01X142175Y316063D02*
X138238D01*
X136860Y317441D02*
G03X138238Y316063I1378J-0D01*
G01X136860Y317441D02*
Y322559D01*
X138238Y323937D02*
G03X136860Y322559I0J-1378D01*
G01X138238Y323937D02*
X140525D01*
G03X140942Y324110I-0J591*
G01X142599Y325767*
X143991Y326344D02*
G03X142599Y325767I0J-1969D01*
G01X143991Y326344D02*
X155172D01*
X156564Y325767D02*
G03X155172Y326344I-1392J-1392D01*
G01X156564Y325767D02*
X158221Y324110D01*
G03X158639Y323937I418J418*
G01X160925*
X162028Y323386D02*
G03X160925Y323937I-1103J-827D01*
G01X162028Y323386D02*
G03X162972I472J354D01*
G01X164075Y323937D02*
G03X162972Y323386I-0J-1378D01*
G01X164075Y323937D02*
X168012D01*
X169390Y322559D02*
G03X168012Y323937I-1378J0D01*
G01X169390Y322559D02*
Y317441D01*
X168012Y316063D02*
G03X169390Y317441I-0J1378D01*
G01X168012Y316063D02*
X164075D01*
X162972Y316614D02*
G03X164075Y316063I1103J827D01*
G01X162972Y316614D02*
G03X162028I-472J-354D01*
G01X160925Y316063D02*
G03X162028Y316614I0J1378D01*
G01X160925Y316063D02*
X156988D01*
X155610Y317441D02*
G03X156988Y316063I1378J-0D01*
G01X155610Y317441D02*
Y320908D01*
X155610D02*
G03X155437Y321326I-590J0D01*
G01X154530Y322234*
G03X154112Y322406I-418J-418*
G01X151230*
G03X150640Y321816I0J-590*
G01Y319092*
X150640D02*
G03X150813Y318674I590J-0D01*
G01X159845Y309641*
G03X160263Y309469I418J418*
G01X170624*
X172594Y307501D02*
G03X170624Y309469I-1969J-1D01*
G01X172594Y307501D02*
Y307493D01*
X172113Y306211D02*
G03X172594Y307493I-1488J1289D01*
G01X172113Y306211D02*
G03X171969Y305824I446J-387D01*
G01Y300027*
G03X172977Y299609I590J-0*
G01X178457Y305089*
G03X178630Y305507I-418J418*
X178039Y306097I-591J-0*
G01X176540*
X175162Y307475D02*
G03X176540Y306097I1378J0D01*
G01X175162Y307475D02*
Y312594D01*
X175773Y313738D02*
G03X175162Y312594I767J-1144D01*
G01X175773Y313738D02*
G03X176034Y314228I-329J490D01*
X176007Y314406I-590J0*
G01X175915Y315000D02*
G03X176007Y314406I1969J-0D01*
G01X175915Y315000D02*
Y315037D01*
G03X175502Y315600I-590J-0*
G01X174537Y316914D02*
G03X175502Y315600I1378J0D01*
G01X174537Y316914D02*
Y322032D01*
X175915Y323410D02*
G03X174537Y322032I0J-1378D01*
G01X175915Y323410D02*
X179852D01*
X180955Y322859D02*
G03X179852Y323410I-1103J-827D01*
G01X180955Y322859D02*
G03X181900I472J355D01*
G01X183002Y323410D02*
G03X181900Y322859I-0J-1378D01*
G01X183002Y323410D02*
X186939D01*
X188317Y322032D02*
G03X186939Y323410I-1378J0D01*
G01X188317Y322032D02*
Y316914D01*
X186939Y315536D02*
G03X188317Y316914I-0J1378D01*
G01X186939Y315536D02*
X183002D01*
X181900Y316088D02*
G03X183002Y315536I1102J826D01*
G01X181900Y316088D02*
G03X180955I-473J-355D01*
G01X180594Y315753D02*
G03X180955Y316088I-742J1161D01*
G01X180594Y315753D02*
G03X180321Y315255I318J-498D01*
X180357Y315052I591J0*
G01X180405Y314905D02*
G03X180357Y315052I-1896J-530D01*
G01X180476Y314450D02*
G03X180405Y314905I-1967J-75D01*
G01X180476Y314450D02*
G03X180889Y313908I590J22D01*
G01X180997Y313870D02*
G03X180889Y313908I-520J-1276D01*
G01X181580Y313420D02*
G03X180997Y313870I-1103J-826D01*
G01X181580Y313420D02*
G03X182525I472J355D01*
G01X183627Y313971D02*
G03X182525Y313420I-0J-1377D01*
G01X183627Y313971D02*
X187564D01*
X188942Y312594D02*
G03X187564Y313971I-1378J-0D01*
G01X188942Y312594D02*
Y307475D01*
X187564Y306097D02*
G03X188942Y307475I-0J1378D01*
G01X187564Y306097D02*
X185278D01*
G03X184860Y305924I-0J-590*
G01X172766Y293831*
G03X172594Y293413I418J-418*
G01Y280342*
G03X173602Y279924I590J-0*
G01X198767Y305089*
G03X198940Y305507I-418J418*
X198349Y306097I-591J-0*
G01X196225*
X194847Y307475D02*
G03X196225Y306097I1378J0D01*
G01X194847Y307475D02*
Y312594D01*
X195458Y313738D02*
G03X194847Y312594I767J-1144D01*
G01X195458Y313738D02*
G03X195719Y314228I-329J490D01*
X195692Y314406I-590J0*
G01X195600Y315000D02*
G03X195692Y314406I1969J-0D01*
G01X195600Y315000D02*
Y315037D01*
G03X195187Y315600I-590J-0*
G01X194222Y316914D02*
G03X195187Y315600I1378J0D01*
G01X194222Y316914D02*
Y322032D01*
X195600Y323410D02*
G03X194222Y322032I0J-1378D01*
G01X195600Y323410D02*
X199537D01*
X200640Y322859D02*
G03X199537Y323410I-1103J-827D01*
G01X200640Y322859D02*
G03X201585I472J355D01*
G01X202687Y323410D02*
G03X201585Y322859I0J-1378D01*
G01X202687Y323410D02*
X206624D01*
X208002Y322032D02*
G03X206624Y323410I-1378J0D01*
G01X208002Y322032D02*
Y316914D01*
X206624Y315536D02*
G03X208002Y316914I0J1378D01*
G01X206624Y315536D02*
X202687D01*
X201585Y316088D02*
G03X202687Y315536I1102J826D01*
G01X201585Y316088D02*
G03X200640I-473J-355D01*
G01X200279Y315753D02*
G03X200640Y316088I-742J1161D01*
G01X200279Y315753D02*
G03X200006Y315255I318J-498D01*
X200042Y315052I591J0*
G01X200090Y314905D02*
G03X200042Y315052I-1896J-530D01*
G01X200161Y314450D02*
G03X200090Y314905I-1967J-75D01*
G01X200161Y314450D02*
G03X200575Y313908I590J22D01*
G01X200682Y313870D02*
G03X200575Y313908I-520J-1276D01*
G01X201265Y313420D02*
G03X200682Y313870I-1103J-826D01*
G01X201265Y313420D02*
G03X202210I472J355D01*
G01X203312Y313971D02*
G03X202210Y313420I0J-1377D01*
G01X203312Y313971D02*
X207249D01*
X208627Y312594D02*
G03X207249Y313971I-1378J-0D01*
G01X208627Y312594D02*
Y307475D01*
X207249Y306097D02*
G03X208627Y307475I0J1378D01*
G01X207249Y306097D02*
X205588D01*
G03X205170Y305924I-0J-590*
G01X176516Y277271*
G03X176344Y276853I418J-418*
G01Y234303*
G03X177352Y233886I590J0*
G01X180359Y236892*
G03X180531Y237310I-418J418*
G01Y266978*
X181108Y268370D02*
G03X180531Y266978I1392J-1392D01*
G01X181108Y268370D02*
X217827Y305089D01*
G03X218000Y305507I-418J418*
X217409Y306097I-591J-0*
G01X215910*
X214532Y307475D02*
G03X215910Y306097I1378J0D01*
G01X214532Y307475D02*
Y312594D01*
X215143Y313738D02*
G03X214532Y312594I767J-1144D01*
G01X215143Y313738D02*
G03X215405Y314228I-329J490D01*
G01X215405*
G03X215377Y314406I-591J0*
G01X215285Y315000D02*
G03X215377Y314406I1969J0D01*
G01X215285Y315000D02*
Y315037D01*
G03X214872Y315600I-590J-0*
G01X213907Y316914D02*
G03X214872Y315600I1378J0D01*
G01X213907Y316914D02*
Y322032D01*
X215285Y323410D02*
G03X213907Y322032I0J-1378D01*
G01X215285Y323410D02*
X219222D01*
X220325Y322859D02*
G03X219222Y323410I-1103J-827D01*
G01X220325Y322859D02*
G03X221270I472J355D01*
G01X222372Y323410D02*
G03X221270Y322859I0J-1378D01*
G01X222372Y323410D02*
X226309D01*
X227687Y322032D02*
G03X226309Y323410I-1378J0D01*
G01X227687Y322032D02*
Y316914D01*
X226309Y315536D02*
G03X227687Y316914I0J1378D01*
G01X226309Y315536D02*
X222372D01*
X221270Y316088D02*
G03X222372Y315536I1102J826D01*
G01X221270Y316088D02*
G03X220325I-473J-355D01*
G01X219964Y315753D02*
G03X220325Y316088I-742J1161D01*
G01X219964Y315753D02*
G03X219691Y315255I318J-498D01*
X219727Y315052I591J0*
G01X219846Y314450D02*
G03X219727Y315052I-1967J-75D01*
G01X219846Y314450D02*
G03X220260Y313908I590J22D01*
G01X220950Y313420D02*
G03X220260Y313908I-1103J-826D01*
G01X220950Y313420D02*
G03X221895I472J355D01*
G01X222997Y313971D02*
G03X221895Y313420I0J-1377D01*
G01X222997Y313971D02*
X226934D01*
X228312Y312594D02*
G03X226934Y313971I-1378J-0D01*
G01X228312Y312594D02*
Y307475D01*
X226934Y306097D02*
G03X228312Y307475I0J1378D01*
G01X226934Y306097D02*
X224648D01*
G03X224230Y305924I-0J-590*
G01X184641Y266336*
G03X184469Y265918I418J-418*
G01Y236250*
X183892Y234858D02*
G03X184469Y236250I-1392J1392D01*
G01X183892Y234858D02*
X174511Y225477D01*
G03X174338Y225059I417J-418*
X174928Y224469I590J0*
G01X188940*
G03X189358Y224641I-0J590*
G01X245483Y280767*
X246875Y281344D02*
G03X245483Y280767I0J-1969D01*
G01X246875Y281344D02*
X251266D01*
G03X251857Y281934I-0J590*
X251738Y282289I-591J0*
G01X250858Y284921D02*
G03X251738Y282289I4378J0D01*
G01X259614Y284921D02*
G03X250858I-4378J0D01*
G01X259614D02*
X259614D01*
X258735Y282289D02*
G03X259614Y284921I-3499J2632D01*
G01X258735Y282289D02*
G03X258616Y281934I471J-355D01*
X259206Y281344I590J0*
G01X261266*
G03X261857Y281934I-0J590*
X261738Y282289I-591J0*
G01X260858Y284921D02*
G03X261738Y282289I4378J0D01*
G01X269614Y284921D02*
G03X260858I-4378J0D01*
G01X269614D02*
X269614D01*
X268735Y282289D02*
G03X269614Y284921I-3499J2632D01*
G01X268735Y282289D02*
G03X268616Y281934I471J-355D01*
X269206Y281344I590J0*
G01X271652*
G03X271947Y281422I-0J590*
G01X275487Y279375D02*
G03X271947Y281422I-2362J0D01*
G01Y277328D02*
G03X275487Y279375I1178J2047D01*
G01X271947Y277328D02*
G03X271652Y277406I-295J-512D01*
G01X269829*
G03X269239Y276816I0J-590*
X269283Y276591I590J-0*
G01X269614Y274921D02*
G03X269283Y276591I-4378J0D01*
G01X269614Y274921D02*
X269614D01*
X260858D02*
G03X269614I4378J0D01*
G01X260858D02*
X260858D01*
X261189Y276591D02*
G03X260858Y274921I4047J-1670D01*
G01X261189Y276591D02*
G03X261234Y276816I-546J225D01*
X260643Y277406I-591J-0*
G01X259829*
G03X259239Y276816I0J-590*
X259283Y276591I590J-0*
G01X259614Y274921D02*
G03X259283Y276591I-4378J0D01*
G01X259614Y274921D02*
X259614D01*
X250858D02*
G03X259614I4378J0D01*
G01X250858D02*
X250858D01*
X251189Y276591D02*
G03X250858Y274921I4047J-1670D01*
G01X251189Y276591D02*
G03X251234Y276816I-546J225D01*
X250643Y277406I-591J-0*
G01X247935*
G03X247517Y277234I0J-590*
G01X191392Y221108*
X190000Y220531D02*
G03X191392Y221108I0J1969D01*
G01X190000Y220531D02*
X173875D01*
G03X173457Y220359I-0J-590*
G01X169640Y216541*
G03X169467Y216123I417J-418*
X169484Y215980I590J0*
G01X169614Y214921D02*
G03X169484Y215980I-4378J0D01*
G01X169614Y214921D02*
X169614D01*
X169088Y212840D02*
G03X169614Y214921I-3852J2081D01*
G01X169088Y212840D02*
G03X169017Y212559I519J-281D01*
X169607Y211969I590J0*
G01X187065*
G03X187483Y212141I-0J590*
G01X236733Y261392*
X238125Y261969D02*
G03X236733Y261392I0J-1969D01*
G01X238125Y261969D02*
X250865D01*
G03X251456Y262559I0J590*
X251385Y262840I-591J0*
G01X250858Y264921D02*
G03X251385Y262840I4378J0D01*
G01X259614Y264921D02*
G03X250858I-4378J0D01*
G01X259614D02*
X259614D01*
X259088Y262840D02*
G03X259614Y264921I-3852J2081D01*
G01X259088Y262840D02*
G03X259017Y262559I519J-281D01*
X259607Y261969I590J0*
G01X260865*
G03X261456Y262559I0J590*
X261385Y262840I-591J0*
G01X260858Y264921D02*
G03X261385Y262840I4378J0D01*
G01X269614Y264921D02*
G03X260858I-4378J0D01*
G01X269614D02*
X269614D01*
X269088Y262840D02*
G03X269614Y264921I-3852J2081D01*
G01X269088Y262840D02*
G03X269017Y262559I519J-281D01*
X269607Y261969I590J0*
G01X280189*
G03X280780Y262559I-0J590*
G01Y268000*
X282157Y269378D02*
G03X280780Y268000I0J-1378D01*
G01X282157Y269378D02*
X288157D01*
X289535Y268000D02*
G03X288157Y269378I-1378J0D01*
G01X289535Y268000D02*
Y265965D01*
G03X290705Y265850I591J-0*
G01X290719Y265915D02*
G03X290705Y265850I4281J-915D01*
G01X291878Y268069D02*
G03X290719Y265915I3122J-3069D01*
G01X291878Y268069D02*
G03X292047Y268483I-421J414D01*
G01Y281517*
G03X291878Y281931I-590J0*
G01X290705Y284150D02*
G03X291878Y281931I4295J850D01*
G01X290705Y284150D02*
G03X289535Y284035I-579J-115D01*
G01Y282000*
X288157Y280622D02*
G03X289535Y282000I0J1378D01*
G01X288157Y280622D02*
X282157D01*
X280780Y282000D02*
G03X282157Y280622I1377J0D01*
G01X280780Y282000D02*
Y288000D01*
X282157Y289378D02*
G03X280780Y288000I0J-1378D01*
G01X282157Y289378D02*
X288157D01*
X289535Y288000D02*
G03X288157Y289378I-1378J0D01*
G01X289535Y288000D02*
Y285965D01*
G03X290705Y285850I591J-0*
G01X299336Y285602D02*
G03X290705Y285850I-4336J-602D01*
G01X299336Y285602D02*
G03X300506I585J82D01*
G01X309220Y285001D02*
G03X300506Y285602I-4377J-1D01*
G01X309220Y285001D02*
Y284991D01*
X300506Y284398D02*
G03X309220Y284991I4337J602D01*
G01X300506Y284398D02*
G03X299336I-585J-82D01*
G01X298122Y281931D02*
G03X299336Y284398I-3122J3069D01*
G01X298122Y281931D02*
G03X297953Y281517I421J-414D01*
G01Y268483*
G03X298122Y268069I590J-0*
G01X299336Y265602D02*
G03X298122Y268069I-4336J-602D01*
G01X299336Y265602D02*
G03X300506I585J82D01*
G01X308913Y266613D02*
G03X300506Y265602I-4070J-1613D01*
G01X308913Y266613D02*
G03X309879Y266413I549J218D01*
G01X312859Y269392*
G03X313031Y269810I-418J418*
G01Y273125*
X313608Y274517D02*
G03X313031Y273125I1392J-1392D01*
G01X313608Y274517D02*
X320066Y280975D01*
G03X320219Y281239I-417J418*
G01X324862Y280625D02*
G03X320219Y281239I-2362J0D01*
G01X324862Y280625D02*
X324862D01*
X324669Y279689D02*
G03X324862Y280625I-2169J936D01*
G01X324669Y279689D02*
G03X324621Y279455I542J-234D01*
X325629Y279038I590J0*
G01X329679Y283088*
G03X329852Y283506I-417J418*
X329262Y284096I-590J-0*
G01X325627*
X324249Y285474D02*
G03X325627Y284096I1378J0D01*
G01X324249Y285474D02*
Y291474D01*
X325627Y292852D02*
G03X324249Y291474I-0J-1378D01*
G01X325627Y292852D02*
X331627D01*
X332594Y292456D02*
G03X331627Y292852I-967J-982D01*
G01X332594Y292456D02*
G03X333426Y292460I414J421D01*
G01X335483Y294517*
X336875Y295094D02*
G03X335483Y294517I0J-1969D01*
G01X336875Y295094D02*
X353504D01*
X353766Y295076D02*
G03X353504Y295094I-262J-1951D01*
G01X353766Y295076D02*
G03X354435Y295661I79J585D01*
X354262Y296079I-590J0*
G01X348108Y302234*
G03X347690Y302406I-418J-418*
G01X260223*
G03X259928Y302328I0J-590*
G01X256388Y304375D02*
G03X259928Y302328I2362J0D01*
G01Y306422D02*
G03X256388Y304375I-1178J-2047D01*
G01X259928Y306422D02*
G03X260223Y306344I295J512D01*
G01X333027*
G03X333617Y306934I-0J590*
X333146Y307513I-590J0*
G01X329648Y311801D02*
G03X333146Y307513I4378J0D01*
G01X338404Y311801D02*
G03X329648I-4378J0D01*
G01X334906Y307513D02*
G03X338404Y311801I-880J4288D01*
G01X334906Y307513D02*
G03X334434Y306934I118J-579D01*
X335024Y306344I590J0*
G01X343027*
G03X343617Y306934I-0J590*
X343146Y307513I-590J0*
G01X339648Y311801D02*
G03X343146Y307513I4378J0D01*
G01X348404Y311801D02*
G03X339648I-4378J0D01*
G01X344906Y307513D02*
G03X348404Y311801I-880J4288D01*
G01X344906Y307513D02*
G03X344434Y306934I118J-579D01*
X345024Y306344I590J0*
G01X348750*
X350142Y305767D02*
G03X348750Y306344I-1392J-1392D01*
G01X350142Y305767D02*
X364517Y291392D01*
X365094Y290000D02*
G03X364517Y291392I-1969J0D01*
G01X365094Y290000D02*
Y280625D01*
X364517Y279233D02*
G03X365094Y280625I-1392J1392D01*
G01X364517Y279233D02*
X360296Y275012D01*
G03X360123Y274595I418J-417*
G01Y269111*
G03X360409Y268605I591J0*
G01X362532Y264853D02*
G03X360409Y268605I-4377J-1D01*
G01X362533Y264853D02*
X362532Y264844D01*
X353818Y264250D02*
G03X362532Y264844I4337J602D01*
G01X353818Y264250D02*
G03X352648I-585J-81D01*
G01X343976D02*
G03X352648I4336J602D01*
G01X343976D02*
G03X342806I-585J-81D01*
G01X334175Y264002D02*
G03X342806Y264250I4294J850D01*
G01X334175Y264002D02*
G03X333005Y263888I-580J-114D01*
G01Y261852*
X331627Y260474D02*
G03X333005Y261852I-0J1378D01*
G01X331627Y260474D02*
X325627D01*
X324249Y261852D02*
G03X325627Y260474I1378J0D01*
G01X324249Y261852D02*
Y265039D01*
G03X323241Y265457I-591J0*
G01X319016Y261233*
G03X318844Y260815I418J-418*
G01Y248750*
X318267Y247358D02*
G03X318844Y248750I-1392J1392D01*
G01X318267Y247358D02*
X309511Y238602D01*
G03X309338Y238184I417J-418*
X309928Y237594I590J0*
G01X323314*
G03X323905Y238184I-0J590*
G01Y243625*
X325282Y245003D02*
G03X323905Y243625I0J-1378D01*
G01X325282Y245003D02*
X331282D01*
X332660Y243625D02*
G03X331282Y245003I-1378J0D01*
G01X332660Y243625D02*
Y241590D01*
G03X333830Y241475I591J-0*
G01X340995Y243931D02*
G03X333830Y241475I-2870J-3306D01*
G01X340995Y243931D02*
G03X341800Y243959I388J446D01*
G01X344858Y247017*
X346250Y247594D02*
G03X344858Y247017I0J-1969D01*
G01X346250Y247594D02*
X395468D01*
X396859Y247017D02*
G03X395468Y247594I-1391J-1392D01*
G01X396859Y247017D02*
X398848Y245028D01*
G03X399408Y244873I418J418*
G01X404845Y240626D02*
G03X399408Y244873I-4377J-1D01*
G01X404845Y240626D02*
Y240616D01*
X396131Y240023D02*
G03X404845Y240616I4337J602D01*
G01X396131Y240023D02*
G03X394961I-585J-82D01*
G01X386330Y239775D02*
G03X394961Y240023I4295J850D01*
G01X386330Y239775D02*
G03X385160Y239660I-579J-115D01*
G01Y237625*
X383782Y236247D02*
G03X385160Y237625I0J1378D01*
G01X383782Y236247D02*
X377782D01*
X376405Y237625D02*
G03X377782Y236247I1377J0D01*
G01X376405Y237625D02*
Y243066D01*
G03X375814Y243656I-591J-0*
G01X352295*
G03X351705Y243066I0J-590*
X351781Y242776I590J-0*
G01X352345Y240625D02*
G03X351781Y242776I-4377J0D01*
G01X346908Y236377D02*
G03X352345Y240625I1060J4248D01*
G01X346908Y236377D02*
G03X346348Y236222I-142J-573D01*
G01X341859Y231733*
X340468Y231156D02*
G03X341859Y231733I-0J1969D01*
G01X340468Y231156D02*
X286060D01*
G03X285642Y230984I0J-590*
G01X285045Y230386*
G03X284872Y229969I418J-417*
X285463Y229378I591J-0*
G01X288157*
X289535Y228000D02*
G03X288157Y229378I-1378J0D01*
G01X289535Y228000D02*
Y225965D01*
G03X290705Y225850I591J-0*
G01X299336Y225602D02*
G03X290705Y225850I-4336J-602D01*
G01X299336Y225602D02*
G03X300506I585J82D01*
G01X309220Y225001D02*
G03X300506Y225602I-4377J-1D01*
G01X309220Y225001D02*
Y224991D01*
X300506Y224398D02*
G03X309220Y224991I4337J602D01*
G01X300506Y224398D02*
G03X299336I-585J-82D01*
G01X298122Y221931D02*
G03X299336Y224398I-3122J3069D01*
G01X298122Y221931D02*
G03X297953Y221517I421J-414D01*
G01Y208483*
G03X298122Y208069I590J-0*
G01X299336Y205602D02*
G03X298122Y208069I-4336J-602D01*
G01X299336Y205602D02*
G03X300506I585J82D01*
G01X309220Y205001D02*
G03X300506Y205602I-4377J-1D01*
G01X309220Y205001D02*
Y204991D01*
X300506Y204398D02*
G03X309220Y204991I4337J602D01*
G01X300506Y204398D02*
G03X299336I-585J-82D01*
G01X298122Y201931D02*
G03X299336Y204398I-3122J3069D01*
G01X298122Y201931D02*
G03X297953Y201517I421J-414D01*
G01Y188483*
G03X298122Y188069I590J-0*
G01X299336Y185602D02*
G03X298122Y188069I-4336J-602D01*
G01X299336Y185602D02*
G03X300506I585J82D01*
G01X309220Y185000D02*
G03X300506Y185602I-4377J0D01*
G01X307764Y181739D02*
G03X309220Y185000I-2921J3261D01*
G01X307764Y181739D02*
G03X307567Y181299I394J-440D01*
X308158Y180709I591J0*
G01X323349*
G03X323767Y180882I0J590*
G01X328624Y185739*
G03X328797Y186156I-417J417*
X328207Y186747I-590J0*
G01X325125*
X323747Y188125D02*
G03X325125Y186747I1378J0D01*
G01X323747Y188125D02*
Y198125D01*
X325125Y199503D02*
G03X323747Y198125I0J-1378D01*
G01X325125Y199503D02*
X329325D01*
X330200Y199190D02*
G03X329325Y199503I-875J-1065D01*
G01X330200Y199190D02*
G03X330950I375J456D01*
G01X331825Y199503D02*
G03X330950Y199190I-0J-1378D01*
G01X331825Y199503D02*
X336025D01*
X336900Y199190D02*
G03X336025Y199503I-875J-1065D01*
G01X336900Y199190D02*
G03X337650I375J456D01*
G01X338525Y199503D02*
G03X337650Y199190I-0J-1378D01*
G01X338525Y199503D02*
X342725D01*
X343600Y199190D02*
G03X342725Y199503I-875J-1065D01*
G01X343600Y199190D02*
G03X344350I375J456D01*
G01X345225Y199503D02*
G03X344350Y199190I-0J-1378D01*
G01X345225Y199503D02*
X349425D01*
X350300Y199190D02*
G03X349425Y199503I-875J-1065D01*
G01X350300Y199190D02*
G03X351050I375J456D01*
G01X351065Y199202D02*
G03X351050Y199190I860J-1077D01*
G01X351065Y199202D02*
X351065D01*
X351087Y199219D02*
G03X351065Y199202I838J-1094D01*
G01X351087Y199219D02*
G03X351146Y199270I-359J469D01*
G01X357300Y205424*
X360362Y206693D02*
G03X357300Y205424I0J-4331D01*
G01X360362Y206693D02*
X370481D01*
G03X370899Y206866I0J590*
G01X372943Y208910*
G03X373116Y209328I-418J418*
X373096Y209480I-591J-0*
G01X372780Y211875D02*
G03X373096Y209480I9252J-0D01*
G01X372780Y211875D02*
X372780D01*
X373096Y214270D02*
G03X372780Y211875I8936J-2395D01*
G01X373096Y214270D02*
G03X373116Y214422I-571J152D01*
X372943Y214840I-591J0*
G01X367912Y219871*
G03X367494Y220044I-418J-417*
G01X355558*
G03X354968Y219454I0J-590*
X355140Y219036I590J-0*
G01X357845Y212500D02*
G03X355140Y219036I-9252J0D01*
G01X339341Y212481D02*
G03X357845Y212500I9252J19D01*
G01X339341Y212481D02*
G03X339340Y212500I-591J-1D01*
X339341Y212519I-590J20*
G01X339960Y215830D02*
G03X339341Y212519I8633J-3330D01*
G01X339960Y215830D02*
G03X340000Y216042I-551J212D01*
X338992Y216460I-591J0*
G01X337997Y215465*
G03X337824Y215047I418J-418*
X337844Y214895I591J0*
G01X338159Y212519D02*
G03X337844Y214895I-9252J-19D01*
G01X338159Y212519D02*
G03X338160Y212500I591J1D01*
X338159Y212481I590J-20*
G01X319655Y212500D02*
G03X338159Y212481I9252J0D01*
G01X331302Y221437D02*
G03X319655Y212500I-2395J-8937D01*
G01X331302Y221437D02*
G03X331872Y221590I153J570D01*
G01X337720Y227437*
X340782Y228706D02*
G03X337720Y227437I0J-4331D01*
G01X340782Y228706D02*
X369532D01*
X372595Y227437D02*
G03X369532Y228706I-3063J-3062D01*
G01X372595Y227437D02*
X379067Y220965D01*
G03X379638Y220812I418J417*
G01X391284Y211894D02*
G03X379638Y220812I-9252J-19D01*
G01X391284Y211894D02*
G03X391285Y211875I591J1D01*
X391284Y211856I590J-20*
G01X379638Y202938D02*
G03X391284Y211856I2394J8937D01*
G01X379638Y202938D02*
G03X379067Y202785I-153J-570D01*
G01X375582Y199300*
X372520Y198031D02*
G03X375582Y199300I-0J4331D01*
G01X372520Y198031D02*
X362401D01*
G03X361983Y197859I-0J-590*
G01X358529Y194404*
G03X358356Y193987I417J-417*
G01Y192263*
G03X358529Y191846I590J0*
G01X371655Y178720*
X372923Y175657D02*
G03X371655Y178720I-4330J0D01*
G01X372923Y175657D02*
Y134149D01*
G03X373219Y133637I591J-0*
G01X377845Y125625D02*
G03X373219Y133637I-9252J0D01*
G01X375994Y120074D02*
G03X377845Y125625I-7401J5551D01*
G01X375994Y120074D02*
G03X375876Y119719I473J-355D01*
G01Y107874*
X375415Y105325D02*
G03X375876Y107874I-6822J2549D01*
G01X375415Y105325D02*
G03X375378Y105118I554J-207D01*
X375969Y104528I591J0*
G01X391809*
G03X392399Y105118I-0J590*
X392295Y105454I-590J0*
G01X390685Y108731D02*
G03X392295Y105454I11815J3769D01*
G01X390098Y112500D02*
G03X390685Y108731I12402J0D01*
G01X409509Y122731D02*
G03X390098Y112500I-7009J-10231D01*
G01X409509Y122731D02*
G03X410433Y123218I334J487D01*
G01Y206320*
G03X409355Y206653I-590J-0*
G01X392466Y211856D02*
G03X409355Y206653I9252J19D01*
G01X392466Y211856D02*
G03X392465Y211875I-591J-1D01*
X392466Y211894I-590J20*
G01X409355Y217097D02*
G03X392466Y211894I-7637J-5222D01*
G01X409355Y217097D02*
G03X410433Y217430I488J333D01*
G01Y313274*
X170612Y223326D02*
G03X170393Y223786I-590J0D01*
G01X170342Y223828D02*
G03X170393Y223786I1533J1797D01*
G01X170342Y223828D02*
G03X169398Y223562I-383J-450D01*
G01X169344Y223406D02*
G03X169398Y223562I-4108J1515D01*
G01X169344Y223406D02*
G03X169307Y223202I554J-204D01*
X170315Y222784I591J-0*
G01X170440Y222908*
G03X170612Y223326I-418J418*
G01X172944Y229723D02*
G03X172758Y230153I-590J-0D01*
G01X172108Y231212D02*
G03X172758Y230153I2267J663D01*
G01X172108Y231212D02*
G03X171123Y231464I-567J-165D01*
G01X168420Y228761*
G03X168247Y228344I418J-417*
X168410Y227937I591J-0*
G01X169020Y227123D02*
G03X168410Y227937I-3784J-2202D01*
G01X169020Y227123D02*
G03X169999Y227061I511J297D01*
G01X171261Y227906D02*
G03X169999Y227061I614J-2281D01*
G01X171261Y227906D02*
G03X171525Y228059I-154J570D01*
G01X172771Y229305*
G03X172944Y229723I-417J418*
G01X300690Y143519D02*
G03X300663Y143695I-590J0D01*
G01X300506Y144398D02*
G03X300663Y143695I4337J602D01*
G01X300506Y144398D02*
G03X299336I-585J-82D01*
G01X299248Y143941D02*
G03X299336Y144398I-4248J1059D01*
G01X299248Y143941D02*
G03X299230Y143798I573J-143D01*
X299403Y143381I591J0*
G01X299682Y143102*
G03X300690Y143519I418J417*
G01X301105Y167441D02*
G03X300515Y168031I-590J-0D01*
G01X299328*
G03X298737Y167441I-0J-590*
X298813Y167151I591J-0*
G01X299336Y165602D02*
G03X298813Y167151I-4336J-602D01*
G01X299336Y165602D02*
G03X300506I585J82D01*
G01X301029Y167151D02*
G03X300506Y165602I3814J-2151D01*
G01X301029Y167151D02*
G03X301105Y167441I-514J290D01*
G01X291263D02*
G03X290672Y168031I-591J-0D01*
G01X290126*
G03X289535Y167441I0J-590*
G01Y165965*
G03X290705Y165850I591J-0*
G01X291187Y167151D02*
G03X290705Y165850I3813J-2151D01*
G01X291187Y167151D02*
G03X291263Y167441I-515J290D01*
G01X309412Y176181D02*
G03X308822Y176772I-590J0D01*
G01X282162*
G03X281745Y176599I0J-591*
G01X278123Y172977*
G03X277950Y172559I417J-418*
X278540Y171969I590J0*
G01X305200*
G03X305617Y172141I-0J590*
G01X309239Y175763*
Y175764D02*
G03X309412Y176181I-417J417D01*
G01X266775Y167441D02*
G03X266184Y168031I-591J-0D01*
G01X253737*
G03X253320Y167859I0J-590*
G01X243556Y158095*
G03X243383Y157677I417J-418*
X243973Y157087I590J0*
G01X256420*
G03X256838Y157260I0J590*
G01X266602Y167023*
G03X266775Y167441I-418J418*
G01X358160Y125625D02*
G03X358159Y125606I590J-20D01*
G01X339655Y125625D02*
G03X358159Y125606I9252J0D01*
G01Y125644D02*
G03X339655Y125625I-9252J-19D01*
G01X358159Y125644D02*
G03X358160Y125625I591J1D01*
G01X312564Y124596D02*
Y117904D01*
X311186Y116526D02*
G03X312564Y117904I0J1378D01*
G01X311186Y116526D02*
X303312D01*
X301934Y117904D02*
G03X303312Y116526I1378J-0D01*
G01X301934Y117904D02*
Y124596D01*
X303312Y125974D02*
G03X301934Y124596I0J-1378D01*
G01X303312Y125974D02*
X311186D01*
X312564Y124596D02*
G03X311186Y125974I-1378J0D01*
G01X296816Y124596D02*
Y117904D01*
X295438Y116526D02*
G03X296816Y117904I-0J1378D01*
G01X295438Y116526D02*
X287564D01*
X286186Y117904D02*
G03X287564Y116526I1378J-0D01*
G01X286186Y117904D02*
Y124596D01*
X287564Y125974D02*
G03X286186Y124596I-0J-1378D01*
G01X287564Y125974D02*
X291574D01*
G03X292165Y126565I0J591*
G01X292165*
G03X292134Y126752I-591J-0*
G01X292013Y127500D02*
G03X292134Y126752I2362J0D01*
G01X296737Y127500D02*
G03X292013I-2362J0D01*
G01X296422Y126322D02*
G03X296737Y127500I-2047J1178D01*
G01X296422Y126322D02*
G03X296344Y126028I512J-295D01*
G01X296340Y125916D02*
G03X296344Y126028I-1965J117D01*
G01X296340Y125916D02*
G03X296339Y125881I590J-35D01*
X296482Y125496I591J0*
G01X296816Y124596D02*
G03X296482Y125496I-1378J0D01*
G01X246425Y142370D02*
Y136370D01*
X245047Y134992D02*
G03X246425Y136370I0J1378D01*
G01X245047Y134992D02*
X239047D01*
X237669Y136370D02*
G03X239047Y134992I1378J0D01*
G01X237669Y136370D02*
Y142370D01*
X239047Y143748D02*
G03X237669Y142370I0J-1378D01*
G01X239047Y143748D02*
X245047D01*
X246425Y142370D02*
G03X245047Y143748I-1378J0D01*
G01X269614Y184921D02*
G03X269614I-4378J0D01*
G01X259614D02*
G03X259614I-4378J0D01*
G01X269614Y214921D02*
G03X269614I-4378J0D01*
G01X259614D02*
G03X259614I-4378J0D01*
G01X358404Y311801D02*
G03X358404I-4378J0D01*
G01Y321801D02*
G03X358404I-4378J0D01*
G01X348404D02*
G03X348404I-4378J0D01*
G01X338404D02*
G03X338404I-4378J0D01*
G01X300506Y316898D02*
G03X309220Y317500I4337J602D01*
G01X300506Y316898D02*
G03X299336I-585J-82D01*
G01X290705Y316650D02*
G03X299336Y316898I4295J850D01*
G01X290705Y316650D02*
G03X289535Y316535I-579J-115D01*
G01Y314500*
X288157Y313122D02*
G03X289535Y314500I0J1378D01*
G01X288157Y313122D02*
X282157D01*
X280780Y314500D02*
G03X282157Y313122I1377J0D01*
G01X280780Y314500D02*
Y320500D01*
X282157Y321878D02*
G03X280780Y320500I0J-1378D01*
G01X282157Y321878D02*
X288157D01*
X289535Y320500D02*
G03X288157Y321878I-1378J0D01*
G01X289535Y320500D02*
Y318465D01*
G03X290705Y318350I591J-0*
G01X299336Y318102D02*
G03X290705Y318350I-4336J-602D01*
G01X299336Y318102D02*
G03X300506I585J82D01*
G01X309220Y317500D02*
G03X300506Y318102I-4377J0D01*
G01X195244Y142370D02*
Y136370D01*
X193866Y134992D02*
G03X195244Y136370I0J1378D01*
G01X193866Y134992D02*
X187866D01*
X186488Y136370D02*
G03X187866Y134992I1378J0D01*
G01X186488Y136370D02*
Y142370D01*
X187866Y143748D02*
G03X186488Y142370I0J-1378D01*
G01X187866Y143748D02*
X193866D01*
X195244Y142370D02*
G03X193866Y143748I-1378J0D01*
G01X169614Y174921D02*
G03X169614I-4378J0D01*
G01X247997Y312594D02*
Y307475D01*
X246619Y306097D02*
G03X247997Y307475I0J1378D01*
G01X246619Y306097D02*
X244333D01*
G03X243915Y305924I-0J-590*
G01X192141Y254151*
G03X191969Y253733I418J-418*
G01Y233348*
G03X192047Y233053I590J0*
G01X192362Y231875D02*
G03X192047Y233053I-2362J0D01*
G01X187638Y231875D02*
G03X192362I2362J0D01*
G01X187953Y233053D02*
G03X187638Y231875I2047J-1178D01*
G01X187953Y233053D02*
G03X188031Y233348I-512J295D01*
G01Y254793*
X188608Y256185D02*
G03X188031Y254793I1392J-1392D01*
G01X188608Y256185D02*
X237512Y305089D01*
G03X237685Y305507I-418J418*
X237094Y306097I-591J-0*
G01X235595*
X234217Y307475D02*
G03X235595Y306097I1378J0D01*
G01X234217Y307475D02*
Y312594D01*
X234828Y313738D02*
G03X234217Y312594I767J-1144D01*
G01X234828Y313738D02*
G03X235090Y314228I-329J490D01*
G01X235090*
G03X235062Y314406I-591J0*
G01X234970Y315000D02*
G03X235062Y314406I1969J0D01*
G01X234970Y315000D02*
Y315037D01*
G03X234557Y315600I-590J-0*
G01X233593Y316914D02*
G03X234557Y315600I1377J0D01*
G01X233592Y316914D02*
Y322032D01*
X234970Y323410D02*
G03X233592Y322032I0J-1378D01*
G01X234970Y323410D02*
X238907D01*
X240010Y322859D02*
G03X238907Y323410I-1103J-827D01*
G01X240010Y322859D02*
G03X240955I472J355D01*
G01X242057Y323410D02*
G03X240955Y322859I0J-1378D01*
G01X242057Y323410D02*
X245994D01*
X247372Y322032D02*
G03X245994Y323410I-1378J0D01*
G01X247372Y322032D02*
Y316914D01*
X245994Y315536D02*
G03X247372Y316914I0J1378D01*
G01X245994Y315536D02*
X242057D01*
X240955Y316088D02*
G03X242057Y315536I1102J826D01*
G01X240955Y316088D02*
G03X240010I-473J-355D01*
G01X239649Y315753D02*
G03X240010Y316088I-742J1161D01*
G01X239649Y315753D02*
G03X239376Y315255I318J-498D01*
X239412Y315052I591J0*
G01X239531Y314450D02*
G03X239412Y315052I-1967J-75D01*
G01X239531Y314450D02*
G03X239945Y313908I590J22D01*
G01X240635Y313420D02*
G03X239945Y313908I-1103J-826D01*
G01X240635Y313420D02*
G03X241580I472J355D01*
G01X242682Y313971D02*
G03X241580Y313420I0J-1377D01*
G01X242682Y313971D02*
X246619D01*
X247997Y312594D02*
G03X246619Y313971I-1378J-0D01*
G01X159614Y174921D02*
G03X159614I-4378J0D01*
G01X407700Y312873D02*
X410433D01*
X358404Y311810D02*
X410433D01*
X358275Y310747D02*
X410433D01*
X357857Y309684D02*
X410433D01*
X357034Y308621D02*
X410433D01*
X355103Y307558D02*
X410433D01*
X344630Y306495D02*
X410433D01*
X350477Y305432D02*
X410433D01*
X351540Y304369D02*
X410433D01*
X352603Y303306D02*
X410433D01*
X353666Y302243D02*
X410433D01*
X354729Y301180D02*
X410433D01*
X355792Y300117D02*
X410433D01*
X356855Y299054D02*
X410433D01*
X357918Y297991D02*
X410433D01*
X358981Y296928D02*
X410433D01*
X360044Y295865D02*
X410433D01*
X361107Y294802D02*
X410433D01*
X362170Y293739D02*
X410433D01*
X363233Y292676D02*
X410433D01*
X364296Y291613D02*
X410433D01*
X365015Y290550D02*
X410433D01*
X365094Y289487D02*
X410433D01*
X365094Y288424D02*
X410433D01*
X365094Y287361D02*
X410433D01*
X365094Y286298D02*
X410433D01*
X365094Y285235D02*
X410433D01*
X365094Y284172D02*
X410433D01*
X365094Y283109D02*
X410433D01*
X365094Y282046D02*
X410433D01*
X365094Y280983D02*
X410433D01*
X364963Y279920D02*
X410433D01*
X364141Y278857D02*
X410433D01*
X363078Y277794D02*
X410433D01*
X362015Y276731D02*
X410433D01*
X360952Y275668D02*
X410433D01*
X360123Y274605D02*
X410433D01*
X360123Y273542D02*
X410433D01*
X360123Y272479D02*
X410433D01*
X360123Y271416D02*
X410433D01*
X360123Y270353D02*
X410433D01*
X360123Y269290D02*
X410433D01*
X360943Y268227D02*
X410433D01*
X361872Y267164D02*
X410433D01*
X362351Y266101D02*
X410433D01*
X362529Y265038D02*
X410433D01*
X362444Y263975D02*
X410433D01*
X362079Y262912D02*
X410433D01*
X361340Y261849D02*
X410433D01*
X359777Y260786D02*
X410433D01*
X318844Y259723D02*
X410433D01*
X318844Y258660D02*
X410433D01*
X318844Y257597D02*
X410433D01*
X318844Y256534D02*
X410433D01*
X318844Y255471D02*
X410433D01*
X318844Y254408D02*
X410433D01*
X318844Y253345D02*
X410433D01*
X318844Y252282D02*
X410433D01*
X318844Y251219D02*
X410433D01*
X318844Y250156D02*
X410433D01*
X318844Y249093D02*
X410433D01*
X318707Y248030D02*
X410433D01*
X396909Y246967D02*
X410433D01*
X397972Y245904D02*
X410433D01*
X401647Y244841D02*
X410433D01*
X403505Y243778D02*
X410433D01*
X404314Y242715D02*
X410433D01*
X404723Y241652D02*
X410433D01*
X404845Y240589D02*
X410433D01*
X404705Y239526D02*
X410433D01*
X404275Y238463D02*
X410433D01*
X403429Y237400D02*
X410433D01*
X401352Y236337D02*
X410433D01*
X345401Y235274D02*
X410433D01*
X344338Y234211D02*
X410433D01*
X343275Y233148D02*
X410433D01*
X342212Y232085D02*
X410433D01*
X285685Y231022D02*
X410433D01*
X284872Y229959D02*
X410433D01*
X306839Y228896D02*
X410433D01*
X372139Y227833D02*
X410433D01*
X373262Y226770D02*
X410433D01*
X374325Y225707D02*
X410433D01*
X375388Y224644D02*
X410433D01*
X376451Y223581D02*
X410433D01*
X377514Y222518D02*
X410433D01*
X378577Y221455D02*
X410433D01*
X405330Y220392D02*
X410433D01*
X407198Y219329D02*
X410433D01*
X408407Y218266D02*
X410433D01*
X408433Y205510D02*
X410433D01*
X407234Y204448D02*
X410433D01*
X405393Y203385D02*
X410433D01*
X378604Y202322D02*
X410433D01*
X377541Y201259D02*
X410433D01*
X376478Y200196D02*
X410433D01*
X375405Y199133D02*
X410433D01*
X373093Y198070D02*
X410433D01*
X361131Y197007D02*
X410433D01*
X360068Y195944D02*
X410433D01*
X359005Y194881D02*
X410433D01*
X358356Y193818D02*
X410433D01*
X358356Y192755D02*
X410433D01*
X358683Y191692D02*
X410433D01*
X359746Y190629D02*
X410433D01*
X360809Y189566D02*
X410433D01*
X361872Y188503D02*
X410433D01*
X362935Y187440D02*
X410433D01*
X363998Y186377D02*
X410433D01*
X365061Y185314D02*
X410433D01*
X366124Y184251D02*
X410433D01*
X367187Y183188D02*
X410433D01*
X368250Y182125D02*
X410433D01*
X369313Y181062D02*
X410433D01*
X370376Y179999D02*
X410433D01*
X371439Y178936D02*
X410433D01*
X372314Y177873D02*
X410433D01*
X372767Y176810D02*
X410433D01*
X372922Y175747D02*
X410433D01*
X372923Y174684D02*
X410433D01*
X372923Y173621D02*
X410433D01*
X372923Y172558D02*
X410433D01*
X372923Y171495D02*
X410433D01*
X372923Y170432D02*
X410433D01*
X372923Y169369D02*
X410433D01*
X372923Y168306D02*
X410433D01*
X372923Y167243D02*
X410433D01*
X372923Y166180D02*
X410433D01*
X372923Y165117D02*
X410433D01*
X372923Y164054D02*
X410433D01*
X372923Y162991D02*
X410433D01*
X372923Y161928D02*
X410433D01*
X372923Y160865D02*
X410433D01*
X372923Y159802D02*
X410433D01*
X372923Y158739D02*
X410433D01*
X372923Y157676D02*
X410433D01*
X372923Y156613D02*
X410433D01*
X372923Y155550D02*
X410433D01*
X372923Y154487D02*
X410433D01*
X372923Y153424D02*
X410433D01*
X372923Y152361D02*
X410433D01*
X372923Y151298D02*
X410433D01*
X372923Y150235D02*
X410433D01*
X372923Y149172D02*
X410433D01*
X372923Y148109D02*
X410433D01*
X372923Y147046D02*
X410433D01*
X372923Y145983D02*
X410433D01*
X372923Y144920D02*
X410433D01*
X372923Y143857D02*
X410433D01*
X372923Y142794D02*
X410433D01*
X372923Y141731D02*
X410433D01*
X372923Y140668D02*
X410433D01*
X372923Y139605D02*
X410433D01*
X372923Y138542D02*
X410433D01*
X372923Y137479D02*
X410433D01*
X372923Y136416D02*
X410433D01*
X372923Y135353D02*
X410433D01*
X372923Y134290D02*
X410433D01*
X373866Y133227D02*
X410433D01*
X375138Y132164D02*
X410433D01*
X376050Y131101D02*
X410433D01*
X376724Y130038D02*
X410433D01*
X377217Y128975D02*
X410433D01*
X377557Y127912D02*
X410433D01*
X377763Y126849D02*
X410433D01*
X377843Y125786D02*
X410433D01*
X404597Y124723D02*
X410433D01*
X407908Y123660D02*
X410433D01*
X409281Y217203D02*
X410388D01*
X409300Y206573D02*
X410376D01*
X377800Y124723D02*
X400403D01*
X391509Y236337D02*
X399583D01*
X358270Y312873D02*
X398600D01*
X385645Y220392D02*
X398105D01*
X385708Y203385D02*
X398042D01*
X393586Y237400D02*
X397506D01*
X377633Y123660D02*
X397092D01*
X394432Y238463D02*
X396660D01*
X357848Y313936D02*
X396509D01*
X387513Y219329D02*
X396237D01*
X394863Y239526D02*
X396230D01*
X387549Y204448D02*
X396201D01*
X377335Y122597D02*
X395299D01*
X357016Y314999D02*
X395073D01*
X388722Y218266D02*
X395028D01*
X388748Y205510D02*
X395002D01*
X389596Y217203D02*
X394154D01*
X389615Y206573D02*
X394135D01*
X376891Y121534D02*
X394004D01*
X355033Y316062D02*
X393978D01*
X390243Y216140D02*
X393507D01*
X390256Y207636D02*
X393494D01*
X309204Y317125D02*
X393113D01*
X390713Y215077D02*
X393037D01*
X390722Y208699D02*
X393028D01*
X376276Y120471D02*
X392999D01*
X391034Y214014D02*
X392716D01*
X391040Y209762D02*
X392710D01*
X122378Y330944D02*
X392583D01*
X391222Y212951D02*
X392528D01*
X391225Y210825D02*
X392525D01*
X391284Y211888D02*
X392466D01*
X356497Y318188D02*
X392422D01*
X375508Y105589D02*
X392202D01*
X375876Y119408D02*
X392201D01*
X122941Y329881D02*
X392020D01*
X357584Y319251D02*
X391872D01*
X375773Y106652D02*
X391564D01*
X375876Y118345D02*
X391562D01*
X123403Y328818D02*
X391558D01*
X358143Y320314D02*
X391444D01*
X123753Y327755D02*
X391208D01*
X358383Y321377D02*
X391125D01*
X375874Y107715D02*
X391059D01*
X375876Y117282D02*
X391058D01*
X124001Y326692D02*
X390960D01*
X358357Y322440D02*
X390905D01*
X356151Y325629D02*
X390808D01*
X358059Y323503D02*
X390781D01*
X357420Y324566D02*
X390749D01*
X375876Y108778D02*
X390670D01*
X375876Y116219D02*
X390669D01*
X375876Y109841D02*
X390387D01*
X375876Y115156D02*
X390386D01*
X375876Y110904D02*
X390202D01*
X375876Y114093D02*
X390201D01*
X375876Y111967D02*
X390110D01*
X375876Y113030D02*
X390110D01*
X384273Y236337D02*
X389741D01*
X385142Y237400D02*
X387664D01*
X385160Y238463D02*
X386818D01*
X385160Y239526D02*
X386387D01*
X348852Y236337D02*
X377292D01*
X350929Y237400D02*
X376423D01*
X351814Y242715D02*
X376405D01*
X352223Y241652D02*
X376405D01*
X352345Y240589D02*
X376405D01*
X352205Y239526D02*
X376405D01*
X351775Y238463D02*
X376405D01*
X357720Y214014D02*
X373031D01*
X357430Y209762D02*
X373025D01*
X357833Y212951D02*
X372843D01*
X357692Y210825D02*
X372840D01*
X357824Y211888D02*
X372781D01*
X357028Y208699D02*
X372732D01*
X357478Y215077D02*
X372705D01*
X356463Y207636D02*
X371669D01*
X357098Y216140D02*
X371642D01*
X356560Y217203D02*
X370579D01*
X355828Y218266D02*
X369516D01*
X354981Y219329D02*
X368454D01*
X362899Y138542D02*
X364262D01*
X313339Y137479D02*
X364262D01*
X314101Y136416D02*
X364262D01*
X314222Y135353D02*
X364262D01*
X352150Y134290D02*
X364262D01*
X354181Y133227D02*
X363319D01*
X355453Y132164D02*
X362047D01*
X355759Y119408D02*
X361309D01*
X354617Y118345D02*
X361309D01*
X352907Y117282D02*
X361309D01*
X204317Y116219D02*
X361309D01*
X356365Y131101D02*
X361135D01*
X356591Y120471D02*
X360909D01*
X357039Y130038D02*
X360461D01*
X357206Y121534D02*
X360294D01*
X357532Y128975D02*
X359968D01*
X357650Y122597D02*
X359850D01*
X357872Y127912D02*
X359628D01*
X357948Y123660D02*
X359552D01*
X358078Y126849D02*
X359422D01*
X358115Y124723D02*
X359385D01*
X355697Y206573D02*
X359352D01*
X358158Y125786D02*
X359342D01*
X354654Y205510D02*
X357388D01*
X349934Y260786D02*
X356532D01*
X353148Y204448D02*
X356323D01*
X350176Y203385D02*
X355260D01*
X351497Y261849D02*
X354969D01*
X233855Y295865D02*
X354399D01*
X352237Y262912D02*
X354230D01*
X308306Y202322D02*
X354197D01*
X352601Y263975D02*
X353865D01*
X234918Y296928D02*
X353413D01*
X307116Y201259D02*
X353134D01*
X345033Y316062D02*
X353018D01*
X345103Y307558D02*
X352949D01*
X235981Y297991D02*
X352350D01*
X297953Y200196D02*
X352071D01*
X346151Y325629D02*
X351900D01*
X346497Y318188D02*
X351554D01*
X237044Y299054D02*
X351287D01*
X347016Y314999D02*
X351035D01*
X347034Y308621D02*
X351017D01*
X350383Y199133D02*
X350967D01*
X347420Y324566D02*
X350631D01*
X347584Y319251D02*
X350467D01*
X238107Y300117D02*
X350224D01*
X347848Y313936D02*
X350203D01*
X347857Y309684D02*
X350194D01*
X348059Y323503D02*
X349992D01*
X348143Y320314D02*
X349908D01*
X348270Y312873D02*
X349781D01*
X348275Y310747D02*
X349777D01*
X348357Y322440D02*
X349694D01*
X348383Y321377D02*
X349668D01*
X348404Y311810D02*
X349648D01*
X239170Y301180D02*
X349161D01*
X259767Y302243D02*
X348098D01*
X346512Y236337D02*
X347083D01*
X330491Y203385D02*
X347009D01*
X340092Y260786D02*
X346690D01*
X313824Y134290D02*
X345665D01*
X341655Y261849D02*
X345127D01*
X312416Y117282D02*
X344908D01*
X317876Y246967D02*
X344808D01*
X342394Y262912D02*
X344387D01*
X343683Y199133D02*
X344267D01*
X333463Y204448D02*
X344037D01*
X342759Y263975D02*
X344023D01*
X316813Y245904D02*
X343745D01*
X187310Y133227D02*
X343634D01*
X334630Y306495D02*
X343421D01*
X312564Y118345D02*
X343198D01*
X335033Y316062D02*
X343018D01*
X335103Y307558D02*
X342949D01*
X339304Y244841D02*
X342682D01*
X334969Y205510D02*
X342531D01*
X188373Y132164D02*
X342362D01*
X312564Y119408D02*
X342055D01*
X336151Y325629D02*
X341900D01*
X336497Y318188D02*
X341554D01*
X336012Y206573D02*
X341488D01*
X189436Y131101D02*
X341450D01*
X312564Y120471D02*
X341224D01*
X337016Y314999D02*
X341035D01*
X337034Y308621D02*
X341017D01*
X190499Y130038D02*
X340776D01*
X336778Y207636D02*
X340722D01*
X337420Y324566D02*
X340631D01*
X312564Y121534D02*
X340609D01*
X337584Y319251D02*
X340467D01*
X296220Y128975D02*
X340283D01*
X337848Y313936D02*
X340203D01*
X337857Y309684D02*
X340194D01*
X312564Y122597D02*
X340165D01*
X337343Y208699D02*
X340157D01*
X338672Y216140D02*
X339992D01*
X338059Y323503D02*
X339992D01*
X296701Y127912D02*
X339943D01*
X338143Y320314D02*
X339908D01*
X312564Y123660D02*
X339867D01*
X338270Y312873D02*
X339781D01*
X338275Y310747D02*
X339777D01*
X337745Y209762D02*
X339755D01*
X296646Y126849D02*
X339737D01*
X337825Y215077D02*
X339707D01*
X312558Y124723D02*
X339700D01*
X338357Y322440D02*
X339694D01*
X338383Y321377D02*
X339668D01*
X311881Y125786D02*
X339657D01*
X338404Y311810D02*
X339648D01*
X338007Y210825D02*
X339493D01*
X338035Y214014D02*
X339465D01*
X338139Y211888D02*
X339361D01*
X338148Y212951D02*
X339352D01*
X308180Y227833D02*
X338176D01*
X336983Y199133D02*
X337567D01*
X308847Y226770D02*
X337053D01*
X331930Y244841D02*
X336946D01*
X332500Y260786D02*
X336847D01*
X309163Y225707D02*
X335990D01*
X232792Y294802D02*
X335844D01*
X333005Y261849D02*
X335284D01*
X332652Y243778D02*
X335088D01*
X309206Y224644D02*
X334927D01*
X231729Y293739D02*
X334705D01*
X333005Y262912D02*
X334545D01*
X332660Y242715D02*
X334278D01*
X333011Y263975D02*
X334180D01*
X332660Y241652D02*
X333869D01*
X308984Y223581D02*
X333864D01*
X332302Y292676D02*
X333642D01*
X259792Y306495D02*
X333421D01*
X308977Y316062D02*
X333018D01*
X247997Y307558D02*
X332949D01*
X308449Y222518D02*
X332801D01*
X156703Y325629D02*
X331900D01*
X331231Y221455D02*
X331665D01*
X309166Y318188D02*
X331554D01*
X308436Y314999D02*
X331035D01*
X247997Y308621D02*
X331017D01*
X330283Y199133D02*
X330867D01*
X157766Y324566D02*
X330631D01*
X308855Y319251D02*
X330467D01*
X307385Y313936D02*
X330203D01*
X247997Y309684D02*
X330194D01*
X169016Y323503D02*
X329992D01*
X308197Y320314D02*
X329908D01*
X247968Y312873D02*
X329781D01*
X247997Y310747D02*
X329777D01*
X308791Y283109D02*
X329699D01*
X247311Y322440D02*
X329694D01*
X306877Y321377D02*
X329668D01*
X247997Y311810D02*
X329648D01*
X308998Y186377D02*
X328755D01*
X324387Y282046D02*
X328637D01*
X309209Y185314D02*
X328199D01*
X324835Y280983D02*
X327574D01*
X308912Y203385D02*
X327324D01*
X309156Y184251D02*
X327136D01*
X307412Y221455D02*
X326584D01*
X324755Y279920D02*
X326511D01*
X308828Y183188D02*
X326073D01*
X309141Y284172D02*
X325177D01*
X308144Y182125D02*
X325010D01*
X230666Y292676D02*
X324952D01*
X318844Y260786D02*
X324754D01*
X315750Y244841D02*
X324635D01*
X309185Y204448D02*
X324352D01*
X309214Y285235D02*
X324270D01*
X229603Y291613D02*
X324256D01*
X319633Y261849D02*
X324249D01*
X228540Y290550D02*
X324249D01*
X227477Y289487D02*
X324249D01*
X307571Y288424D02*
X324249D01*
X308529Y287361D02*
X324249D01*
X309024Y286298D02*
X324249D01*
X322822Y265038D02*
X324249D01*
X321759Y263975D02*
X324249D01*
X320696Y262912D02*
X324249D01*
X297953Y199133D02*
X324185D01*
X297953Y220392D02*
X324079D01*
X307617Y181062D02*
X323947D01*
X308478Y187440D02*
X323930D01*
X314687Y243778D02*
X323913D01*
X313624Y242715D02*
X323905D01*
X312561Y241652D02*
X323905D01*
X311498Y240589D02*
X323905D01*
X310435Y239526D02*
X323905D01*
X309408Y238463D02*
X323905D01*
X297953Y198070D02*
X323747D01*
X297953Y197007D02*
X323747D01*
X297953Y195944D02*
X323747D01*
X297953Y194881D02*
X323747D01*
X297953Y193818D02*
X323747D01*
X297953Y192755D02*
X323747D01*
X297953Y191692D02*
X323747D01*
X297953Y190629D02*
X323747D01*
X297953Y189566D02*
X323747D01*
X307469Y188503D02*
X323747D01*
X309191Y205510D02*
X322846D01*
X297953Y219329D02*
X322666D01*
X308928Y206573D02*
X321803D01*
X297953Y218266D02*
X321672D01*
X308338Y207636D02*
X321037D01*
X297953Y217203D02*
X320940D01*
X308074Y282046D02*
X320613D01*
X307184Y208699D02*
X320472D01*
X297953Y216140D02*
X320402D01*
X306583Y280983D02*
X320074D01*
X297953Y209762D02*
X320070D01*
X297953Y215077D02*
X320022D01*
X297953Y210825D02*
X319808D01*
X297953Y214014D02*
X319780D01*
X297953Y211888D02*
X319676D01*
X297953Y212951D02*
X319667D01*
X297953Y279920D02*
X319011D01*
X304242Y138542D02*
X318351D01*
X297953Y159802D02*
X317997D01*
X297953Y158739D02*
X317997D01*
X297953Y157676D02*
X317997D01*
X297953Y156613D02*
X317997D01*
X297953Y155550D02*
X317997D01*
X297953Y154487D02*
X317997D01*
X297953Y153424D02*
X317997D01*
X297953Y152361D02*
X317997D01*
X297953Y151298D02*
X317997D01*
X297953Y150235D02*
X317997D01*
X306170Y149172D02*
X317997D01*
X307925Y148109D02*
X317997D01*
X308713Y147046D02*
X317997D01*
X309109Y145983D02*
X317997D01*
X309220Y144920D02*
X317997D01*
X309069Y143857D02*
X317997D01*
X308624Y142794D02*
X317997D01*
X307755Y141731D02*
X317997D01*
X305475Y140668D02*
X317997D01*
X303179Y139605D02*
X317997D01*
X316705Y160865D02*
X317992D01*
X297953Y278857D02*
X317948D01*
X297953Y277794D02*
X316885D01*
X297953Y276731D02*
X315822D01*
X312945Y260786D02*
X314906D01*
X311882Y259723D02*
X314906D01*
X310819Y258660D02*
X314906D01*
X309756Y257597D02*
X314906D01*
X308693Y256534D02*
X314906D01*
X307630Y255471D02*
X314906D01*
X306567Y254408D02*
X314906D01*
X305441Y253345D02*
X314906D01*
X277566Y252282D02*
X314906D01*
X276503Y251219D02*
X314906D01*
X275440Y250156D02*
X314906D01*
X297953Y275668D02*
X314759D01*
X314050Y261849D02*
X314582D01*
X306396Y249093D02*
X314434D01*
X297953Y274605D02*
X313696D01*
X308002Y248030D02*
X313371D01*
X306280Y160865D02*
X313295D01*
X297953Y273542D02*
X313076D01*
X297953Y272479D02*
X313031D01*
X297953Y271416D02*
X313031D01*
X297953Y270353D02*
X313031D01*
X311602Y172558D02*
X313031D01*
X310539Y171495D02*
X313031D01*
X309476Y170432D02*
X313031D01*
X308413Y169369D02*
X313031D01*
X307815Y168306D02*
X313031D01*
X308602Y167243D02*
X313031D01*
X309059Y166180D02*
X313031D01*
X309219Y165117D02*
X313031D01*
X309117Y164054D02*
X313031D01*
X305716Y269290D02*
X312756D01*
X307962Y161928D02*
X312708D01*
X308732Y162991D02*
X312689D01*
X308754Y246967D02*
X312308D01*
X307801Y268227D02*
X311693D01*
X309126Y245904D02*
X311245D01*
X308648Y267164D02*
X310630D01*
X309426Y244841D02*
X310179D01*
X302938Y140668D02*
X304210D01*
X297953Y269290D02*
X303969D01*
X297953Y149172D02*
X303515D01*
X297953Y160865D02*
X303405D01*
X296553Y249093D02*
X303289D01*
X297953Y280983D02*
X303102D01*
X186247Y134290D02*
X302926D01*
X296996Y228896D02*
X302846D01*
X297034Y321377D02*
X302808D01*
X296347Y125786D02*
X302617D01*
X297953Y201259D02*
X302569D01*
X297953Y208699D02*
X302501D01*
X297542Y313936D02*
X302300D01*
X297953Y221455D02*
X302273D01*
X297953Y188503D02*
X302216D01*
X297728Y288424D02*
X302114D01*
X296668Y117282D02*
X302082D01*
X296810Y124723D02*
X301940D01*
X296816Y123660D02*
X301934D01*
X296816Y122597D02*
X301934D01*
X296816Y121534D02*
X301934D01*
X296816Y120471D02*
X301934D01*
X296816Y119408D02*
X301934D01*
X296816Y118345D02*
X301934D01*
X298011Y268227D02*
X301884D01*
X245977Y135353D02*
X301863D01*
X298086Y148109D02*
X301760D01*
X298119Y161928D02*
X301723D01*
X298160Y248030D02*
X301683D01*
X298231Y282046D02*
X301611D01*
X298337Y227833D02*
X301505D01*
X298354Y320314D02*
X301488D01*
X298463Y202322D02*
X301380D01*
X298495Y207636D02*
X301347D01*
X298593Y314999D02*
X301249D01*
X298607Y222518D02*
X301236D01*
X298635Y187440D02*
X301207D01*
X298687Y287361D02*
X301156D01*
X298806Y267164D02*
X301037D01*
X298871Y147046D02*
X300972D01*
X298890Y162991D02*
X300953D01*
X298911Y246967D02*
X300931D01*
X298948Y283109D02*
X300894D01*
X299004Y226770D02*
X300838D01*
X299013Y319251D02*
X300830D01*
X246425Y136416D02*
X300800D01*
X299069Y203385D02*
X300774D01*
X299085Y206573D02*
X300757D01*
X299135Y316062D02*
X300708D01*
X299142Y223581D02*
X300701D01*
X299156Y186377D02*
X300687D01*
X299181Y286298D02*
X300661D01*
X299237Y266101D02*
X300605D01*
X299266Y145983D02*
X300576D01*
X299275Y164054D02*
X300568D01*
X299284Y245904D02*
X300559D01*
X299299Y284172D02*
X300544D01*
X299320Y225707D02*
X300522D01*
X299324Y318188D02*
X300519D01*
X299345Y204448D02*
X300497D01*
X299357Y205510D02*
X300486D01*
X299418Y317125D02*
X300425D01*
X299430Y224644D02*
X300412D01*
X299461Y185314D02*
X300381D01*
X299537Y285235D02*
X300305D01*
X246425Y137479D02*
X299737D01*
X246425Y138542D02*
X298674D01*
X246425Y139605D02*
X297611D01*
X295633Y140668D02*
X296533D01*
X288510D02*
X294367D01*
X288996Y249093D02*
X293447D01*
X289204Y228896D02*
X293004D01*
X289221Y321377D02*
X292966D01*
X191562Y128975D02*
X292530D01*
X289415Y313936D02*
X292458D01*
X289469Y288424D02*
X292272D01*
X193688Y126849D02*
X292104D01*
X289509Y141731D02*
X292088D01*
X192625Y127912D02*
X292049D01*
X289087Y280983D02*
X292047D01*
X275424Y279920D02*
X292047D01*
X275430Y278857D02*
X292047D01*
X274880Y277794D02*
X292047D01*
X269245Y276731D02*
X292047D01*
X269550Y275668D02*
X292047D01*
X269603Y274605D02*
X292047D01*
X269391Y273542D02*
X292047D01*
X268870Y272479D02*
X292047D01*
X267859Y271416D02*
X292047D01*
X240637Y270353D02*
X292047D01*
X288642Y269290D02*
X292047D01*
X289423Y221455D02*
X292047D01*
X277594Y220392D02*
X292047D01*
X277594Y219329D02*
X292047D01*
X277594Y218266D02*
X292047D01*
X277594Y217203D02*
X292047D01*
X277594Y216140D02*
X292047D01*
X277594Y215077D02*
X292047D01*
X277594Y214014D02*
X292047D01*
X277594Y212951D02*
X292047D01*
X277594Y211888D02*
X292047D01*
X277594Y210825D02*
X292047D01*
X277594Y209762D02*
X292047D01*
X289345Y208699D02*
X292047D01*
X289319Y201259D02*
X292047D01*
X273294Y200196D02*
X292047D01*
X272231Y199133D02*
X292047D01*
X271168Y198070D02*
X292047D01*
X270105Y197007D02*
X292047D01*
X269493Y195944D02*
X292047D01*
X269614Y194881D02*
X292047D01*
X269473Y193818D02*
X292047D01*
X269040Y192755D02*
X292047D01*
X268192Y191692D02*
X292047D01*
X266096Y190629D02*
X292047D01*
X172447Y189566D02*
X292047D01*
X289441Y188503D02*
X292047D01*
X288939Y160865D02*
X292047D01*
X264948Y159802D02*
X292047D01*
X263885Y158739D02*
X292047D01*
X262822Y157676D02*
X292047D01*
X261759Y156613D02*
X292047D01*
X260696Y155550D02*
X292047D01*
X259633Y154487D02*
X292047D01*
X258483Y153424D02*
X292047D01*
X237822Y152361D02*
X292047D01*
X236759Y151298D02*
X292047D01*
X235696Y150235D02*
X292047D01*
X288882Y149172D02*
X292047D01*
X289517Y268227D02*
X291989D01*
X289531Y148109D02*
X291914D01*
X289534Y161928D02*
X291881D01*
X289535Y248030D02*
X291840D01*
X289535Y282046D02*
X291769D01*
X289535Y227833D02*
X291663D01*
X289535Y320314D02*
X291646D01*
X289535Y202322D02*
X291537D01*
X289535Y207636D02*
X291505D01*
X289535Y314999D02*
X291407D01*
X289535Y222518D02*
X291393D01*
X289535Y187440D02*
X291365D01*
X289535Y287361D02*
X291313D01*
X289535Y142794D02*
X291218D01*
X289535Y267164D02*
X291194D01*
X289535Y147046D02*
X291129D01*
X289535Y162991D02*
X291110D01*
X289535Y246967D02*
X291089D01*
X289535Y283109D02*
X291052D01*
X289535Y226770D02*
X290996D01*
X289535Y319251D02*
X290987D01*
X289535Y203385D02*
X290931D01*
X289535Y206573D02*
X290915D01*
X289535Y316062D02*
X290865D01*
X289535Y223581D02*
X290858D01*
X289535Y186377D02*
X290844D01*
X289535Y286298D02*
X290819D01*
X289535Y143857D02*
X290774D01*
X289535Y266101D02*
X290763D01*
X289535Y145983D02*
X290734D01*
X289536Y164054D02*
X290725D01*
X289539Y245904D02*
X290716D01*
X289551Y284172D02*
X290701D01*
X289594Y225707D02*
X290658D01*
X289604Y318188D02*
X290648D01*
X289703Y204448D02*
X290549D01*
X289748Y205510D02*
X290504D01*
X290087Y317125D02*
X290165D01*
X194751Y125786D02*
X286869D01*
X203254Y117282D02*
X286334D01*
X195814Y124723D02*
X286192D01*
X196877Y123660D02*
X286186D01*
X197940Y122597D02*
X286186D01*
X199003Y121534D02*
X286186D01*
X200065Y120471D02*
X286186D01*
X201128Y119408D02*
X286186D01*
X202191Y118345D02*
X286186D01*
X220435Y239526D02*
X282367D01*
X265869Y240589D02*
X282249D01*
X246425Y140668D02*
X281805D01*
X265520Y269290D02*
X281673D01*
X234633Y149172D02*
X281433D01*
X266011Y160865D02*
X281376D01*
X274377Y249093D02*
X281319D01*
X267809Y238463D02*
X281304D01*
X274856Y280983D02*
X281228D01*
X247372Y321377D02*
X281094D01*
X274357Y201259D02*
X280996D01*
X277594Y208699D02*
X280970D01*
X267303Y181062D02*
X280940D01*
X246931Y313936D02*
X280900D01*
X277594Y221455D02*
X280892D01*
X267754Y188503D02*
X280874D01*
X267863Y288424D02*
X280846D01*
X268148Y241652D02*
X280824D01*
X246425Y141731D02*
X280806D01*
X268107Y268227D02*
X280798D01*
X233570Y148109D02*
X280784D01*
X267074Y161928D02*
X280781D01*
X273314Y248030D02*
X280780D01*
X247372Y320314D02*
X280780D01*
X247372Y319251D02*
X280780D01*
X247372Y318188D02*
X280780D01*
X247372Y317125D02*
X280780D01*
X247077Y316062D02*
X280780D01*
X239431Y314999D02*
X280780D01*
X268871Y287361D02*
X280780D01*
X269392Y286298D02*
X280780D01*
X269603Y285235D02*
X280780D01*
X269550Y284172D02*
X280780D01*
X269221Y283109D02*
X280780D01*
X268627Y282046D02*
X280780D01*
X268996Y267164D02*
X280780D01*
X269452Y266101D02*
X280780D01*
X269613Y265038D02*
X280780D01*
X269511Y263975D02*
X280780D01*
X269126Y262912D02*
X280780D01*
X272251Y246967D02*
X280780D01*
X271188Y245904D02*
X280780D01*
X270125Y244841D02*
X280780D01*
X269462Y243778D02*
X280780D01*
X269018Y242715D02*
X280780D01*
X279303Y224644D02*
X280780D01*
X278240Y223581D02*
X280780D01*
X277594Y222518D02*
X280780D01*
X277594Y207636D02*
X280780D01*
X277594Y206573D02*
X280780D01*
X277594Y205510D02*
X280780D01*
X277394Y204448D02*
X280780D01*
X276483Y203385D02*
X280780D01*
X275420Y202322D02*
X280780D01*
X268817Y187440D02*
X280780D01*
X269365Y186377D02*
X280780D01*
X269597Y185314D02*
X280780D01*
X269563Y184251D02*
X280780D01*
X269256Y183188D02*
X280780D01*
X268605Y182125D02*
X280780D01*
X272389Y167243D02*
X280780D01*
X271326Y166180D02*
X280780D01*
X270263Y165117D02*
X280780D01*
X269200Y164054D02*
X280780D01*
X268137Y162991D02*
X280780D01*
X232507Y147046D02*
X280780D01*
X231444Y145983D02*
X280780D01*
X230381Y144920D02*
X280780D01*
X229318Y143857D02*
X280780D01*
X246358Y142794D02*
X280780D01*
X268845Y237400D02*
X280241D01*
X149469Y179999D02*
X279577D01*
X269379Y236337D02*
X279178D01*
X266983Y178936D02*
X278514D01*
X269600Y235274D02*
X278115D01*
X268470Y177873D02*
X277451D01*
X269556Y234211D02*
X277052D01*
X269186Y176810D02*
X276388D01*
X269239Y233148D02*
X275989D01*
X269536Y175747D02*
X275325D01*
X269255Y232085D02*
X274918D01*
X269608Y174684D02*
X274262D01*
X269417Y173621D02*
X273199D01*
X269077Y227833D02*
X273013D01*
X269205Y226770D02*
X272736D01*
X269017Y172558D02*
X272136D01*
X269543Y225707D02*
X271676D01*
X269605Y224644D02*
X271175D01*
X269404Y223581D02*
X271156D01*
X268896Y222518D02*
X271156D01*
X267911Y221455D02*
X271156D01*
X201301Y220392D02*
X271156D01*
X200238Y219329D02*
X271156D01*
X268061Y218266D02*
X271156D01*
X268972Y217203D02*
X271156D01*
X269441Y216140D02*
X271156D01*
X269611Y215077D02*
X271156D01*
X269519Y214014D02*
X271156D01*
X269146Y212951D02*
X271156D01*
X268394Y211888D02*
X271156D01*
X266783Y210825D02*
X271156D01*
X190671Y209762D02*
X271156D01*
X267448Y208699D02*
X271156D01*
X268670Y207636D02*
X271156D01*
X269290Y206573D02*
X270665D01*
X255520Y269290D02*
X264952D01*
X255869Y240589D02*
X264604D01*
X256096Y190629D02*
X264376D01*
X256783Y210825D02*
X263690D01*
X256983Y178936D02*
X263490D01*
X257303Y181062D02*
X263170D01*
X257448Y208699D02*
X263024D01*
X257754Y188503D02*
X262718D01*
X257809Y238463D02*
X262663D01*
X257859Y271416D02*
X262613D01*
X257863Y288424D02*
X262610D01*
X257911Y221455D02*
X262561D01*
X258061Y218266D02*
X262412D01*
X258107Y268227D02*
X262366D01*
X258148Y241652D02*
X262324D01*
X258192Y191692D02*
X262281D01*
X258394Y211888D02*
X262079D01*
X258470Y177873D02*
X262003D01*
X258605Y182125D02*
X261868D01*
X258627Y282046D02*
X261846D01*
X258670Y207636D02*
X261802D01*
X258817Y187440D02*
X261655D01*
X258845Y237400D02*
X261628D01*
X258870Y272479D02*
X261603D01*
X258871Y287361D02*
X261601D01*
X258896Y222518D02*
X261577D01*
X258972Y217203D02*
X261500D01*
X258996Y267164D02*
X261476D01*
X259017Y172558D02*
X261456D01*
X259018Y242715D02*
X261455D01*
X259040Y192755D02*
X261432D01*
X258961Y202322D02*
X261406D01*
X258949Y227833D02*
X261395D01*
X259126Y262912D02*
X261347D01*
X259146Y212951D02*
X261326D01*
X259186Y176810D02*
X261286D01*
X259205Y226770D02*
X261268D01*
X259221Y283109D02*
X261251D01*
X259245Y276731D02*
X261228D01*
X259256Y183188D02*
X261216D01*
X259290Y206573D02*
X261182D01*
X259793Y233148D02*
X261163D01*
X259336Y203385D02*
X261137D01*
X259365Y186377D02*
X261107D01*
X259379Y236337D02*
X261094D01*
X259391Y273542D02*
X261081D01*
X259392Y286298D02*
X261080D01*
X259404Y223581D02*
X261068D01*
X260066Y246967D02*
X261067D01*
X259417Y173621D02*
X261056D01*
X260105Y197007D02*
X261038D01*
X259441Y216140D02*
X261031D01*
X259452Y266101D02*
X261020D01*
X259462Y243778D02*
X261010D01*
X259473Y193818D02*
X261000D01*
X259493Y195944D02*
X260979D01*
X259502Y245904D02*
X260970D01*
X259511Y263975D02*
X260962D01*
X259519Y214014D02*
X260953D01*
X259536Y175747D02*
X260937D01*
X259543Y225707D02*
X260929D01*
X259550Y284172D02*
X260923D01*
X259550Y275668D02*
X260922D01*
X259556Y234211D02*
X260916D01*
X259563Y184251D02*
X260910D01*
X259574Y205510D02*
X260898D01*
X259588Y204448D02*
X260884D01*
X259597Y185314D02*
X260876D01*
X259600Y235274D02*
X260873D01*
X259603Y274605D02*
X260870D01*
X259603Y285235D02*
X260869D01*
X259605Y224644D02*
X260867D01*
X259608Y174684D02*
X260865D01*
X259611Y215077D02*
X260861D01*
X259613Y265038D02*
X260860D01*
X259613Y244841D02*
X260859D01*
X259614Y194881D02*
X260858D01*
X240233Y302243D02*
X257733D01*
X247587Y306495D02*
X257708D01*
X179854Y200196D02*
X257543D01*
X210868Y229959D02*
X257411D01*
X241296Y303306D02*
X256644D01*
X243422Y305432D02*
X256637D01*
X242359Y304369D02*
X256388D01*
X239574Y269290D02*
X254952D01*
X221498Y240589D02*
X254604D01*
X173413Y190629D02*
X254376D01*
X178791Y199133D02*
X254040D01*
X191734Y210825D02*
X253690D01*
X166983Y178936D02*
X253490D01*
X209805Y228896D02*
X253402D01*
X211931Y231022D02*
X253245D01*
X167303Y181062D02*
X253170D01*
X189608Y208699D02*
X253024D01*
X181448Y201259D02*
X252838D01*
X171602Y188503D02*
X252718D01*
X219372Y238463D02*
X252663D01*
X241700Y271416D02*
X252613D01*
X226414Y288424D02*
X252610D01*
X202364Y221455D02*
X252561D01*
X199175Y218266D02*
X252412D01*
X238511Y268227D02*
X252366D01*
X222561Y241652D02*
X252324D01*
X174476Y191692D02*
X252281D01*
X177260Y198070D02*
X252194D01*
X192797Y211888D02*
X252079D01*
X168470Y177873D02*
X252003D01*
X208742Y227833D02*
X251967D01*
X212994Y232085D02*
X251901D01*
X168605Y182125D02*
X251868D01*
X220037Y282046D02*
X251846D01*
X168961Y207636D02*
X251802D01*
X182221Y202322D02*
X251714D01*
X170539Y187440D02*
X251655D01*
X218309Y237400D02*
X251628D01*
X242763Y272479D02*
X251603D01*
X225352Y287361D02*
X251601D01*
X203427Y222518D02*
X251577D01*
X168921Y172558D02*
X251551D01*
X198112Y217203D02*
X251500D01*
X237448Y267164D02*
X251476D01*
X223624Y242715D02*
X251455D01*
X176094Y192755D02*
X251432D01*
X167961Y171495D02*
X251396D01*
X170105Y197007D02*
X251387D01*
X227876Y246967D02*
X251366D01*
X233196Y262912D02*
X251347D01*
X193860Y212951D02*
X251326D01*
X169186Y176810D02*
X251286D01*
X207679Y226770D02*
X251268D01*
X221100Y283109D02*
X251251D01*
X214057Y233148D02*
X251233D01*
X247015Y276731D02*
X251228D01*
X169256Y183188D02*
X251216D01*
X169290Y206573D02*
X251182D01*
X182348Y203385D02*
X251137D01*
X169524Y186377D02*
X251107D01*
X217246Y236337D02*
X251094D01*
X243826Y273542D02*
X251081D01*
X224289Y286298D02*
X251080D01*
X204490Y223581D02*
X251068D01*
X169417Y173621D02*
X251056D01*
X197049Y216140D02*
X251031D01*
X236385Y266101D02*
X251020D01*
X224687Y243778D02*
X251010D01*
X176671Y193818D02*
X251000D01*
X228939Y248030D02*
X250993D01*
X176141Y195944D02*
X250979D01*
X226813Y245904D02*
X250970D01*
X234259Y263975D02*
X250962D01*
X194923Y214014D02*
X250953D01*
X169536Y175747D02*
X250937D01*
X206616Y225707D02*
X250929D01*
X222163Y284172D02*
X250923D01*
X245952Y275668D02*
X250922D01*
X215120Y234211D02*
X250916D01*
X169563Y184251D02*
X250910D01*
X169574Y205510D02*
X250898D01*
X181957Y204448D02*
X250884D01*
X169597Y185314D02*
X250876D01*
X216183Y235274D02*
X250873D01*
X244889Y274605D02*
X250870D01*
X223226Y285235D02*
X250869D01*
X205553Y224644D02*
X250867D01*
X169608Y174684D02*
X250865D01*
X195986Y215077D02*
X250861D01*
X235322Y265038D02*
X250860D01*
X225750Y244841D02*
X250859D01*
X176682Y194881D02*
X250858D01*
X149469Y170432D02*
X250325D01*
X149469Y169369D02*
X249262D01*
X149469Y168306D02*
X248199D01*
X149469Y167243D02*
X247136D01*
X149469Y166180D02*
X246073D01*
X218974Y280983D02*
X245739D01*
X149469Y165117D02*
X245010D01*
X217911Y279920D02*
X244636D01*
X149469Y164054D02*
X243947D01*
X216848Y278857D02*
X243573D01*
X149469Y162991D02*
X242884D01*
X215785Y277794D02*
X242510D01*
X239874Y313936D02*
X242370D01*
X149469Y161928D02*
X241821D01*
X214722Y276731D02*
X241447D01*
X239990Y316062D02*
X240975D01*
X149469Y160865D02*
X240758D01*
X213659Y275668D02*
X240384D01*
X230002Y249093D02*
X239998D01*
X149436Y159802D02*
X239695D01*
X212596Y274605D02*
X239321D01*
X231065Y250156D02*
X238935D01*
X148865Y158739D02*
X238632D01*
X211533Y273542D02*
X238258D01*
X223788Y135353D02*
X238118D01*
X232128Y251219D02*
X237872D01*
X228255Y142794D02*
X237736D01*
X223737Y305432D02*
X237680D01*
X227192Y141731D02*
X237669D01*
X226286Y140668D02*
X237669D01*
X226419Y139605D02*
X237669D01*
X226346Y138542D02*
X237669D01*
X225996Y137479D02*
X237669D01*
X225278Y136416D02*
X237669D01*
X147802Y157676D02*
X237569D01*
X232133Y261849D02*
X237450D01*
X210470Y272479D02*
X237195D01*
X233191Y252282D02*
X236809D01*
X222674Y304369D02*
X236792D01*
X146739Y156613D02*
X236506D01*
X209407Y271416D02*
X236132D01*
X231070Y260786D02*
X236127D01*
X221611Y303306D02*
X235729D01*
X145676Y155550D02*
X235443D01*
X234254Y253345D02*
X235189D01*
X208344Y270353D02*
X235069D01*
X230007Y259723D02*
X235064D01*
X227246Y313936D02*
X235012D01*
X219746Y314999D02*
X234970D01*
X220548Y302243D02*
X234666D01*
X227902Y306495D02*
X234627D01*
X144613Y154487D02*
X234380D01*
X228283Y312873D02*
X234246D01*
X228312Y311810D02*
X234217D01*
X228312Y310747D02*
X234217D01*
X228312Y309684D02*
X234217D01*
X228312Y308621D02*
X234217D01*
X228312Y307558D02*
X234217D01*
X207281Y269290D02*
X234006D01*
X228944Y258660D02*
X234001D01*
X227392Y316062D02*
X233888D01*
X227626Y322440D02*
X233654D01*
X219485Y301180D02*
X233603D01*
X227687Y321377D02*
X233592D01*
X227687Y320314D02*
X233592D01*
X227687Y319251D02*
X233592D01*
X227687Y318188D02*
X233592D01*
X227687Y317125D02*
X233592D01*
X143550Y153424D02*
X233317D01*
X206218Y268227D02*
X232943D01*
X227881Y257597D02*
X232938D01*
X218422Y300117D02*
X232540D01*
X142487Y152361D02*
X232254D01*
X205155Y267164D02*
X231880D01*
X226818Y256534D02*
X231875D01*
X217359Y299054D02*
X231477D01*
X141424Y151298D02*
X231191D01*
X204092Y266101D02*
X230817D01*
X225755Y255471D02*
X230812D01*
X216296Y297991D02*
X230414D01*
X140361Y150235D02*
X230128D01*
X203029Y265038D02*
X229754D01*
X224692Y254408D02*
X229749D01*
X215233Y296928D02*
X229351D01*
X139298Y149172D02*
X229065D01*
X201966Y263975D02*
X228691D01*
X223629Y253345D02*
X228686D01*
X214170Y295865D02*
X228288D01*
X139178Y148109D02*
X228002D01*
X200903Y262912D02*
X227628D01*
X222566Y252282D02*
X227623D01*
X213107Y294802D02*
X227225D01*
X139197Y147046D02*
X226939D01*
X199840Y261849D02*
X226565D01*
X221503Y251219D02*
X226560D01*
X212044Y293739D02*
X226162D01*
X173919Y145983D02*
X225876D01*
X198777Y260786D02*
X225502D01*
X220440Y250156D02*
X225497D01*
X210981Y292676D02*
X225099D01*
X175583Y144920D02*
X224813D01*
X197714Y259723D02*
X224439D01*
X219377Y249093D02*
X224434D01*
X209918Y291613D02*
X224036D01*
X176680Y143857D02*
X223750D01*
X196651Y258660D02*
X223376D01*
X218314Y248030D02*
X223371D01*
X208855Y290550D02*
X222973D01*
X220189Y313936D02*
X222685D01*
X195588Y257597D02*
X222313D01*
X217251Y246967D02*
X222308D01*
X207792Y289487D02*
X221910D01*
X220305Y316062D02*
X221290D01*
X194525Y256534D02*
X221250D01*
X216188Y245904D02*
X221245D01*
X206729Y288424D02*
X220847D01*
X194796Y135353D02*
X220307D01*
X193462Y255471D02*
X220187D01*
X215125Y244841D02*
X220182D01*
X205666Y287361D02*
X219784D01*
X195177Y142794D02*
X219319D01*
X192399Y254408D02*
X219124D01*
X214062Y243778D02*
X219119D01*
X195244Y136416D02*
X218816D01*
X204603Y286298D02*
X218721D01*
X195244Y141731D02*
X218360D01*
X195244Y137479D02*
X218099D01*
X191969Y253345D02*
X218061D01*
X212999Y242715D02*
X218056D01*
X204677Y305432D02*
X217995D01*
X195244Y140668D02*
X217866D01*
X195244Y138542D02*
X217748D01*
X195244Y139605D02*
X217676D01*
X203540Y285235D02*
X217658D01*
X203614Y304369D02*
X217107D01*
X191969Y252282D02*
X216998D01*
X211936Y241652D02*
X216993D01*
X202477Y284172D02*
X216595D01*
X202551Y303306D02*
X216044D01*
X191969Y251219D02*
X215935D01*
X210873Y240589D02*
X215930D01*
X201414Y283109D02*
X215532D01*
X207561Y313936D02*
X215327D01*
X200061Y314999D02*
X215285D01*
X201488Y302243D02*
X214981D01*
X208217Y306495D02*
X214942D01*
X191969Y250156D02*
X214872D01*
X209810Y239526D02*
X214867D01*
X208598Y312873D02*
X214561D01*
X208627Y311810D02*
X214532D01*
X208627Y310747D02*
X214532D01*
X208627Y309684D02*
X214532D01*
X208627Y308621D02*
X214532D01*
X208627Y307558D02*
X214532D01*
X200352Y282046D02*
X214469D01*
X207706Y316062D02*
X214203D01*
X207940Y322440D02*
X213969D01*
X200425Y301180D02*
X213918D01*
X208002Y321377D02*
X213907D01*
X208002Y320314D02*
X213907D01*
X208002Y319251D02*
X213907D01*
X208002Y318188D02*
X213907D01*
X208002Y317125D02*
X213907D01*
X191969Y249093D02*
X213809D01*
X208747Y238463D02*
X213804D01*
X199289Y280983D02*
X213406D01*
X199362Y300117D02*
X212855D01*
X191969Y248030D02*
X212746D01*
X207684Y237400D02*
X212741D01*
X198226Y279920D02*
X212343D01*
X198299Y299054D02*
X211792D01*
X191969Y246967D02*
X211683D01*
X206621Y236337D02*
X211678D01*
X197163Y278857D02*
X211280D01*
X197236Y297991D02*
X210729D01*
X191969Y245904D02*
X210620D01*
X205558Y235274D02*
X210615D01*
X196100Y277794D02*
X210217D01*
X196173Y296928D02*
X209666D01*
X191969Y244841D02*
X209557D01*
X204495Y234211D02*
X209552D01*
X195037Y276731D02*
X209154D01*
X195110Y295865D02*
X208603D01*
X191969Y243778D02*
X208494D01*
X203432Y233148D02*
X208489D01*
X193974Y275668D02*
X208091D01*
X194047Y294802D02*
X207540D01*
X191969Y242715D02*
X207431D01*
X202369Y232085D02*
X207426D01*
X192911Y274605D02*
X207028D01*
X192984Y293739D02*
X206477D01*
X191969Y241652D02*
X206368D01*
X201306Y231022D02*
X206363D01*
X191848Y273542D02*
X205965D01*
X191921Y292676D02*
X205414D01*
X191969Y240589D02*
X205305D01*
X200243Y229959D02*
X205300D01*
X190785Y272479D02*
X204902D01*
X190858Y291613D02*
X204351D01*
X191969Y239526D02*
X204242D01*
X199180Y228896D02*
X204237D01*
X189722Y271416D02*
X203839D01*
X189795Y290550D02*
X203288D01*
X191969Y238463D02*
X203179D01*
X198117Y227833D02*
X203174D01*
X200504Y313936D02*
X203000D01*
X188659Y270353D02*
X202776D01*
X188732Y289487D02*
X202225D01*
X191969Y237400D02*
X202116D01*
X197054Y226770D02*
X202111D01*
X187596Y269290D02*
X201713D01*
X200620Y316062D02*
X201605D01*
X187669Y288424D02*
X201162D01*
X191969Y236337D02*
X201053D01*
X195991Y225707D02*
X201048D01*
X186533Y268227D02*
X200650D01*
X186606Y287361D02*
X200099D01*
X191969Y235274D02*
X199990D01*
X194928Y224644D02*
X199985D01*
X185470Y267164D02*
X199587D01*
X185543Y286298D02*
X199036D01*
X184367Y305432D02*
X198935D01*
X191969Y234211D02*
X198927D01*
X193865Y223581D02*
X198922D01*
X184497Y266101D02*
X198524D01*
X183304Y304369D02*
X198046D01*
X184480Y285235D02*
X197973D01*
X192003Y233148D02*
X197864D01*
X192802Y222518D02*
X197859D01*
X184469Y265038D02*
X197461D01*
X182241Y303306D02*
X196983D01*
X183417Y284172D02*
X196910D01*
X192353Y232085D02*
X196801D01*
X191739Y221455D02*
X196796D01*
X184469Y263975D02*
X196398D01*
X181178Y302243D02*
X195920D01*
X182354Y283109D02*
X195847D01*
X192203Y231022D02*
X195738D01*
X173494Y220392D02*
X195733D01*
X187876Y313936D02*
X195642D01*
X180376Y314999D02*
X195600D01*
X184469Y262912D02*
X195335D01*
X188532Y306495D02*
X195257D01*
X188913Y312873D02*
X194876D01*
X180115Y301180D02*
X194857D01*
X188942Y311810D02*
X194847D01*
X188942Y310747D02*
X194847D01*
X188942Y309684D02*
X194847D01*
X188942Y308621D02*
X194847D01*
X188942Y307558D02*
X194847D01*
X181291Y282046D02*
X194784D01*
X191382Y229959D02*
X194675D01*
X172428Y219329D02*
X194670D01*
X188021Y316062D02*
X194518D01*
X122798Y105589D02*
X194347D01*
X188255Y322440D02*
X194284D01*
X184469Y261849D02*
X194272D01*
X188317Y321377D02*
X194222D01*
X188317Y320314D02*
X194222D01*
X188317Y319251D02*
X194222D01*
X188317Y318188D02*
X194222D01*
X188317Y317125D02*
X194222D01*
X179052Y300117D02*
X193794D01*
X180228Y280983D02*
X193721D01*
X177930Y228896D02*
X193612D01*
X171365Y218266D02*
X193607D01*
X123436Y106652D02*
X193284D01*
X184469Y260786D02*
X193209D01*
X177989Y299054D02*
X192732D01*
X179165Y279920D02*
X192658D01*
X176867Y227833D02*
X192549D01*
X170302Y217203D02*
X192544D01*
X123941Y107715D02*
X192221D01*
X184469Y259723D02*
X192146D01*
X176926Y297991D02*
X191669D01*
X178102Y278857D02*
X191595D01*
X175804Y226770D02*
X191486D01*
X169467Y216140D02*
X191482D01*
X124330Y108778D02*
X191158D01*
X184469Y258660D02*
X191083D01*
X175863Y296928D02*
X190606D01*
X177039Y277794D02*
X190532D01*
X174741Y225707D02*
X190423D01*
X169611Y215077D02*
X190419D01*
X124613Y109841D02*
X190095D01*
X184469Y257597D02*
X190020D01*
X174800Y295865D02*
X189543D01*
X176344Y276731D02*
X189469D01*
X174508Y224644D02*
X189360D01*
X169519Y214014D02*
X189356D01*
X124798Y110904D02*
X189032D01*
X184469Y256534D02*
X188957D01*
X178993Y229959D02*
X188618D01*
X173737Y294802D02*
X188480D01*
X176344Y275668D02*
X188406D01*
X169146Y212951D02*
X188293D01*
X184469Y255471D02*
X188152D01*
X184469Y254408D02*
X188031D01*
X184469Y253345D02*
X188031D01*
X184469Y252282D02*
X188031D01*
X184469Y251219D02*
X188031D01*
X184469Y250156D02*
X188031D01*
X184469Y249093D02*
X188031D01*
X184469Y248030D02*
X188031D01*
X184469Y246967D02*
X188031D01*
X184469Y245904D02*
X188031D01*
X184469Y244841D02*
X188031D01*
X184469Y243778D02*
X188031D01*
X184469Y242715D02*
X188031D01*
X184469Y241652D02*
X188031D01*
X184469Y240589D02*
X188031D01*
X184469Y239526D02*
X188031D01*
X184469Y238463D02*
X188031D01*
X184469Y237400D02*
X188031D01*
X184469Y236337D02*
X188031D01*
X184210Y235274D02*
X188031D01*
X183245Y234211D02*
X188031D01*
X182182Y233148D02*
X187997D01*
X124890Y111967D02*
X187969D01*
X180056Y231022D02*
X187797D01*
X181119Y232085D02*
X187647D01*
X172691Y293739D02*
X187417D01*
X176344Y274605D02*
X187343D01*
X185184Y135353D02*
X186936D01*
X124890Y113030D02*
X186906D01*
X177743Y142794D02*
X186555D01*
X178806Y141731D02*
X186488D01*
X179869Y140668D02*
X186488D01*
X180932Y139605D02*
X186488D01*
X181995Y138542D02*
X186488D01*
X183058Y137479D02*
X186488D01*
X184121Y136416D02*
X186488D01*
X172594Y292676D02*
X186354D01*
X176344Y273542D02*
X186280D01*
X124799Y114093D02*
X185843D01*
X172594Y291613D02*
X185291D01*
X176344Y272479D02*
X185217D01*
X124614Y115156D02*
X184780D01*
X172594Y290550D02*
X184228D01*
X176344Y271416D02*
X184154D01*
X124331Y116219D02*
X183717D01*
X180819Y313936D02*
X183315D01*
X172594Y289487D02*
X183165D01*
X176344Y270353D02*
X183091D01*
X123942Y117282D02*
X182654D01*
X172594Y288424D02*
X182102D01*
X176344Y269290D02*
X182028D01*
X180935Y316062D02*
X181920D01*
X123438Y118345D02*
X181591D01*
X172594Y287361D02*
X181039D01*
X176344Y268227D02*
X180978D01*
X176344Y267164D02*
X180540D01*
X176344Y266101D02*
X180531D01*
X176344Y265038D02*
X180531D01*
X176344Y263975D02*
X180531D01*
X176344Y262912D02*
X180531D01*
X176344Y261849D02*
X180531D01*
X176344Y260786D02*
X180531D01*
X176344Y259723D02*
X180531D01*
X176344Y258660D02*
X180531D01*
X176344Y257597D02*
X180531D01*
X176344Y256534D02*
X180531D01*
X176344Y255471D02*
X180531D01*
X176344Y254408D02*
X180531D01*
X176344Y253345D02*
X180531D01*
X176344Y252282D02*
X180531D01*
X176344Y251219D02*
X180531D01*
X176344Y250156D02*
X180531D01*
X176344Y249093D02*
X180531D01*
X176344Y248030D02*
X180531D01*
X176344Y246967D02*
X180531D01*
X176344Y245904D02*
X180531D01*
X176344Y244841D02*
X180531D01*
X176344Y243778D02*
X180531D01*
X176344Y242715D02*
X180531D01*
X176344Y241652D02*
X180531D01*
X176344Y240589D02*
X180531D01*
X176344Y239526D02*
X180531D01*
X176344Y238463D02*
X180531D01*
X176344Y237400D02*
X180531D01*
X122799Y119408D02*
X180528D01*
X172594Y286298D02*
X179976D01*
X176344Y236337D02*
X179803D01*
X122001Y120471D02*
X179465D01*
X172594Y285235D02*
X178913D01*
X176344Y235274D02*
X178740D01*
X171969Y305432D02*
X178625D01*
X120996Y121534D02*
X178402D01*
X169588Y204448D02*
X178043D01*
X172594Y284172D02*
X177850D01*
X171969Y304369D02*
X177736D01*
X176351Y234211D02*
X177677D01*
X169336Y203385D02*
X177476D01*
X119701Y122597D02*
X177339D01*
X172594Y283109D02*
X176787D01*
X171969Y303306D02*
X176673D01*
X168961Y202322D02*
X176413D01*
X117908Y123660D02*
X176276D01*
X155551Y313936D02*
X175957D01*
X154488Y314999D02*
X175915D01*
X172594Y282046D02*
X175724D01*
X171969Y302243D02*
X175610D01*
X172318Y306495D02*
X175572D01*
X114597Y124723D02*
X175213D01*
X156614Y312873D02*
X175191D01*
X157677Y311810D02*
X175162D01*
X158740Y310747D02*
X175162D01*
X159803Y309684D02*
X175162D01*
X172243Y308621D02*
X175162D01*
X172593Y307558D02*
X175162D01*
X153425Y316062D02*
X174833D01*
X172594Y280983D02*
X174661D01*
X169390Y322440D02*
X174599D01*
X171969Y301180D02*
X174547D01*
X169390Y321377D02*
X174537D01*
X169390Y320314D02*
X174537D01*
X169390Y319251D02*
X174537D01*
X169390Y318188D02*
X174537D01*
X169353Y317125D02*
X174537D01*
X104528Y125786D02*
X174150D01*
X172771Y279920D02*
X173598D01*
X171969Y300117D02*
X173484D01*
X104528Y126849D02*
X173087D01*
X169493Y195944D02*
X172609D01*
X169614Y194881D02*
X172053D01*
X104528Y127912D02*
X172024D01*
X169473Y193818D02*
X171034D01*
X104528Y128975D02*
X170961D01*
X104528Y130038D02*
X169898D01*
X104528Y131101D02*
X168835D01*
X104528Y304369D02*
X168031D01*
X104528Y303306D02*
X168031D01*
X104528Y302243D02*
X168031D01*
X104528Y301180D02*
X168031D01*
X104528Y300117D02*
X168031D01*
X138949Y145983D02*
X167813D01*
X104528Y132164D02*
X167772D01*
X104528Y305432D02*
X167769D01*
X152594Y200196D02*
X167543D01*
X166096Y190629D02*
X167417D01*
X153376Y189566D02*
X167097D01*
X104528Y133227D02*
X166709D01*
X138379Y144920D02*
X166149D01*
X104528Y134290D02*
X165647D01*
X137270Y143857D02*
X165129D01*
X104528Y135353D02*
X164791D01*
X104528Y142794D02*
X164438D01*
X156096Y190629D02*
X164376D01*
X104528Y136416D02*
X164209D01*
X156433Y199133D02*
X164040D01*
X104528Y141731D02*
X163976D01*
X104528Y137479D02*
X163832D01*
X104528Y140668D02*
X163699D01*
X104528Y138542D02*
X163630D01*
X104528Y139605D02*
X163586D01*
X156983Y178936D02*
X163490D01*
X157303Y181062D02*
X163170D01*
X161929Y323503D02*
X163071D01*
X157634Y201259D02*
X162838D01*
X157754Y188503D02*
X162718D01*
X157961Y171495D02*
X162511D01*
X158192Y191692D02*
X162281D01*
X158278Y198070D02*
X162194D01*
X158470Y177873D02*
X162003D01*
X158605Y182125D02*
X161868D01*
X158759Y202322D02*
X161714D01*
X158817Y187440D02*
X161655D01*
X158921Y172558D02*
X161551D01*
X158878Y207636D02*
X161511D01*
X159040Y192755D02*
X161432D01*
X159086Y197007D02*
X161387D01*
X159186Y176810D02*
X161286D01*
X159256Y183188D02*
X161216D01*
X159290Y206573D02*
X161182D01*
X159336Y203385D02*
X161137D01*
X159365Y186377D02*
X161107D01*
X159417Y173621D02*
X161056D01*
X159473Y193818D02*
X161000D01*
X159493Y195944D02*
X160979D01*
X159536Y175747D02*
X160937D01*
X159563Y184251D02*
X160910D01*
X159574Y205510D02*
X160898D01*
X159588Y204448D02*
X160884D01*
X159597Y185314D02*
X160876D01*
X159608Y174684D02*
X160865D01*
X159614Y194881D02*
X160858D01*
X104528Y306495D02*
X157424D01*
X104528Y307558D02*
X156361D01*
X152362Y317125D02*
X155647D01*
X150640Y320314D02*
X155610D01*
X150640Y319251D02*
X155610D01*
X151299Y318188D02*
X155610D01*
X150640Y321377D02*
X155387D01*
X104528Y308621D02*
X155298D01*
X153056Y190629D02*
X154376D01*
X104528Y309684D02*
X154235D01*
X152684Y199133D02*
X154040D01*
X149469Y178936D02*
X153490D01*
X104528Y310747D02*
X153172D01*
X149469Y181062D02*
X153170D01*
X149469Y171495D02*
X152511D01*
X104528Y311810D02*
X152109D01*
X149469Y177873D02*
X152003D01*
X149469Y182125D02*
X151868D01*
X149469Y172558D02*
X151551D01*
X149469Y176810D02*
X151286D01*
X149469Y183188D02*
X151216D01*
X149469Y173621D02*
X151056D01*
X116361Y312873D02*
X151046D01*
X149469Y186377D02*
X150949D01*
X149469Y175747D02*
X150937D01*
X149469Y184251D02*
X150910D01*
X149469Y185314D02*
X150876D01*
X149469Y174684D02*
X150865D01*
X118452Y313936D02*
X149983D01*
X119888Y314999D02*
X148920D01*
X120982Y316062D02*
X147650D01*
X124153Y325629D02*
X142461D01*
X124212Y324566D02*
X141398D01*
X124179Y323503D02*
X137234D01*
X121848Y317125D02*
X136897D01*
X124055Y322440D02*
X136860D01*
X123836Y321377D02*
X136860D01*
X123517Y320314D02*
X136860D01*
X123089Y319251D02*
X136860D01*
X122539Y318188D02*
X136860D01*
X104528Y299054D02*
X133791D01*
X104528Y297991D02*
X132707D01*
X127428Y143857D02*
X132415D01*
X104528Y296928D02*
X131644D01*
X128537Y144920D02*
X131306D01*
X129107Y145983D02*
X130736D01*
X104528Y295865D02*
X130581D01*
X129377Y147046D02*
X130465D01*
X104528Y294802D02*
X129518D01*
X104528Y293739D02*
X128455D01*
X104528Y292676D02*
X127392D01*
X118970Y291613D02*
X123500D01*
X119376Y143857D02*
X122572D01*
X104528Y283109D02*
X122047D01*
X104528Y282046D02*
X122047D01*
X104528Y280983D02*
X122047D01*
X104528Y279920D02*
X122047D01*
X104528Y278857D02*
X122047D01*
X104528Y277794D02*
X122047D01*
X104528Y276731D02*
X122047D01*
X104528Y275668D02*
X122047D01*
X104528Y274605D02*
X122047D01*
X104528Y273542D02*
X122047D01*
X104528Y272479D02*
X122047D01*
X119187Y271416D02*
X122047D01*
X119432Y263975D02*
X122047D01*
X104528Y262912D02*
X122047D01*
X104528Y261849D02*
X122047D01*
X104528Y260786D02*
X122047D01*
X104528Y259723D02*
X122047D01*
X104528Y258660D02*
X122047D01*
X104528Y257597D02*
X122047D01*
X104528Y256534D02*
X122047D01*
X104528Y255471D02*
X122047D01*
X104528Y254408D02*
X122047D01*
X104528Y253345D02*
X122047D01*
X104528Y252282D02*
X122047D01*
X119333Y251219D02*
X122047D01*
X119331Y243778D02*
X122047D01*
X104528Y242715D02*
X122047D01*
X104528Y241652D02*
X122047D01*
X104528Y240589D02*
X122047D01*
X104528Y239526D02*
X122047D01*
X104528Y238463D02*
X122047D01*
X104528Y237400D02*
X122047D01*
X104528Y236337D02*
X122047D01*
X104528Y235274D02*
X122047D01*
X104528Y234211D02*
X122047D01*
X104528Y233148D02*
X122047D01*
X104528Y232085D02*
X122047D01*
X119433Y231022D02*
X122047D01*
X119185Y223581D02*
X122047D01*
X104528Y222518D02*
X122047D01*
X104528Y221455D02*
X122047D01*
X104528Y220392D02*
X122047D01*
X104528Y219329D02*
X122047D01*
X104528Y218266D02*
X122047D01*
X104528Y217203D02*
X122047D01*
X104528Y216140D02*
X122047D01*
X104528Y215077D02*
X122047D01*
X104528Y214014D02*
X122047D01*
X104528Y212951D02*
X122047D01*
X104528Y211888D02*
X122047D01*
X118966Y203385D02*
X122047D01*
X104528Y202322D02*
X122047D01*
X104528Y201259D02*
X122047D01*
X104528Y200196D02*
X122047D01*
X104528Y199133D02*
X122047D01*
X104528Y198070D02*
X122047D01*
X104528Y197007D02*
X122047D01*
X104528Y195944D02*
X122047D01*
X104528Y194881D02*
X122047D01*
X104528Y193818D02*
X122047D01*
X104528Y192755D02*
X122047D01*
X118850Y191692D02*
X122047D01*
X118578Y183188D02*
X122047D01*
X104528Y182125D02*
X122047D01*
X104528Y181062D02*
X122047D01*
X104528Y179999D02*
X122047D01*
X104528Y178936D02*
X122047D01*
X104528Y177873D02*
X122047D01*
X104528Y176810D02*
X122047D01*
X104528Y175747D02*
X122047D01*
X104528Y174684D02*
X122047D01*
X104528Y173621D02*
X122047D01*
X104528Y172558D02*
X122047D01*
X119111Y171495D02*
X122047D01*
X104528Y162991D02*
X122047D01*
X104528Y161928D02*
X122047D01*
X104528Y160865D02*
X122047D01*
X104528Y159802D02*
X122047D01*
X104528Y158739D02*
X122047D01*
X104528Y157676D02*
X122047D01*
X104528Y156613D02*
X122047D01*
X104528Y155550D02*
X122047D01*
X104528Y154487D02*
X122047D01*
X104528Y153424D02*
X122047D01*
X104528Y152361D02*
X122047D01*
X119281Y151298D02*
X122047D01*
X119461Y164054D02*
X122046D01*
X119496Y284172D02*
X122027D01*
X119496Y210825D02*
X122026D01*
X119513Y184251D02*
X121999D01*
X119529Y190629D02*
X121929D01*
X119534Y204448D02*
X121862D01*
X119535Y290550D02*
X121859D01*
X119535Y170432D02*
X121749D01*
X119535Y224644D02*
X121682D01*
X119535Y270353D02*
X121679D01*
X119535Y150235D02*
X121581D01*
X119535Y244841D02*
X121522D01*
X119535Y250156D02*
X121520D01*
X119535Y144920D02*
X121463D01*
X119535Y265038D02*
X121380D01*
X119535Y229959D02*
X121378D01*
X119535Y165117D02*
X121328D01*
X119535Y285235D02*
X121254D01*
X119535Y209762D02*
X121252D01*
X119535Y185314D02*
X121207D01*
X119535Y189566D02*
X121140D01*
X119535Y205510D02*
X121100D01*
X119535Y289487D02*
X121099D01*
X119535Y169369D02*
X121041D01*
X119535Y225707D02*
X121006D01*
X119535Y269290D02*
X121005D01*
X119535Y149172D02*
X120954D01*
X119535Y245904D02*
X120923D01*
X119535Y249093D02*
X120922D01*
X119535Y145983D02*
X120893D01*
X119535Y266101D02*
X120852D01*
X119535Y228896D02*
X120851D01*
X119535Y166180D02*
X120826D01*
X119535Y286298D02*
X120790D01*
X119535Y208699D02*
X120790D01*
X119535Y186377D02*
X120769D01*
X119535Y188503D02*
X120738D01*
X119537Y206573D02*
X120721D01*
X119537Y288424D02*
X120721D01*
X119557Y168306D02*
X120695D01*
X119584Y226770D02*
X120668D01*
X119585Y268227D02*
X120667D01*
X119655Y148109D02*
X120597D01*
X119723Y246967D02*
X120529D01*
X119726Y248030D02*
X120526D01*
X119829Y147046D02*
X120423D01*
X104528Y183188D02*
X111737D01*
X104528Y191692D02*
X111465D01*
X104528Y203385D02*
X111348D01*
X104528Y291613D02*
X111345D01*
X104528Y171495D02*
X111204D01*
X104528Y223581D02*
X111130D01*
X104528Y271416D02*
X111128D01*
X104528Y151298D02*
X111034D01*
X104528Y243778D02*
X110984D01*
X104528Y251219D02*
X110982D01*
X104528Y143857D02*
X110939D01*
X104528Y263975D02*
X110883D01*
X104528Y231022D02*
X110882D01*
X104528Y164054D02*
X110854D01*
X104528Y284172D02*
X110819D01*
X104528Y210825D02*
X110818D01*
X104528Y184251D02*
X110802D01*
X104528Y190629D02*
X110786D01*
X104528Y204448D02*
X110781D01*
X104528Y290550D02*
X110780D01*
X104528Y289487D02*
X110780D01*
X104528Y288424D02*
X110780D01*
X104528Y287361D02*
X110780D01*
X104528Y286298D02*
X110780D01*
X104528Y285235D02*
X110780D01*
X104528Y270353D02*
X110780D01*
X104528Y269290D02*
X110780D01*
X104528Y268227D02*
X110780D01*
X104528Y267164D02*
X110780D01*
X104528Y266101D02*
X110780D01*
X104528Y265038D02*
X110780D01*
X104528Y250156D02*
X110780D01*
X104528Y249093D02*
X110780D01*
X104528Y248030D02*
X110780D01*
X104528Y246967D02*
X110780D01*
X104528Y245904D02*
X110780D01*
X104528Y244841D02*
X110780D01*
X104528Y229959D02*
X110780D01*
X104528Y228896D02*
X110780D01*
X104528Y227833D02*
X110780D01*
X104528Y226770D02*
X110780D01*
X104528Y225707D02*
X110780D01*
X104528Y224644D02*
X110780D01*
X104528Y209762D02*
X110780D01*
X104528Y208699D02*
X110780D01*
X104528Y207636D02*
X110780D01*
X104528Y206573D02*
X110780D01*
X104528Y205510D02*
X110780D01*
X104528Y189566D02*
X110780D01*
X104528Y188503D02*
X110780D01*
X104528Y187440D02*
X110780D01*
X104528Y186377D02*
X110780D01*
X104528Y185314D02*
X110780D01*
X104528Y170432D02*
X110780D01*
X104528Y169369D02*
X110780D01*
X104528Y168306D02*
X110780D01*
X104528Y167243D02*
X110780D01*
X104528Y166180D02*
X110780D01*
X104528Y165117D02*
X110780D01*
X104528Y150235D02*
X110780D01*
X104528Y149172D02*
X110780D01*
X104528Y148109D02*
X110780D01*
X104528Y147046D02*
X110780D01*
X104528Y145983D02*
X110780D01*
X104528Y144920D02*
X110780D01*
X104528Y124723D02*
X110403D01*
X104528Y312873D02*
X107261D01*
X104528Y123660D02*
X107092D01*
X169405Y223581D02*
X170554D01*
X169618Y229959D02*
X172895D01*
X168555Y228896D02*
X172362D01*
X170681Y231022D02*
X172172D01*
X168505Y227833D02*
X171036D01*
X299233Y143857D02*
X300616D01*
X298771Y167243D02*
X301071D01*
X299216Y166180D02*
X300627D01*
X299756Y165117D02*
X300087D01*
X289535Y167243D02*
X291229D01*
X289535Y166180D02*
X290784D01*
X280893Y175747D02*
X309223D01*
X279830Y174684D02*
X308160D01*
X278767Y173621D02*
X307097D01*
X277950Y172558D02*
X306034D01*
X252704Y167243D02*
X266740D01*
X251641Y166180D02*
X265758D01*
X250578Y165117D02*
X264695D01*
X249515Y164054D02*
X263632D01*
X248452Y162991D02*
X262569D01*
X247389Y161928D02*
X261506D01*
X246326Y160865D02*
X260443D01*
X245263Y159802D02*
X259380D01*
X244200Y158739D02*
X258317D01*
X243383Y157676D02*
X257254D01*
G54D20*
X307249Y121250D02*
X324375D01*
X328750Y125625*
X348907*
X190866Y139370D02*
X205005D01*
X211250Y133125*
X227500*
X233745Y139370*
X242047*
X261245*
X266875Y145000*
X285157*
G54D21*
X295000D02*
Y165000D01*
X125000Y187500D02*
Y167500D01*
Y147500*
X295000Y185000D02*
Y205000D01*
X125000Y207500D02*
Y187500D01*
X295000Y205000D02*
Y225000D01*
X125000Y207500D02*
Y227500D01*
Y247500*
Y267500D02*
Y247500D01*
X295000Y265000D02*
Y285000D01*
X125000Y287500D02*
Y267500D01*
G54D22*
X354025Y193125D02*
Y190225D01*
X368593Y175657*
Y125625*
X354025Y193125D02*
Y196025D01*
X360362Y202362*
X372520*
X382032Y211875*
X328907Y212500D02*
X340782Y224375D01*
X369532*
X382032Y211875*
G54D23*
X294375Y127500D03*
X311875Y135625D03*
X315000Y162500D03*
X336875Y178125D03*
X347500Y181250D03*
X174375Y194375D03*
X180000Y203125D03*
X171875Y225625D03*
X174375Y231875D03*
X190000D03*
X236875Y255000D03*
X273125Y279375D03*
X322500Y280625D03*
X258750Y304375D03*
G54D24*
X100000Y100000D02*
Y336220D01*
X414961*
Y100000*
X100000*
G74*
X0Y0D02*
M02*
