*
*
G04 PADS VX.2 Build Number: 5060570 generated Gerber (RS-274-X) file*
G04 PC Version=2.1*
*
%IN "20220803_3_copper_2.pcb"*%
*
%MOIN*%
*
%FSLAX35Y35*%
*
*
*
*
G04 PC Standard Apertures*
*
*
G04 Thermal Relief Aperture macro.*
%AMTER*
1,1,$1,0,0*
1,0,$1-$2,0,0*
21,0,$3,$4,0,0,45*
21,0,$3,$4,0,0,135*
%
*
*
G04 Annular Aperture macro.*
%AMANN*
1,1,$1,0,0*
1,0,$2,0,0*
%
*
*
G04 Odd Aperture macro.*
%AMODD*
1,1,$1,0,0*
1,0,$1-0.005,0,0*
%
*
*
G04 PC Custom Aperture Macros*
*
*
*
*
*
*
G04 PC Aperture Table*
*
%ADD010C,0.001*%
%ADD024C,0.01*%
*
*
*
*
G04 PC Circuitry*
G04 Layer Name 20220803_3_copper_2.pcb - circuitry*
%LPD*%
*
*
G04 PC Custom Flashes*
G04 Layer Name 20220803_3_copper_2.pcb - flashes*
%LPD*%
*
*
G04 PC Circuitry*
G04 Layer Name 20220803_3_copper_2.pcb - circuitry*
%LPD*%
*
G54D10*
G01X100000Y100000D02*
X100003D01*
X100000Y336220D02*
X100003D01*
X100000D02*
X100003D01*
X414961D02*
X414963D01*
G54D24*
X170866Y135370D02*
X174866Y139370D01*
X170866Y143370*
X166866Y139370*
X170866Y135370*
Y139370D02*
Y143370D01*
X190866Y135370D02*
X194866Y139370D01*
X190866Y143370*
X186866Y139370*
X190866Y135370*
Y139370D02*
Y143370D01*
X222047Y135370D02*
X226047Y139370D01*
X222047Y143370*
X218047Y139370*
X222047Y135370*
Y139370D02*
Y143370D01*
X242047Y135370D02*
X246047Y139370D01*
X242047Y143370*
X238047Y139370*
X242047Y135370*
Y139370D02*
Y143370D01*
X344907Y121625D02*
X352907D01*
Y129625*
X344907*
Y121625*
X348907Y125625D02*
Y129625D01*
X364593Y121625D02*
X372593D01*
Y129625*
X364593*
Y121625*
X368593Y125625D02*
Y129625D01*
X344593Y208500D02*
X352593D01*
Y216500*
X344593*
Y208500*
X348593Y212500D02*
Y216500D01*
X324907Y208500D02*
X332907D01*
Y216500*
X324907*
Y208500*
X328907Y212500D02*
Y216500D01*
X397718Y207875D02*
X405718D01*
Y215875*
X397718*
Y207875*
X401718Y211875D02*
Y215875D01*
X378032Y207875D02*
X386032D01*
Y215875*
X378032*
Y207875*
X382032Y211875D02*
Y215875D01*
X115157Y263500D02*
X119157Y267500D01*
X115157Y271500*
X111157Y267500*
X115157Y263500*
Y267500D02*
Y271500D01*
X125000Y263500D02*
X129000Y267500D01*
X125000Y271500*
X121000Y267500*
X125000Y263500*
Y267500D02*
Y271500D01*
X134843Y263500D02*
X138843Y267500D01*
X134843Y271500*
X130843Y267500*
X134843Y263500*
Y267500D02*
Y271500D01*
X115157Y243500D02*
X119157Y247500D01*
X115157Y251500*
X111157Y247500*
X115157Y243500*
Y247500D02*
Y251500D01*
X125000Y243500D02*
X129000Y247500D01*
X125000Y251500*
X121000Y247500*
X125000Y243500*
Y247500D02*
Y251500D01*
X134843Y243500D02*
X138843Y247500D01*
X134843Y251500*
X130843Y247500*
X134843Y243500*
Y247500D02*
Y251500D01*
X115157Y223500D02*
X119157Y227500D01*
X115157Y231500*
X111157Y227500*
X115157Y223500*
Y227500D02*
Y231500D01*
X125000Y223500D02*
X129000Y227500D01*
X125000Y231500*
X121000Y227500*
X125000Y223500*
Y227500D02*
Y231500D01*
X134843Y223500D02*
X138843Y227500D01*
X134843Y231500*
X130843Y227500*
X134843Y223500*
Y227500D02*
Y231500D01*
X115157Y203500D02*
X119157Y207500D01*
X115157Y211500*
X111157Y207500*
X115157Y203500*
Y207500D02*
Y211500D01*
X125000Y203500D02*
X129000Y207500D01*
X125000Y211500*
X121000Y207500*
X125000Y203500*
Y207500D02*
Y211500D01*
X134843Y203500D02*
X138843Y207500D01*
X134843Y211500*
X130843Y207500*
X134843Y203500*
Y207500D02*
Y211500D01*
X115157Y183500D02*
X119157Y187500D01*
X115157Y191500*
X111157Y187500*
X115157Y183500*
Y187500D02*
Y191500D01*
X125000Y183500D02*
X129000Y187500D01*
X125000Y191500*
X121000Y187500*
X125000Y183500*
Y187500D02*
Y191500D01*
X134843Y183500D02*
X138843Y187500D01*
X134843Y191500*
X130843Y187500*
X134843Y183500*
Y187500D02*
Y191500D01*
X115157Y163500D02*
X119157Y167500D01*
X115157Y171500*
X111157Y167500*
X115157Y163500*
Y167500D02*
Y171500D01*
X125000Y163500D02*
X129000Y167500D01*
X125000Y171500*
X121000Y167500*
X125000Y163500*
Y167500D02*
Y171500D01*
X134843Y163500D02*
X138843Y167500D01*
X134843Y171500*
X130843Y167500*
X134843Y163500*
Y167500D02*
Y171500D01*
X115157Y143500D02*
X119157Y147500D01*
X115157Y151500*
X111157Y147500*
X115157Y143500*
Y147500D02*
Y151500D01*
X125000Y143500D02*
X129000Y147500D01*
X125000Y151500*
X121000Y147500*
X125000Y143500*
Y147500D02*
Y151500D01*
X134843Y143500D02*
X138843Y147500D01*
X134843Y151500*
X130843Y147500*
X134843Y143500*
Y147500D02*
Y151500D01*
X285157Y281000D02*
X289157Y285000D01*
X285157Y289000*
X281157Y285000*
X285157Y281000*
Y285000D02*
Y289000D01*
X295000Y281000D02*
X299000Y285000D01*
X295000Y289000*
X291000Y285000*
X295000Y281000*
Y285000D02*
Y289000D01*
X304843Y281000D02*
X308843Y285000D01*
X304843Y289000*
X300843Y285000*
X304843Y281000*
Y285000D02*
Y289000D01*
X285157Y261000D02*
X289157Y265000D01*
X285157Y269000*
X281157Y265000*
X285157Y261000*
Y265000D02*
Y269000D01*
X295000Y261000D02*
X299000Y265000D01*
X295000Y269000*
X291000Y265000*
X295000Y261000*
Y265000D02*
Y269000D01*
X304843Y261000D02*
X308843Y265000D01*
X304843Y269000*
X300843Y265000*
X304843Y261000*
Y265000D02*
Y269000D01*
X285157Y241000D02*
X289157Y245000D01*
X285157Y249000*
X281157Y245000*
X285157Y241000*
Y245000D02*
Y249000D01*
X295000Y241000D02*
X299000Y245000D01*
X295000Y249000*
X291000Y245000*
X295000Y241000*
Y245000D02*
Y249000D01*
X304843Y241000D02*
X308843Y245000D01*
X304843Y249000*
X300843Y245000*
X304843Y241000*
Y245000D02*
Y249000D01*
X285157Y221000D02*
X289157Y225000D01*
X285157Y229000*
X281157Y225000*
X285157Y221000*
Y225000D02*
Y229000D01*
X295000Y221000D02*
X299000Y225000D01*
X295000Y229000*
X291000Y225000*
X295000Y221000*
Y225000D02*
Y229000D01*
X304843Y221000D02*
X308843Y225000D01*
X304843Y229000*
X300843Y225000*
X304843Y221000*
Y225000D02*
Y229000D01*
X285157Y201000D02*
X289157Y205000D01*
X285157Y209000*
X281157Y205000*
X285157Y201000*
Y205000D02*
Y209000D01*
X295000Y201000D02*
X299000Y205000D01*
X295000Y209000*
X291000Y205000*
X295000Y201000*
Y205000D02*
Y209000D01*
X304843Y201000D02*
X308843Y205000D01*
X304843Y209000*
X300843Y205000*
X304843Y201000*
Y205000D02*
Y209000D01*
X285157Y181000D02*
X289157Y185000D01*
X285157Y189000*
X281157Y185000*
X285157Y181000*
Y185000D02*
Y189000D01*
X295000Y181000D02*
X299000Y185000D01*
X295000Y189000*
X291000Y185000*
X295000Y181000*
Y185000D02*
Y189000D01*
X304843Y181000D02*
X308843Y185000D01*
X304843Y189000*
X300843Y185000*
X304843Y181000*
Y185000D02*
Y189000D01*
X285157Y161000D02*
X289157Y165000D01*
X285157Y169000*
X281157Y165000*
X285157Y161000*
Y165000D02*
Y169000D01*
X295000Y161000D02*
X299000Y165000D01*
X295000Y169000*
X291000Y165000*
X295000Y161000*
Y165000D02*
Y169000D01*
X304843Y161000D02*
X308843Y165000D01*
X304843Y169000*
X300843Y165000*
X304843Y161000*
Y165000D02*
Y169000D01*
X285157Y141000D02*
X289157Y145000D01*
X285157Y149000*
X281157Y145000*
X285157Y141000*
Y145000D02*
Y149000D01*
X295000Y141000D02*
X299000Y145000D01*
X295000Y149000*
X291000Y145000*
X295000Y141000*
Y145000D02*
Y149000D01*
X304843Y141000D02*
X308843Y145000D01*
X304843Y149000*
X300843Y145000*
X304843Y141000*
Y145000D02*
Y149000D01*
X155236Y280921D02*
X159236Y284921D01*
X155236Y288921*
X151236Y284921*
X155236Y280921*
Y284921D02*
Y288921D01*
Y270921D02*
X159236Y274921D01*
X155236Y278921*
X151236Y274921*
X155236Y270921*
Y274921D02*
Y278921D01*
Y260921D02*
X159236Y264921D01*
X155236Y268921*
X151236Y264921*
X155236Y260921*
Y264921D02*
Y268921D01*
Y250921D02*
X159236Y254921D01*
X155236Y258921*
X151236Y254921*
X155236Y250921*
Y254921D02*
Y258921D01*
Y240921D02*
X159236Y244921D01*
X155236Y248921*
X151236Y244921*
X155236Y240921*
Y244921D02*
Y248921D01*
Y230921D02*
X159236Y234921D01*
X155236Y238921*
X151236Y234921*
X155236Y230921*
Y234921D02*
Y238921D01*
Y220921D02*
X159236Y224921D01*
X155236Y228921*
X151236Y224921*
X155236Y220921*
Y224921D02*
Y228921D01*
Y210921D02*
X159236Y214921D01*
X155236Y218921*
X151236Y214921*
X155236Y210921*
Y214921D02*
Y218921D01*
Y200921D02*
X159236Y204921D01*
X155236Y208921*
X151236Y204921*
X155236Y200921*
Y204921D02*
Y208921D01*
Y190921D02*
X159236Y194921D01*
X155236Y198921*
X151236Y194921*
X155236Y190921*
Y194921D02*
Y198921D01*
Y180921D02*
X159236Y184921D01*
X155236Y188921*
X151236Y184921*
X155236Y180921*
Y184921D02*
Y188921D01*
Y170921D02*
X159236Y174921D01*
X155236Y178921*
X151236Y174921*
X155236Y170921*
Y174921D02*
Y178921D01*
X165236Y170921D02*
X169236Y174921D01*
X165236Y178921*
X161236Y174921*
X165236Y170921*
Y174921D02*
Y178921D01*
Y180921D02*
X169236Y184921D01*
X165236Y188921*
X161236Y184921*
X165236Y180921*
Y184921D02*
Y188921D01*
Y190921D02*
X169236Y194921D01*
X165236Y198921*
X161236Y194921*
X165236Y190921*
Y194921D02*
Y198921D01*
Y200921D02*
X169236Y204921D01*
X165236Y208921*
X161236Y204921*
X165236Y200921*
Y204921D02*
Y208921D01*
Y210921D02*
X169236Y214921D01*
X165236Y218921*
X161236Y214921*
X165236Y210921*
Y214921D02*
Y218921D01*
Y220921D02*
X169236Y224921D01*
X165236Y228921*
X161236Y224921*
X165236Y220921*
Y224921D02*
Y228921D01*
Y230921D02*
X169236Y234921D01*
X165236Y238921*
X161236Y234921*
X165236Y230921*
Y234921D02*
Y238921D01*
Y240921D02*
X169236Y244921D01*
X165236Y248921*
X161236Y244921*
X165236Y240921*
Y244921D02*
Y248921D01*
Y250921D02*
X169236Y254921D01*
X165236Y258921*
X161236Y254921*
X165236Y250921*
Y254921D02*
Y258921D01*
Y260921D02*
X169236Y264921D01*
X165236Y268921*
X161236Y264921*
X165236Y260921*
Y264921D02*
Y268921D01*
Y270921D02*
X169236Y274921D01*
X165236Y278921*
X161236Y274921*
X165236Y270921*
Y274921D02*
Y278921D01*
Y280921D02*
X169236Y284921D01*
X165236Y288921*
X161236Y284921*
X165236Y280921*
Y284921D02*
Y288921D01*
X255236Y280921D02*
X259236Y284921D01*
X255236Y288921*
X251236Y284921*
X255236Y280921*
Y284921D02*
Y288921D01*
Y270921D02*
X259236Y274921D01*
X255236Y278921*
X251236Y274921*
X255236Y270921*
Y274921D02*
Y278921D01*
Y260921D02*
X259236Y264921D01*
X255236Y268921*
X251236Y264921*
X255236Y260921*
Y264921D02*
Y268921D01*
Y250921D02*
X259236Y254921D01*
X255236Y258921*
X251236Y254921*
X255236Y250921*
Y254921D02*
Y258921D01*
Y240921D02*
X259236Y244921D01*
X255236Y248921*
X251236Y244921*
X255236Y240921*
Y244921D02*
Y248921D01*
Y230921D02*
X259236Y234921D01*
X255236Y238921*
X251236Y234921*
X255236Y230921*
Y234921D02*
Y238921D01*
Y220921D02*
X259236Y224921D01*
X255236Y228921*
X251236Y224921*
X255236Y220921*
Y224921D02*
Y228921D01*
Y210921D02*
X259236Y214921D01*
X255236Y218921*
X251236Y214921*
X255236Y210921*
Y214921D02*
Y218921D01*
Y200921D02*
X259236Y204921D01*
X255236Y208921*
X251236Y204921*
X255236Y200921*
Y204921D02*
Y208921D01*
Y190921D02*
X259236Y194921D01*
X255236Y198921*
X251236Y194921*
X255236Y190921*
Y194921D02*
Y198921D01*
Y180921D02*
X259236Y184921D01*
X255236Y188921*
X251236Y184921*
X255236Y180921*
Y184921D02*
Y188921D01*
Y170921D02*
X259236Y174921D01*
X255236Y178921*
X251236Y174921*
X255236Y170921*
Y174921D02*
Y178921D01*
X265236Y170921D02*
X269236Y174921D01*
X265236Y178921*
X261236Y174921*
X265236Y170921*
Y174921D02*
Y178921D01*
Y180921D02*
X269236Y184921D01*
X265236Y188921*
X261236Y184921*
X265236Y180921*
Y184921D02*
Y188921D01*
Y190921D02*
X269236Y194921D01*
X265236Y198921*
X261236Y194921*
X265236Y190921*
Y194921D02*
Y198921D01*
Y200921D02*
X269236Y204921D01*
X265236Y208921*
X261236Y204921*
X265236Y200921*
Y204921D02*
Y208921D01*
Y210921D02*
X269236Y214921D01*
X265236Y218921*
X261236Y214921*
X265236Y210921*
Y214921D02*
Y218921D01*
Y220921D02*
X269236Y224921D01*
X265236Y228921*
X261236Y224921*
X265236Y220921*
Y224921D02*
Y228921D01*
Y230921D02*
X269236Y234921D01*
X265236Y238921*
X261236Y234921*
X265236Y230921*
Y234921D02*
Y238921D01*
Y240921D02*
X269236Y244921D01*
X265236Y248921*
X261236Y244921*
X265236Y240921*
Y244921D02*
Y248921D01*
Y250921D02*
X269236Y254921D01*
X265236Y258921*
X261236Y254921*
X265236Y250921*
Y254921D02*
Y258921D01*
Y260921D02*
X269236Y264921D01*
X265236Y268921*
X261236Y264921*
X265236Y260921*
Y264921D02*
Y268921D01*
Y270921D02*
X269236Y274921D01*
X265236Y278921*
X261236Y274921*
X265236Y270921*
Y274921D02*
Y278921D01*
Y280921D02*
X269236Y284921D01*
X265236Y288921*
X261236Y284921*
X265236Y280921*
Y284921D02*
Y288921D01*
X285157Y313500D02*
X289157Y317500D01*
X285157Y321500*
X281157Y317500*
X285157Y313500*
Y317500D02*
Y321500D01*
X295000Y313500D02*
X299000Y317500D01*
X295000Y321500*
X291000Y317500*
X295000Y313500*
Y317500D02*
Y321500D01*
X304843Y313500D02*
X308843Y317500D01*
X304843Y321500*
X300843Y317500*
X304843Y313500*
Y317500D02*
Y321500D01*
X328627Y284474D02*
X332627Y288474D01*
X328627Y292474*
X324627Y288474*
X328627Y284474*
Y288474D02*
Y292474D01*
X338469Y284474D02*
X342469Y288474D01*
X338469Y292474*
X334469Y288474*
X338469Y284474*
Y288474D02*
Y292474D01*
X348312Y284474D02*
X352312Y288474D01*
X348312Y292474*
X344312Y288474*
X348312Y284474*
Y288474D02*
Y292474D01*
X358155Y284474D02*
X362155Y288474D01*
X358155Y292474*
X354155Y288474*
X358155Y284474*
Y288474D02*
Y292474D01*
X328627Y260852D02*
X332627Y264852D01*
X328627Y268852*
X324627Y264852*
X328627Y260852*
Y264852D02*
Y268852D01*
X338469Y260852D02*
X342469Y264852D01*
X338469Y268852*
X334469Y264852*
X338469Y260852*
Y264852D02*
Y268852D01*
X348312Y260852D02*
X352312Y264852D01*
X348312Y268852*
X344312Y264852*
X348312Y260852*
Y264852D02*
Y268852D01*
X358155Y260852D02*
X362155Y264852D01*
X358155Y268852*
X354155Y264852*
X358155Y260852*
Y264852D02*
Y268852D01*
X380782Y236625D02*
X384782Y240625D01*
X380782Y244625*
X376782Y240625*
X380782Y236625*
Y240625D02*
Y244625D01*
X390625Y236625D02*
X394625Y240625D01*
X390625Y244625*
X386625Y240625*
X390625Y236625*
Y240625D02*
Y244625D01*
X400468Y236625D02*
X404468Y240625D01*
X400468Y244625*
X396468Y240625*
X400468Y236625*
Y240625D02*
Y244625D01*
X328282Y236625D02*
X332282Y240625D01*
X328282Y244625*
X324282Y240625*
X328282Y236625*
Y240625D02*
Y244625D01*
X338125Y236625D02*
X342125Y240625D01*
X338125Y244625*
X334125Y240625*
X338125Y236625*
Y240625D02*
Y244625D01*
X347968Y236625D02*
X351968Y240625D01*
X347968Y244625*
X343968Y240625*
X347968Y236625*
Y240625D02*
Y244625D01*
X334026Y307801D02*
X338026Y311801D01*
X334026Y315801*
X330026Y311801*
X334026Y307801*
Y311801D02*
Y315801D01*
Y317801D02*
X338026Y321801D01*
X334026Y325801*
X330026Y321801*
X334026Y317801*
Y321801D02*
Y325801D01*
X344026Y307801D02*
X348026Y311801D01*
X344026Y315801*
X340026Y311801*
X344026Y307801*
Y311801D02*
Y315801D01*
Y317801D02*
X348026Y321801D01*
X344026Y325801*
X340026Y321801*
X344026Y317801*
Y321801D02*
Y325801D01*
X354026Y307801D02*
X358026Y311801D01*
X354026Y315801*
X350026Y311801*
X354026Y307801*
Y311801D02*
Y315801D01*
Y317801D02*
X358026Y321801D01*
X354026Y325801*
X350026Y321801*
X354026Y317801*
Y321801D02*
Y325801D01*
X115157Y283500D02*
X119157Y287500D01*
X115157Y291500*
X111157Y287500*
X115157Y283500*
Y287500D02*
Y291500D01*
X125000Y283500D02*
X129000Y287500D01*
X125000Y291500*
X121000Y287500*
X125000Y283500*
Y287500D02*
Y291500D01*
X134843Y283500D02*
X138843Y287500D01*
X134843Y291500*
X130843Y287500*
X134843Y283500*
Y287500D02*
Y291500D01*
X108500Y112500D02*
X116500D01*
X112500Y108500D02*
Y116500D01*
X398500Y112500D02*
X406500D01*
X402500Y108500D02*
Y116500D01*
X399150Y324409D02*
X407150D01*
X403150Y320409D02*
Y328409D01*
X107811Y324409D02*
X115811D01*
X111811Y320409D02*
Y328409D01*
X290375Y123500D02*
X298375Y131500D01*
X290375D02*
X298375Y123500D01*
X307875Y131625D02*
X315875Y139625D01*
X307875D02*
X315875Y131625D01*
X311000Y158500D02*
X319000Y166500D01*
X311000D02*
X319000Y158500D01*
X332875Y174125D02*
X340875Y182125D01*
X332875D02*
X340875Y174125D01*
X343500Y177250D02*
X351500Y185250D01*
X343500D02*
X351500Y177250D01*
X170375Y190375D02*
X178375Y198375D01*
X170375D02*
X178375Y190375D01*
X176000Y199125D02*
X184000Y207125D01*
X176000D02*
X184000Y199125D01*
X167875Y221625D02*
X175875Y229625D01*
X167875D02*
X175875Y221625D01*
X170375Y227875D02*
X178375Y235875D01*
X170375D02*
X178375Y227875D01*
X186000D02*
X194000Y235875D01*
X186000D02*
X194000Y227875D01*
X232875Y251000D02*
X240875Y259000D01*
X232875D02*
X240875Y251000D01*
X269125Y275375D02*
X277125Y283375D01*
X269125D02*
X277125Y275375D01*
X318500Y276625D02*
X326500Y284625D01*
X318500D02*
X326500Y276625D01*
X254750Y300375D02*
X262750Y308375D01*
X254750D02*
X262750Y300375D01*
X100000Y100000D02*
Y336220D01*
X414961*
Y100000*
X100000*
X72441D02*
Y211360D01*
Y100000D02*
X69941Y110000D01*
X74941*
X72441Y100000*
Y336220D02*
Y224860D01*
Y336220D02*
X74941Y326220D01*
X69941*
X72441Y336220*
X95000Y100000D02*
X67441D01*
X95000Y336220D02*
X67441D01*
X59714Y219985D02*
X59486Y220610D01*
X58805Y220923*
X58350*
X57668Y220610*
X57214Y219673*
X56986Y218110*
Y216548*
X57214Y215298*
X57668Y214673*
X58350Y214360*
X58577*
X59259Y214673*
X59714Y215298*
X59941Y216235*
Y216548*
X59714Y217485*
X59259Y218110*
X58577Y218423*
X58350*
X57668Y218110*
X57214Y217485*
X56986Y216548*
X63350Y220923D02*
X62668Y220610D01*
X62214Y219673*
X61986Y218110*
Y217173*
X62214Y215610*
X62668Y214673*
X63350Y214360*
X63805*
X64486Y214673*
X64941Y215610*
X65168Y217173*
Y218110*
X64941Y219673*
X64486Y220610*
X63805Y220923*
X63350*
X67441Y214985D02*
X67214Y214673D01*
X67441Y214360*
X67668Y214673*
X67441Y214985*
X71077Y220923D02*
X70395Y220610D01*
X69941Y219673*
X69714Y218110*
Y217173*
X69941Y215610*
X70395Y214673*
X71077Y214360*
X71532*
X72214Y214673*
X72668Y215610*
X72895Y217173*
Y218110*
X72668Y219673*
X72214Y220610*
X71532Y220923*
X71077*
X74941Y218735D02*
Y214360D01*
Y217485D02*
X75623Y218423D01*
X76077Y218735*
X76759*
X77214Y218423*
X77441Y217485*
Y214360*
Y217485D02*
X78123Y218423D01*
X78577Y218735*
X79259*
X79714Y218423*
X79941Y217485*
Y214360*
X81986Y218735D02*
Y214360D01*
Y217485D02*
X82668Y218423D01*
X83123Y218735*
X83805*
X84259Y218423*
X84486Y217485*
Y214360*
Y217485D02*
X85168Y218423D01*
X85623Y218735*
X86305*
X86759Y218423*
X86986Y217485*
Y214360*
X100000Y367717D02*
X238912D01*
X100000D02*
X110000Y370217D01*
Y365217*
X100000Y367717*
X414961D02*
X276048D01*
X414961D02*
X404961Y365217D01*
Y370217*
X414961Y367717*
X100000Y341220D02*
Y372717D01*
X414961Y341220D02*
Y372717D01*
X243048Y370529D02*
X242367Y370217D01*
X242139Y369592*
Y368967*
X242367Y368342*
X242821Y368029*
X243730Y367717*
X244412Y367404*
X244867Y366779*
X245094Y366154*
Y365217*
X244867Y364592*
X244639Y364279*
X243958Y363967*
X243048*
X243048D02*
X242367Y364279D01*
X242139Y364592*
X241912Y365217*
Y366154*
X242139Y366779*
X242594Y367404*
X243276Y367717*
X244185Y368029*
X244639Y368342*
X244867Y368967*
Y369592*
X244639Y370217*
X243958Y370529*
X243048*
X248503D02*
X247821Y370217D01*
X247367Y369279*
X247139Y367717*
Y366779*
X247367Y365217*
X247821Y364279*
X248503Y363967*
X248958*
X249639Y364279*
X250094Y365217*
X250321Y366779*
Y367717*
X250094Y369279*
X249639Y370217*
X248958Y370529*
X248503*
X252594Y364592D02*
X252367Y364279D01*
X252594Y363967*
X252821Y364279*
X252594Y364592*
X256230Y370529D02*
X255548Y370217D01*
X255548D02*
X255094Y369279D01*
X254867Y367717*
Y366779*
X255094Y365217*
X255548Y364279*
X255548D02*
X256230Y363967D01*
X256685*
X257367Y364279*
X257821Y365217*
X258048Y366779*
X258048D02*
Y367717D01*
X258048D02*
X257821Y369279D01*
X257367Y370217*
X256685Y370529*
X256230*
X260094Y368342D02*
Y363967D01*
Y367092D02*
X260776Y368029D01*
X261230Y368342*
X261912*
X262367Y368029*
X262594Y367092*
Y363967*
Y367092D02*
X263276Y368029D01*
X263730Y368342*
X264412*
X264867Y368029*
X265094Y367092*
Y363967*
X267139Y368342D02*
Y363967D01*
Y367092D02*
X267821Y368029D01*
X268276Y368342*
X268958*
X269412Y368029*
X269639Y367092*
Y363967*
Y367092D02*
X270321Y368029D01*
X270776Y368342*
X271458*
X271912Y368029*
X272139Y367092*
Y363967*
X493701Y220000D02*
X751701D01*
X493701Y196000D02*
X751701D01*
X493701Y172000D02*
X751701D01*
X493701Y148000D02*
X751701D01*
X493701Y124000D02*
X751701D01*
X493701Y100000D02*
X751701D01*
X493701Y220000D02*
Y100000D01*
X577701Y220000D02*
Y100000D01*
X613701Y220000D02*
Y100000D01*
X649701Y220000D02*
Y100000D01*
X703701Y220000D02*
Y100000D01*
X751701Y220000D02*
Y100000D01*
X529201Y208750D02*
X528655Y209500D01*
X527837Y209875*
X526746*
X525928Y209500*
X525383Y208750*
Y208000*
X525655Y207250*
X525928Y206875*
X526474Y206500*
X528110Y205750*
X528655Y205375*
X528928Y205000*
X529201Y204250*
Y203125*
X528655Y202375*
X527837Y202000*
X526746*
X525928Y202375*
X525383Y203125*
X531655Y209875D02*
Y202000D01*
X537928Y209875D02*
X534110Y202000D01*
Y209875D02*
X537928D01*
X534110Y202000D02*
X537928D01*
X540383Y209875D02*
Y202000D01*
Y209875D02*
X543928D01*
X540383Y206125D02*
X542564D01*
X540383Y202000D02*
X543928D01*
X587564Y209875D02*
X587019Y209500D01*
X586474Y208750*
X586201Y208000*
X585928Y206875*
Y205000*
X586201Y203875*
X586474Y203125*
X587019Y202375*
X587564Y202000*
X588655*
X589201Y202375*
X589746Y203125*
X590019Y203875*
X590292Y205000*
Y206875*
X590019Y208000*
X589746Y208750*
X589201Y209500*
X588655Y209875*
X587564*
X588383Y203500D02*
X590019Y201250D01*
X594655Y209875D02*
Y202000D01*
X592746Y209875D02*
X596564D01*
X599019D02*
X601201Y206125D01*
Y202000*
X603383Y209875D02*
X601201Y206125D01*
X625746Y208750D02*
X625201Y209500D01*
X624383Y209875*
X623292*
X622474Y209500*
X621928Y208750*
Y208000*
X622201Y207250*
X622474Y206875*
X623019Y206500*
X624655Y205750*
X625201Y205375*
X625474Y205000*
X625746Y204250*
Y203125*
X625201Y202375*
X624383Y202000*
X623292*
X622474Y202375*
X621928Y203125*
X628201Y209875D02*
X630383Y206125D01*
Y202000*
X632564Y209875D02*
X630383Y206125D01*
X635019Y209875D02*
Y202000D01*
Y209875D02*
X637201Y202000D01*
X639383Y209875D02*
X637201Y202000D01*
X639383Y209875D02*
Y202000D01*
X661201Y209875D02*
Y202000D01*
Y209875D02*
X663655D01*
X664474Y209500*
X664746Y209125*
X665019Y208375*
Y207250*
X664746Y206500*
X664474Y206125*
X663655Y205750*
X661201*
X667474Y209875D02*
Y202000D01*
X670746*
X675383Y209875D02*
X673201Y202000D01*
X675383Y209875D02*
X677564Y202000D01*
X674019Y204625D02*
X676746D01*
X681928Y209875D02*
Y202000D01*
X680019Y209875D02*
X683837D01*
X686292D02*
Y202000D01*
Y209875D02*
X689837D01*
X686292Y206125D02*
X688474D01*
X686292Y202000D02*
X689837D01*
X692292Y209875D02*
Y202000D01*
Y209875D02*
X694201D01*
X695019Y209500*
X695564Y208750*
X695837Y208000*
X696110Y206875*
Y205000*
X695837Y203875*
X695564Y203125*
X695019Y202375*
X694201Y202000*
X692292*
X720383Y209875D02*
Y202000D01*
X718474Y209875D02*
X722292D01*
X726383D02*
X725837Y209500D01*
X725292Y208750*
X725019Y208000*
X724746Y206875*
Y205000*
X725019Y203875*
X725292Y203125*
X725837Y202375*
X726383Y202000*
X727474*
X728019Y202375*
X728564Y203125*
X728837Y203875*
X729110Y205000*
Y206875*
X728837Y208000*
X728564Y208750*
X728019Y209500*
X727474Y209875*
X726383*
X731564D02*
Y202000D01*
X734837*
X500246Y185875D02*
X503246D01*
X501610Y182875*
X502428*
X502974Y182500*
X503246Y182125*
X503519Y181000*
Y180250*
X503246Y179125*
X502701Y178375*
X501883Y178000*
X501064*
X500246Y178375*
X499974Y178750*
X499701Y179500*
X595337Y185875D02*
X592610Y180625D01*
X596701*
X595337Y185875D02*
Y178000D01*
X625701Y184000D02*
X637701D01*
X631701Y178000D02*
Y190000D01*
X658337Y185875D02*
X660519Y182125D01*
Y178000*
X662701Y185875D02*
X660519Y182125D01*
X665155Y185875D02*
Y178000D01*
Y185875D02*
X668701D01*
X665155Y182125D02*
X667337D01*
X665155Y178000D02*
X668701D01*
X674974Y184750D02*
X674428Y185500D01*
X673610Y185875*
X672519*
X671701Y185500*
X671155Y184750*
Y184000*
X671428Y183250*
X671701Y182875*
X672246Y182500*
X673883Y181750*
X674428Y181375*
X674701Y181000*
X674974Y180250*
Y179125*
X674428Y178375*
X673610Y178000*
X672519*
X671701Y178375*
X671155Y179125*
X711519Y184750D02*
Y178000D01*
X709064Y181375D02*
X713974D01*
X721337Y187375D02*
X716428Y175375D01*
X723792Y181375D02*
X728701D01*
X732792Y185875D02*
X731974Y185500D01*
X731428Y184375*
X731155Y182500*
Y181375*
X731428Y179500*
X731974Y178375*
X732792Y178000*
X733337*
X734155Y178375*
X734701Y179500*
X734974Y181375*
Y182500*
X734701Y184375*
X734155Y185500*
X733337Y185875*
X732792*
X737701Y178750D02*
X737428Y178375D01*
X737701Y178000*
X737974Y178375*
X737701Y178750*
X742064Y185875D02*
X741246Y185500D01*
X740701Y184375*
X740428Y182500*
Y181375*
X740701Y179500*
X741246Y178375*
X742064Y178000*
X742610*
X743428Y178375*
X743974Y179500*
X744246Y181375*
Y182500*
X743974Y184375*
X743428Y185500*
X742610Y185875*
X742064*
X501337Y161875D02*
X500519Y161500D01*
X499974Y160375*
X499701Y158500*
Y157375*
X499974Y155500*
X500519Y154375*
X501337Y154000*
X501883*
X502701Y154375*
X503246Y155500*
X503519Y157375*
Y158500*
X503246Y160375*
X502701Y161500*
X501883Y161875*
X501337*
X506246Y154750D02*
X505974Y154375D01*
X506246Y154000*
X506519Y154375*
X506246Y154750*
X509519Y161875D02*
X512519D01*
X510883Y158875*
X511701*
X512246Y158500*
X512519Y158125*
X512792Y157000*
Y156250*
X512519Y155125*
X511974Y154375*
X511155Y154000*
X510337*
X509519Y154375*
X509246Y154750*
X508974Y155500*
X590701Y160375D02*
X591246Y160750D01*
X592064Y161875*
Y154000*
X597246Y161875D02*
X594519Y156625D01*
X598610*
X597246Y161875D02*
Y154000D01*
X625701D02*
X637701Y166000D01*
X625701D02*
X637701Y154000D01*
X658337Y161875D02*
X660519Y158125D01*
Y154000*
X662701Y161875D02*
X660519Y158125D01*
X665155Y161875D02*
Y154000D01*
Y161875D02*
X668701D01*
X665155Y158125D02*
X667337D01*
X665155Y154000D02*
X668701D01*
X674974Y160750D02*
X674428Y161500D01*
X673610Y161875*
X672519*
X671701Y161500*
X671155Y160750*
Y160000*
X671428Y159250*
X671701Y158875*
X672246Y158500*
X673883Y157750*
X674428Y157375*
X674701Y157000*
X674974Y156250*
Y155125*
X674428Y154375*
X673610Y154000*
X672519*
X671701Y154375*
X671155Y155125*
X711519Y160750D02*
Y154000D01*
X709064Y157375D02*
X713974D01*
X721337Y163375D02*
X716428Y151375D01*
X723792Y157375D02*
X728701D01*
X732792Y161875D02*
X731974Y161500D01*
X731428Y160375*
X731155Y158500*
Y157375*
X731428Y155500*
X731974Y154375*
X732792Y154000*
X733337*
X734155Y154375*
X734701Y155500*
X734974Y157375*
Y158500*
X734701Y160375*
X734155Y161500*
X733337Y161875*
X732792*
X737701Y154750D02*
X737428Y154375D01*
X737701Y154000*
X737974Y154375*
X737701Y154750*
X742064Y161875D02*
X741246Y161500D01*
X740701Y160375*
X740428Y158500*
Y157375*
X740701Y155500*
X741246Y154375*
X742064Y154000*
X742610*
X743428Y154375*
X743974Y155500*
X744246Y157375*
Y158500*
X743974Y160375*
X743428Y161500*
X742610Y161875*
X742064*
X499974Y136000D02*
Y136375D01*
X500246Y137125*
X500519Y137500*
X501064Y137875*
X502155*
X502701Y137500*
X502974Y137125*
X503246Y136375*
Y135625*
X502974Y134875*
X502428Y133750*
X499701Y130000*
X503519*
X506246Y130750D02*
X505974Y130375D01*
X506246Y130000*
X506519Y130375*
X506246Y130750*
X511701Y137875D02*
X508974Y132625D01*
X513064*
X511701Y137875D02*
Y130000D01*
X596155Y136750D02*
X595883Y137500D01*
X595064Y137875*
X594519*
X593701Y137500*
X593155Y136375*
X592883Y134500*
Y132625*
X593155Y131125*
X593701Y130375*
X594519Y130000*
X594792*
X595610Y130375*
X596155Y131125*
X596428Y132250*
Y132625*
X596155Y133750*
X595610Y134500*
X594792Y134875*
X594519*
X593701Y134500*
X593155Y133750*
X592883Y132625*
X625701Y130000D02*
X637701D01*
Y142000*
X625701*
Y130000*
X631701Y136000D02*
Y142000D01*
X658337Y137875D02*
X660519Y134125D01*
Y130000*
X662701Y137875D02*
X660519Y134125D01*
X665155Y137875D02*
Y130000D01*
Y137875D02*
X668701D01*
X665155Y134125D02*
X667337D01*
X665155Y130000D02*
X668701D01*
X674974Y136750D02*
X674428Y137500D01*
X673610Y137875*
X672519*
X671701Y137500*
X671155Y136750*
Y136000*
X671428Y135250*
X671701Y134875*
X672246Y134500*
X673883Y133750*
X674428Y133375*
X674701Y133000*
X674974Y132250*
Y131125*
X674428Y130375*
X673610Y130000*
X672519*
X671701Y130375*
X671155Y131125*
X711519Y136750D02*
Y130000D01*
X709064Y133375D02*
X713974D01*
X721337Y139375D02*
X716428Y127375D01*
X723792Y133375D02*
X728701D01*
X732792Y137875D02*
X731974Y137500D01*
X731428Y136375*
X731155Y134500*
Y133375*
X731428Y131500*
X731974Y130375*
X732792Y130000*
X733337*
X734155Y130375*
X734701Y131500*
X734974Y133375*
Y134500*
X734701Y136375*
X734155Y137500*
X733337Y137875*
X732792*
X737701Y130750D02*
X737428Y130375D01*
X737701Y130000*
X737974Y130375*
X737701Y130750*
X742064Y137875D02*
X741246Y137500D01*
X740701Y136375*
X740428Y134500*
Y133375*
X740701Y131500*
X741246Y130375*
X742064Y130000*
X742610*
X743428Y130375*
X743974Y131500*
X744246Y133375*
Y134500*
X743974Y136375*
X743428Y137500*
X742610Y137875*
X742064*
X501337Y113875D02*
X500519Y113500D01*
X499974Y112375*
X499701Y110500*
Y109375*
X499974Y107500*
X500519Y106375*
X501337Y106000*
X501883*
X502701Y106375*
X503246Y107500*
X503519Y109375*
Y110500*
X503246Y112375*
X502701Y113500*
X501883Y113875*
X501337*
X506246Y106750D02*
X505974Y106375D01*
X506246Y106000*
X506519Y106375*
X506246Y106750*
X510337Y113875D02*
X509519Y113500D01*
X509246Y112750*
Y112000*
X509519Y111250*
X510064Y110875*
X511155Y110500*
X511974Y110125*
X512519Y109375*
X512792Y108625*
Y107500*
X512519Y106750*
X512246Y106375*
X511428Y106000*
X510337*
X509519Y106375*
X509246Y106750*
X508974Y107500*
Y108625*
X509246Y109375*
X509792Y110125*
X510610Y110500*
X511701Y110875*
X512246Y111250*
X512519Y112000*
Y112750*
X512246Y113500*
X511428Y113875*
X510337*
X516610D02*
X515792Y113500D01*
X515519Y112750*
Y112000*
X515792Y111250*
X516337Y110875*
X517428Y110500*
X518246Y110125*
X518792Y109375*
X519064Y108625*
Y107500*
X518792Y106750*
X518519Y106375*
X517701Y106000*
X516610*
X515792Y106375*
X515519Y106750*
X515246Y107500*
Y108625*
X515519Y109375*
X516064Y110125*
X516883Y110500*
X517974Y110875*
X518519Y111250*
X518792Y112000*
Y112750*
X518519Y113500*
X517701Y113875*
X516610*
X525064Y111250D02*
X524792Y110125D01*
X524246Y109375*
X523428Y109000*
X523155*
X522337Y109375*
X521792Y110125*
X521519Y111250*
Y111625*
X521792Y112750*
X522337Y113500*
X523155Y113875*
X523428*
X524246Y113500*
X524792Y112750*
X525064Y111250*
Y109375*
X524792Y107500*
X524246Y106375*
X523428Y106000*
X522883*
X522064Y106375*
X521792Y107125*
X587701Y112375D02*
X588246Y112750D01*
X589064Y113875*
Y106000*
X591792Y112000D02*
Y112375D01*
X592064Y113125*
X592337Y113500*
X592883Y113875*
X593974*
X594519Y113500*
X594792Y113125*
X595064Y112375*
Y111625*
X594792Y110875*
X594246Y109750*
X591519Y106000*
X595337*
X598337Y113875D02*
X601337D01*
X599701Y110875*
X600519*
X601064Y110500*
X601337Y110125*
X601610Y109000*
Y108250*
X601337Y107125*
X600792Y106375*
X599974Y106000*
X599155*
X598337Y106375*
X598064Y106750*
X597792Y107500*
X631701Y106000D02*
X637701Y112000D01*
X631701Y118000*
X625701Y112000*
X631701Y106000*
Y112000D02*
Y118000D01*
X658337Y113875D02*
X660519Y110125D01*
Y106000*
X662701Y113875D02*
X660519Y110125D01*
X665155Y113875D02*
Y106000D01*
Y113875D02*
X668701D01*
X665155Y110125D02*
X667337D01*
X665155Y106000D02*
X668701D01*
X674974Y112750D02*
X674428Y113500D01*
X673610Y113875*
X672519*
X671701Y113500*
X671155Y112750*
Y112000*
X671428Y111250*
X671701Y110875*
X672246Y110500*
X673883Y109750*
X674428Y109375*
X674701Y109000*
X674974Y108250*
Y107125*
X674428Y106375*
X673610Y106000*
X672519*
X671701Y106375*
X671155Y107125*
X711519Y112750D02*
Y106000D01*
X709064Y109375D02*
X713974D01*
X721337Y115375D02*
X716428Y103375D01*
X723792Y109375D02*
X728701D01*
X732792Y113875D02*
X731974Y113500D01*
X731428Y112375*
X731155Y110500*
Y109375*
X731428Y107500*
X731974Y106375*
X732792Y106000*
X733337*
X734155Y106375*
X734701Y107500*
X734974Y109375*
Y110500*
X734701Y112375*
X734155Y113500*
X733337Y113875*
X732792*
X737701Y106750D02*
X737428Y106375D01*
X737701Y106000*
X737974Y106375*
X737701Y106750*
X742064Y113875D02*
X741246Y113500D01*
X740701Y112375*
X740428Y110500*
Y109375*
X740701Y107500*
X741246Y106375*
X742064Y106000*
X742610*
X743428Y106375*
X743974Y107500*
X744246Y109375*
Y110500*
X743974Y112375*
X743428Y113500*
X742610Y113875*
X742064*
X0Y0D02*
M02*
