M48
;FILE_FORMAT=2:4
INCH,LZ
FMAT,2
ICI,OFF
;TYPE=PLATED
T1C.01181
T2C.035
T3C.09449
T4C.11811
%
M72
G90
G93X0Y0
T1C.01181F095S3
X017438Y019438
X018Y020313
X017188Y022563
X017438Y023188
X025875Y030438
X023688Y0255
X019Y023188
X029438Y01275
X031188Y013563
X0315Y01625
X027313Y027938
X03225Y028063
X03475Y018125
X033688Y017813
T2C.035F197S55
X011516Y01475
X0125Y01475
X013484Y01475
X011516Y01675
X0125Y01675
X013484Y01675
X011516Y01875
X0125Y01875
X013484Y01875
X011516Y02075
X0125Y02075
X013484Y02075
X011516Y02275
X0125Y02275
X013484Y02275
X011516Y02475
X0125Y02475
X013484Y02475
X011516Y02675
X0125Y02675
X013484Y02675
X011516Y02875
X0125Y02875
X013484Y02875
X015524Y028492
X015524Y027492
X015524Y026492
X015524Y025492
X015524Y024492
X015524Y023492
X015524Y022492
X015524Y021492
X015524Y020492
X015524Y019492
X015524Y018492
X015524Y017492
X017087Y013937
X016524Y017492
X016524Y018492
X016524Y019492
X016524Y020492
X016524Y021492
X016524Y022492
X016524Y023492
X016524Y024492
X016524Y025492
X016524Y026492
X016524Y027492
X016524Y028492
X025524Y028492
X025524Y027492
X025524Y026492
X025524Y025492
X025524Y024492
X025524Y023492
X025524Y022492
X025524Y021492
X025524Y020492
X025524Y019492
X025524Y018492
X025524Y017492
X019087Y013937
X022205Y013937
X024205Y013937
X028516Y0145
X028516Y0165
X026524Y017492
X026524Y018492
X028516Y0185
X026524Y019492
X026524Y020492
X028516Y0205
X026524Y021492
X026524Y022492
X028516Y0225
X026524Y023492
X026524Y024492
X028516Y0245
X026524Y025492
X026524Y026492
X028516Y0265
X026524Y027492
X026524Y028492
X028516Y0285
X028516Y03175
X0295Y03175
X030484Y03175
X0295Y0285
X030484Y0285
X0295Y0265
X030484Y0265
X0295Y0245
X030484Y0245
X0295Y0225
X030484Y0225
X0295Y0205
X030484Y0205
X030484Y0185
X0295Y0185
X0295Y0165
X030484Y0165
X030484Y0145
X0295Y0145
X032828Y024063
X033813Y024063
X034797Y024063
X032863Y026485
X033847Y026485
X034831Y026485
X035815Y026485
X032863Y028847
X035815Y028847
X033847Y028847
X034831Y028847
X035403Y03118
X033403Y03118
X034403Y03118
X033403Y03218
X034403Y03218
X035403Y03218
X038078Y024063
X039063Y024063
X040047Y024063
T3C.09449F066S55
X032891Y02125
X034859Y02125
X038203Y021188
X040172Y021188
X034891Y012563
X036859Y012563
T4C.11811F069S658
X01125Y01125
X011181Y032441
X040315Y032441
X04025Y01125
M30
