*
*
G04 PADS VX.2 Build Number: 5060570 generated Gerber (RS-274-X) file*
G04 PC Version=2.1*
*
%IN "20220803_3_copper_2.pcb"*%
*
%MOIN*%
*
%FSLAX35Y35*%
*
*
*
*
G04 PC Standard Apertures*
*
*
G04 Thermal Relief Aperture macro.*
%AMTER*
1,1,$1,0,0*
1,0,$1-$2,0,0*
21,0,$3,$4,0,0,45*
21,0,$3,$4,0,0,135*
%
*
*
G04 Annular Aperture macro.*
%AMANN*
1,1,$1,0,0*
1,0,$2,0,0*
%
*
*
G04 Odd Aperture macro.*
%AMODD*
1,1,$1,0,0*
1,0,$1-0.005,0,0*
%
*
*
G04 PC Custom Aperture Macros*
*
*
*
*
*
*
G04 PC Aperture Table*
*
%ADD010C,0.001*%
%ADD024C,0.01*%
%ADD033C,0.07*%
%ADD034R,0.07X0.07*%
%ADD036C,0.16748*%
%ADD038C,0.12811*%
%ADD040R,0.16748X0.32496*%
*
*
*
*
G04 PC Circuitry*
G04 Layer Name 20220803_3_copper_2.pcb - circuitry*
%LPD*%
*
*
G04 PC Custom Flashes*
G04 Layer Name 20220803_3_copper_2.pcb - flashes*
%LPD*%
*
*
G04 PC Circuitry*
G04 Layer Name 20220803_3_copper_2.pcb - circuitry*
%LPD*%
*
G54D10*
G54D24*
G01X100000Y100000D02*
Y336220D01*
X414961*
Y100000*
X100000*
G54D33*
X170866Y139370D03*
X222047D03*
X115157Y267500D03*
X125000D03*
X134843D03*
X115157Y247500D03*
X125000D03*
X134843D03*
X115157Y227500D03*
X125000D03*
X134843D03*
X115157Y207500D03*
X125000D03*
X134843D03*
X115157Y187500D03*
X125000D03*
X134843D03*
X115157Y167500D03*
X125000D03*
X134843D03*
X115157Y147500D03*
X125000D03*
X134843D03*
X285157Y285000D03*
X295000D03*
X304843D03*
X285157Y265000D03*
X295000D03*
X304843D03*
X285157Y245000D03*
X295000D03*
X304843D03*
X285157Y225000D03*
X295000D03*
X304843D03*
X285157Y205000D03*
X295000D03*
X304843D03*
X285157Y185000D03*
X295000D03*
X304843D03*
X285157Y165000D03*
X295000D03*
X304843D03*
X285157Y145000D03*
X295000D03*
X304843D03*
X155236Y284921D03*
Y274921D03*
Y264921D03*
Y254921D03*
Y244921D03*
Y234921D03*
Y224921D03*
Y214921D03*
Y204921D03*
Y194921D03*
Y184921D03*
Y174921D03*
X165236D03*
Y184921D03*
Y194921D03*
Y204921D03*
Y214921D03*
Y224921D03*
Y234921D03*
Y244921D03*
Y254921D03*
Y264921D03*
Y274921D03*
Y284921D03*
X255236D03*
Y274921D03*
Y264921D03*
Y254921D03*
Y244921D03*
Y234921D03*
Y224921D03*
Y214921D03*
Y204921D03*
Y194921D03*
Y184921D03*
Y174921D03*
X265236D03*
Y184921D03*
Y194921D03*
Y204921D03*
Y214921D03*
Y224921D03*
Y234921D03*
Y244921D03*
Y254921D03*
Y264921D03*
Y274921D03*
Y284921D03*
X285157Y317500D03*
X295000D03*
X304843D03*
X328627Y288474D03*
X338469D03*
X348312D03*
X358155D03*
X328627Y264852D03*
X338469D03*
X348312D03*
X358155D03*
X380782Y240625D03*
X390625D03*
X400468D03*
X328282D03*
X338125D03*
X347968D03*
X334026Y311801D03*
Y321801D03*
X344026Y311801D03*
Y321801D03*
X354026Y311801D03*
Y321801D03*
X115157Y287500D03*
X125000D03*
X134843D03*
G54D34*
X190866Y139370D03*
X242047D03*
G54D36*
X348907Y125625D03*
X368593D03*
X348593Y212500D03*
X328907D03*
X401718Y211875D03*
X382032D03*
G54D38*
X112500Y112500D03*
X402500D03*
X403150Y324409D03*
X111811D03*
G54D40*
X352126Y155748D03*
X328504D03*
X0Y0D02*
M02*
