*
*
G04 PADS VX.2 Build Number: 5060570 generated Gerber (RS-274-X) file*
G04 PC Version=2.1*
*
%IN "20220803_3_copper_2.pcb"*%
*
%MOIN*%
*
%FSLAX35Y35*%
*
*
*
*
G04 PC Standard Apertures*
*
*
G04 Thermal Relief Aperture macro.*
%AMTER*
1,1,$1,0,0*
1,0,$1-$2,0,0*
21,0,$3,$4,0,0,45*
21,0,$3,$4,0,0,135*
%
*
*
G04 Annular Aperture macro.*
%AMANN*
1,1,$1,0,0*
1,0,$2,0,0*
%
*
*
G04 Odd Aperture macro.*
%AMODD*
1,1,$1,0,0*
1,0,$1-0.005,0,0*
%
*
*
G04 PC Custom Aperture Macros*
*
*
*
*
*
*
G04 PC Aperture Table*
*
%ADD010C,0.001*%
%ADD024C,0.01*%
%ADD025C,0.00787*%
%ADD026C,0.00591*%
%ADD027C,0.003*%
%ADD028C,0.00709*%
%ADD029C,0.00394*%
%ADD030C,0.00315*%
*
*
*
*
G04 PC Circuitry*
G04 Layer Name 20220803_3_copper_2.pcb - circuitry*
%LPD*%
*
G54D10*
G01X247818Y282869D02*
X245286D01*
Y282208*
X245323Y281911*
X245360Y281655*
X245467Y281404*
X245647Y281188*
X245827Y281044*
X246044Y280936*
X246299Y280863*
X246590Y280827*
X246884Y280864*
X247138Y280900*
X247349Y281006*
X247491Y281147*
X247637Y281366*
X247744Y281581*
X247818Y282171*
Y282869*
X247655Y282619D02*
Y282205D01*
X247654Y282197*
X247579Y281709*
X247573Y281692*
X247385Y281354*
X247368Y281336*
X247067Y281148*
X247049Y281141*
X246598Y281066*
X246582Y281065*
X246093Y281141*
X246073Y281148*
X245735Y281374*
X245719Y281391*
X245531Y281730*
X245525Y281746*
X245450Y282197*
X245449Y282205*
Y282619*
X245499Y282669*
X247605*
X247655Y282619*
X247818Y285689D02*
X245286D01*
Y285488*
X247492*
X247514Y285393*
X247367Y285320*
X245286Y283945*
Y283646*
X247818*
Y283847*
X245612*
X245590Y283942*
X245662Y283978*
X245772Y284051*
X247818Y285390*
Y285689*
X247855Y287092D02*
X247819Y287383D01*
X247746Y287638*
X247637Y287857*
X247493Y288071*
X247279Y288214*
X247060Y288324*
X246805Y288397*
X246514Y288433*
X246221Y288396*
X246004Y288360*
X245790Y288253*
X245608Y288108*
X245428Y287927*
X245322Y287716*
X245286Y287499*
X245249Y287204*
X245285Y286767*
X245456Y286390*
X246540*
Y287155*
X246376*
Y286641*
X246326Y286591*
X245575*
X245527Y286625*
X245452Y286851*
X245450Y286861*
X245412Y287161*
X245413Y287176*
X245488Y287590*
X245497Y287611*
X245723Y287912*
X245738Y287925*
X246077Y288113*
X246093Y288119*
X246544Y288194*
X246561*
X246974Y288119*
X246991Y288113*
X247367Y287887*
X247381Y287874*
X247607Y287573*
X247616Y287553*
X247654Y287365*
Y287364*
X247692Y287138*
Y287130*
Y287125*
X247654Y286712*
X247650Y286696*
X247531Y286428*
X247753*
X247818Y286724*
X247855Y287092*
X244068Y283675D02*
X241536Y282771D01*
Y282503*
X244068Y281563*
Y281757*
X242038Y282532*
X241780Y282569*
X241771Y282666*
X241996Y282741*
X244068Y283481*
Y283675*
X244105Y284875D02*
X244069Y285200D01*
X243972Y285426*
X243798*
X243896Y285278*
X243904Y285256*
X243942Y284956*
Y284941*
X243904Y284716*
X243899Y284702*
X243824Y284551*
X243802Y284529*
X243651Y284454*
X243639Y284449*
X243451Y284412*
X243431*
X243243Y284449*
X243223Y284458*
X243073Y284571*
X243055Y284595*
X242980Y284821*
X242978Y284830*
X242940Y285093*
Y285100*
Y285275*
X242777*
Y285100*
X242776Y285094*
X242739Y284793*
X242737Y284783*
X242661Y284558*
X242645Y284534*
X242457Y284384*
X242434Y284374*
X242209Y284336*
X242191Y284337*
X242003Y284374*
X241987Y284380*
X241799Y284493*
X241778Y284517*
X241703Y284705*
X241700Y284717*
X241662Y284980*
Y284987*
Y284993*
X241700Y285294*
X241707Y285314*
X241847Y285539*
X241632*
X241535Y285313*
X241499Y284987*
X241535Y284629*
X241711Y284382*
X241922Y284206*
X242239Y284136*
X242445Y284170*
X242652Y284308*
X242756Y284482*
X242830Y284702*
X242925*
X242997Y284485*
X243134Y284314*
X243304Y284246*
X243517Y284211*
X243759Y284245*
X243930Y284382*
X244070Y284591*
X244105Y284875*
X241804Y286262D02*
X241753Y286339D01*
X241640Y286396*
X241560Y286342*
X241506Y286262*
X241563Y286149*
X241640Y286097*
X241750Y286152*
X241804Y286262*
X244105Y287732D02*
X244069Y288057D01*
X243972Y288283*
X243798*
X243896Y288135*
X243904Y288114*
X243942Y287813*
Y287798*
X243904Y287573*
X243899Y287559*
X243824Y287408*
X243802Y287386*
X243651Y287311*
X243639Y287306*
X243451Y287269*
X243431*
X243243Y287306*
X243223Y287315*
X243073Y287428*
X243055Y287452*
X242980Y287678*
X242978Y287687*
X242940Y287950*
Y287957*
Y288133*
X242777*
Y287957*
X242776Y287951*
X242739Y287650*
X242737Y287640*
X242661Y287415*
X242645Y287392*
X242457Y287241*
X242434Y287231*
X242209Y287193*
X242191Y287194*
X242003Y287231*
X241987Y287237*
X241799Y287350*
X241778Y287374*
X241703Y287562*
X241700Y287574*
X241662Y287837*
Y287844*
Y287850*
X241700Y288151*
X241707Y288171*
X241847Y288396*
X241632*
X241535Y288170*
X241499Y287844*
X241535Y287486*
X241711Y287239*
X241922Y287063*
X242239Y286993*
X242445Y287027*
X242652Y287165*
X242756Y287339*
X242830Y287559*
X242925*
X242997Y287342*
X243134Y287171*
X243304Y287103*
X243517Y287068*
X243759Y287102*
X243930Y287239*
X244070Y287449*
X244105Y287732*
X222628Y173024D02*
X222145D01*
X222095Y173074*
Y175807*
X221643*
X221302Y175124*
X221298Y175119*
X220825Y174408*
X220823Y174406*
X220290Y173696*
X220289Y173694*
X219768Y173057*
Y172710*
X221671*
X221721Y172660*
Y171704*
X222095*
Y172660*
X222145Y172710*
X222628*
Y173024*
X221721Y175147D02*
Y173074D01*
X221671Y173024*
X220250*
X220212Y173106*
X220507Y173461*
X220861Y173932*
X221214Y174463*
X221628Y175172*
X221721Y175147*
X219372Y175748D02*
X217340D01*
Y171704*
X217714*
Y173489*
X217764Y173539*
X219253*
Y173853*
X217764*
X217714Y173903*
Y175383*
X217764Y175433*
X219372*
Y175748*
X216411Y172018D02*
X214330D01*
X214281Y172078*
X214340Y172374*
X214345Y172386*
X214463Y172623*
X214476Y172639*
X214831Y172935*
X214833Y172937*
X215307Y173292*
X215308Y173293*
X215717Y173585*
X216004Y173930*
X216176Y174331*
X216233Y174729*
X216119Y175185*
X215893Y175525*
X215555Y175750*
X215101Y175806*
X214468Y175691*
X214084Y175417*
Y175030*
X214236Y175182*
X214249Y175191*
X214722Y175428*
X214735Y175432*
X215031Y175492*
X215050*
X215346Y175432*
X215359Y175428*
X215596Y175310*
X215613Y175295*
X215791Y175058*
X215800Y175036*
X215860Y174681*
Y174673*
X215859Y174663*
X215800Y174367*
X215797Y174358*
X215679Y174062*
X215672Y174050*
X215435Y173754*
X215425Y173744*
X215011Y173449*
X214482Y173037*
X214135Y172691*
X213964Y172292*
X213906Y171828*
Y171704*
X216411*
Y172018*
X213036Y172839D02*
X212980Y173174D01*
X212755Y173511*
X212474Y173680*
X212124Y173797*
Y173891*
X212471Y174007*
X212749Y174230*
X212861Y174509*
X212918Y174851*
X212862Y175244*
X212638Y175524*
X212299Y175750*
X211843Y175807*
X211324Y175749*
X210946Y175587*
Y175240*
X211224Y175425*
X211245Y175433*
X211719Y175492*
X211733*
X212089Y175433*
X212103Y175428*
X212340Y175310*
X212362Y175287*
X212480Y175050*
X212485Y175038*
X212544Y174742*
Y174722*
X212485Y174426*
X212476Y174406*
X212298Y174169*
X212274Y174152*
X211919Y174033*
X211910Y174031*
X211495Y173972*
X211488*
X211183*
Y173657*
X211488*
X211495*
X211968Y173598*
X211978Y173595*
X212333Y173477*
X212356Y173461*
X212593Y173165*
X212603Y173142*
X212663Y172787*
Y172778*
X212662Y172769*
X212603Y172473*
X212597Y172457*
X212419Y172161*
X212395Y172140*
X212099Y172022*
X212087Y172018*
X211673Y171959*
X211660*
X211186Y172018*
X211166Y172026*
X210769Y172274*
Y171864*
X211146Y171702*
X211666Y171645*
X212240Y171702*
X212638Y171987*
X212922Y172327*
X213036Y172839*
X209781Y175748D02*
X209271D01*
X207982Y172876*
X207978Y172869*
X207862Y172696*
X207746Y172405*
X207652Y172407*
X207593Y172584*
X207476Y172877*
X206187Y175748*
X205618*
Y171704*
X205992*
Y175265*
X206091Y175275*
X206149Y174982*
X206207Y174810*
X207613Y171704*
X207785*
X209193Y174871*
X209194Y174873*
X209250Y174985*
X209308Y175275*
X209407Y175265*
Y171704*
X209781*
Y175748*
X204867D02*
X202125D01*
Y175433*
X203259*
X203309Y175383*
Y171704*
X203683*
Y175383*
X203733Y175433*
X204867*
Y175748*
X201670Y172716D02*
X201614Y173110D01*
X201041Y173683*
X200577Y173856*
X200567Y173862*
X200213Y174098*
X199918Y174275*
X199908Y174282*
X199731Y174460*
X199717Y174485*
X199658Y174782*
Y174801*
X199717Y175097*
X199736Y175127*
X199973Y175305*
X199984Y175311*
X200280Y175430*
X200289Y175432*
X200585Y175492*
X200601*
X201133Y175433*
X201148Y175429*
X201492Y175282*
Y175696*
X201180Y175748*
X200654Y175807*
X200136Y175749*
X199675Y175519*
X199337Y175237*
X199282Y175017*
X199225Y174731*
X199281Y174396*
X199506Y174058*
X199852Y173827*
X200263Y173592*
X200617Y173415*
X200621Y173413*
X200917Y173236*
X200926Y173228*
X201163Y172991*
X201177Y172966*
X201236Y172670*
Y172650*
X201177Y172354*
X201163Y172329*
X200986Y172151*
X200973Y172142*
X200736Y172023*
X200720Y172018*
X200306Y171959*
X200299*
X200003*
X199984Y171962*
X199392Y172199*
X199381Y172206*
X199224Y172323*
Y171862*
X199427Y171760*
X200008Y171644*
X200237*
X200761Y171703*
X201219Y171874*
X201560Y172216*
X201670Y172435*
Y172716*
X178973Y174497D02*
X178901Y174894D01*
X178760Y175141*
X178515Y175316*
X178160Y175387*
X177841Y175316*
X177634Y175178*
X177493Y174895*
X177420Y174531*
Y174310*
X177367Y174260*
X176578Y174298*
X176530Y174348*
Y175275*
X176367*
Y174132*
X177600Y174064*
X177585Y174107*
X177583Y174122*
Y174461*
Y174467*
X177621Y174768*
X177628Y174787*
X177740Y174975*
X177752Y174988*
X177752D02*
X177940Y175139D01*
X177963Y175149*
X178189Y175187*
X178205*
X178431Y175149*
X178448Y175143*
X178636Y175030*
X178655Y175009*
X178768Y174784*
X178772Y174770*
X178810Y174544*
Y174530*
X178773Y174229*
X178766Y174210*
X178659Y174022*
X178875*
X178937Y174209*
X178973Y174497*
X178936Y176982D02*
X176405Y177923D01*
Y177728*
X178435Y176953*
X178693Y176916*
X178701Y176819*
X178476Y176744*
X176405Y176004*
Y175810*
X178936Y176714*
Y176982*
X175224Y172638D02*
X175187Y173076D01*
X175016Y173452*
X173933*
Y172687*
X174096*
Y173201*
X174146Y173251*
X174898*
X174945Y173217*
X175020Y172992*
X175023Y172982*
X175060Y172681*
Y172666*
X174985Y172253*
X174975Y172231*
X174750Y171931*
X174734Y171917*
X174396Y171729*
X174380Y171723*
X173929Y171648*
X173911*
X173498Y171724*
X173481Y171730*
X173105Y171955*
X173091Y171968*
X172865Y172269*
X172856Y172289*
X172819Y172477*
X172818Y172479*
X172781Y172704*
X172780Y172713*
Y172717*
X172818Y173131*
X172822Y173146*
X172941Y173414*
X172720*
X172654Y173118*
X172617Y172751*
X172654Y172459*
X172727Y172204*
X172727D02*
X172836Y171986D01*
X172979Y171771*
X173194Y171628*
X173412Y171519*
X173667Y171446*
X173958Y171410*
X174252Y171446*
X174469Y171483*
X174469D02*
X174683Y171590D01*
X174864Y171735*
X175045Y171915*
X175151Y172127*
X175187Y172344*
X175224Y172638*
X175186Y176196D02*
X172655D01*
Y175996*
X174860*
X174883Y175901*
X174810Y175865*
X174700Y175791*
X172655Y174452*
X172655D02*
Y174154D01*
X175186*
Y174354*
X172981*
X172958Y174449*
X173106Y174523*
X175186Y175897*
Y176196*
Y177634D02*
X175149Y177931D01*
X175112Y178188*
X175005Y178438*
X174825Y178654*
X174645Y178798*
X174429Y178906*
X174174Y178979*
X173883Y179016*
X173589Y178979*
X173334Y178942*
X173123Y178837*
X172982Y178696*
X172836Y178477*
X172728Y178262*
X172655Y177672*
Y176973*
X175186*
Y177634*
X175023Y177637D02*
Y177224D01*
X174973Y177174*
X172868*
X172818Y177224*
Y177637*
Y177645*
X172894Y178134*
X172899Y178150*
X173087Y178489*
X173104Y178507*
X173405Y178695*
X173423Y178702*
X173875Y178777*
X173890*
X174379Y178702*
X174399Y178694*
X174738Y178469*
X174738D02*
X174754Y178451D01*
X174942Y178113*
X174947Y178097*
X175022Y177646*
X175023Y177637*
X172700Y172298D02*
Y173325D01*
Y174154D02*
Y174482D01*
Y175996D02*
Y176196D01*
Y176973D02*
Y178035D01*
X172800Y172058D02*
Y172590D01*
Y172933D02*
Y173414D01*
Y174154D02*
Y174548D01*
Y175996D02*
Y176196D01*
Y176973D02*
Y178405D01*
X172900Y171890D02*
Y172223D01*
Y173322D02*
Y173414D01*
Y174154D02*
Y174613D01*
Y175996D02*
Y176196D01*
Y176973D02*
Y177174D01*
Y178152D02*
Y178573D01*
X173000Y171757D02*
Y172090D01*
Y174154D02*
Y174354D01*
Y174470D02*
Y174679D01*
Y175996D02*
Y176196D01*
Y176973D02*
Y177174D01*
Y178332D02*
Y178714D01*
X173100Y171691D02*
Y171959D01*
Y174154D02*
Y174354D01*
Y174520D02*
Y174744D01*
Y175996D02*
Y176196D01*
Y176973D02*
Y177174D01*
Y178504D02*
Y178814D01*
X173200Y171625D02*
Y171899D01*
Y174154D02*
Y174354D01*
Y174585D02*
Y174809D01*
Y175996D02*
Y176196D01*
Y176973D02*
Y177174D01*
Y178567D02*
Y178875D01*
X173300Y171575D02*
Y171839D01*
Y174154D02*
Y174354D01*
Y174651D02*
Y174875D01*
Y175996D02*
Y176196D01*
Y176973D02*
Y177174D01*
Y178629D02*
Y178925D01*
X173400Y171525D02*
Y171779D01*
Y174154D02*
Y174354D01*
Y174717D02*
Y174940D01*
Y175996D02*
Y176196D01*
Y176973D02*
Y177174D01*
Y178692D02*
Y178952D01*
X173500Y171494D02*
Y171723D01*
Y174154D02*
Y174354D01*
Y174783D02*
Y175006D01*
Y175996D02*
Y176196D01*
Y176973D02*
Y177174D01*
Y178715D02*
Y178966D01*
X173600Y171465D02*
Y171705D01*
Y174154D02*
Y174354D01*
Y174849D02*
Y175071D01*
Y175996D02*
Y176196D01*
Y176973D02*
Y177174D01*
Y178731D02*
Y178980D01*
X173700Y171442D02*
Y171687D01*
Y174154D02*
Y174354D01*
Y174915D02*
Y175137D01*
Y175996D02*
Y176196D01*
Y176973D02*
Y177174D01*
Y178748D02*
Y178993D01*
X173800Y171429D02*
Y171669D01*
Y174154D02*
Y174354D01*
Y174982D02*
Y175202D01*
Y175996D02*
Y176196D01*
Y176973D02*
Y177174D01*
Y178765D02*
Y179005D01*
X173900Y171417D02*
Y171650D01*
Y174154D02*
Y174354D01*
Y175048D02*
Y175268D01*
Y175996D02*
Y176196D01*
Y176973D02*
Y177174D01*
Y178776D02*
Y179013D01*
X174000Y171415D02*
Y171660D01*
Y172687D02*
Y173452D01*
Y174154D02*
Y174354D01*
Y175114D02*
Y175333D01*
Y175996D02*
Y176196D01*
Y176973D02*
Y177174D01*
Y178760D02*
Y179001D01*
X174100Y171427D02*
Y171677D01*
Y173221D02*
Y173452D01*
Y174154D02*
Y174354D01*
Y175180D02*
Y175399D01*
Y175996D02*
Y176196D01*
Y176973D02*
Y177174D01*
Y178745D02*
Y178988D01*
X174200Y171440D02*
Y171693D01*
Y173251D02*
Y173452D01*
Y174154D02*
Y174354D01*
Y175246D02*
Y175464D01*
Y175996D02*
Y176196D01*
Y176973D02*
Y177174D01*
Y178729D02*
Y178972D01*
X174300Y171454D02*
Y171710D01*
Y173251D02*
Y173452D01*
Y174154D02*
Y174354D01*
Y175312D02*
Y175529D01*
Y175996D02*
Y176196D01*
Y176973D02*
Y177174D01*
Y178714D02*
Y178943D01*
X174400Y171471D02*
Y171731D01*
Y173251D02*
Y173452D01*
Y174154D02*
Y174354D01*
Y175378D02*
Y175595D01*
Y175996D02*
Y176196D01*
Y176973D02*
Y177174D01*
Y178694D02*
Y178915D01*
X174500Y171498D02*
Y171787D01*
Y173251D02*
Y173452D01*
Y174154D02*
Y174354D01*
Y175444D02*
Y175660D01*
Y175996D02*
Y176196D01*
Y176973D02*
Y177174D01*
Y178627D02*
Y178871D01*
X174600Y171548D02*
Y171842D01*
Y173251D02*
Y173452D01*
Y174154D02*
Y174354D01*
Y175510D02*
Y175726D01*
Y175996D02*
Y176196D01*
Y176973D02*
Y177174D01*
Y178560D02*
Y178821D01*
X174700Y171603D02*
Y171898D01*
Y173251D02*
Y173452D01*
Y174154D02*
Y174354D01*
Y175576D02*
Y175791D01*
Y175996D02*
Y176196D01*
Y176973D02*
Y177174D01*
Y178494D02*
Y178754D01*
X174800Y171683D02*
Y171998D01*
Y173251D02*
Y173452D01*
Y174154D02*
Y174354D01*
Y175642D02*
Y175858D01*
Y175996D02*
Y176196D01*
Y176973D02*
Y177174D01*
Y178368D02*
Y178674D01*
X174900Y171770D02*
Y172131D01*
Y173251D02*
Y173452D01*
Y174154D02*
Y174354D01*
Y175708D02*
Y175915D01*
Y175976D02*
Y176196D01*
Y176973D02*
Y177174D01*
Y178188D02*
Y178564D01*
X175000Y171870D02*
Y172337D01*
Y173053D02*
Y173452D01*
Y174154D02*
Y174354D01*
Y175774D02*
Y176196D01*
Y176973D02*
Y177182D01*
Y177780D02*
Y178444D01*
X175100Y172026D02*
Y173267D01*
Y174154D02*
Y174354D01*
Y175840D02*
Y176196D01*
Y176973D02*
Y178217D01*
X175200Y172450D02*
Y172921D01*
X176400Y174130D02*
Y175275D01*
X176500Y174125D02*
Y175275D01*
Y175844D02*
Y176039D01*
Y177692D02*
Y177887D01*
X176600Y174119D02*
Y174297D01*
Y175880D02*
Y176074D01*
Y177654D02*
Y177850D01*
X176700Y174114D02*
Y174292D01*
Y175915D02*
Y176110D01*
Y177615D02*
Y177813D01*
X176800Y174108D02*
Y174287D01*
Y175951D02*
Y176146D01*
Y177577D02*
Y177776D01*
X176900Y174102D02*
Y174283D01*
Y175987D02*
Y176181D01*
Y177539D02*
Y177739D01*
X177000Y174097D02*
Y174278D01*
Y176023D02*
Y176217D01*
Y177501D02*
Y177702D01*
X177100Y174091D02*
Y174273D01*
Y176058D02*
Y176253D01*
Y177463D02*
Y177664D01*
X177200Y174086D02*
Y174268D01*
Y176094D02*
Y176289D01*
Y177425D02*
Y177627D01*
X177300Y174080D02*
Y174264D01*
Y176130D02*
Y176324D01*
Y177386D02*
Y177590D01*
X177400Y174075D02*
Y174271D01*
Y176165D02*
Y176360D01*
Y177348D02*
Y177553D01*
X177500Y174069D02*
Y174910D01*
Y176201D02*
Y176396D01*
Y177310D02*
Y177516D01*
X177600Y174601D02*
Y175110D01*
Y176237D02*
Y176431D01*
Y177272D02*
Y177479D01*
X177700Y174908D02*
Y175222D01*
Y176273D02*
Y176467D01*
Y177234D02*
Y177442D01*
X177800Y175027D02*
Y175289D01*
Y176308D02*
Y176503D01*
Y177195D02*
Y177404D01*
X177900Y175107D02*
Y175329D01*
Y176344D02*
Y176539D01*
Y177157D02*
Y177367D01*
X178000Y175155D02*
Y175352D01*
Y176380D02*
Y176574D01*
Y177119D02*
Y177330D01*
X178100Y175172D02*
Y175374D01*
Y176415D02*
Y176610D01*
Y177081D02*
Y177293D01*
X178200Y175187D02*
Y175379D01*
Y176451D02*
Y176646D01*
Y177043D02*
Y177256D01*
X178300Y175171D02*
Y175359D01*
Y176487D02*
Y176681D01*
Y177005D02*
Y177219D01*
X178400Y175154D02*
Y175339D01*
Y176523D02*
Y176717D01*
Y176966D02*
Y177182D01*
X178500Y175112D02*
Y175319D01*
Y176558D02*
Y176752D01*
Y176944D02*
Y177144D01*
X178600Y175052D02*
Y175255D01*
Y176594D02*
Y176786D01*
Y176929D02*
Y177107D01*
X178700Y174022D02*
Y174094D01*
Y174919D02*
Y175184D01*
Y176630D02*
Y176819D01*
Y176915D02*
Y177070D01*
X178800Y174022D02*
Y174448D01*
Y174604D02*
Y175071D01*
Y176665D02*
Y177033D01*
X178900Y174097D02*
Y174896D01*
Y176701D02*
Y176996D01*
X199300Y171824D02*
Y172266D01*
Y174367D02*
Y175089D01*
X199400Y171774D02*
Y172196D01*
Y174217D02*
Y175289D01*
X199500Y171746D02*
Y172156D01*
Y174067D02*
Y175373D01*
X199600Y171726D02*
Y172116D01*
Y173995D02*
Y175456D01*
X199700Y171706D02*
Y172076D01*
Y173929D02*
Y174571D01*
Y175012D02*
Y175531D01*
X199800Y171686D02*
Y172036D01*
Y173862D02*
Y174391D01*
Y175175D02*
Y175581D01*
X199900Y171666D02*
Y171996D01*
Y173800D02*
Y174291D01*
Y175250D02*
Y175631D01*
X200000Y171646D02*
Y171959D01*
Y173743D02*
Y174226D01*
Y175318D02*
Y175681D01*
X200100Y171644D02*
Y171959D01*
Y173686D02*
Y174166D01*
Y175358D02*
Y175731D01*
X200200Y171644D02*
Y171959D01*
Y173628D02*
Y174106D01*
Y175398D02*
Y175756D01*
X200300Y171651D02*
Y171959D01*
Y173574D02*
Y174040D01*
Y175435D02*
Y175767D01*
X200400Y171662D02*
Y171973D01*
Y173524D02*
Y173973D01*
Y175455D02*
Y175778D01*
X200500Y171674D02*
Y171987D01*
Y173474D02*
Y173906D01*
Y175475D02*
Y175790D01*
X200600Y171685D02*
Y172001D01*
Y173424D02*
Y173848D01*
Y175492D02*
Y175801D01*
X200700Y171696D02*
Y172016D01*
Y173366D02*
Y173810D01*
Y175481D02*
Y175802D01*
X200800Y171717D02*
Y172055D01*
Y173306D02*
Y173773D01*
Y175470D02*
Y175790D01*
X200900Y171755D02*
Y172105D01*
Y173246D02*
Y173735D01*
Y175459D02*
Y175779D01*
X201000Y171792D02*
Y172165D01*
Y173155D02*
Y173698D01*
Y175448D02*
Y175768D01*
X201100Y171830D02*
Y172265D01*
Y173055D02*
Y173624D01*
Y175437D02*
Y175757D01*
X201200Y171867D02*
Y172470D01*
Y172850D02*
Y173524D01*
Y175407D02*
Y175745D01*
X201300Y171956D02*
Y173424D01*
Y175364D02*
Y175728D01*
X201400Y172056D02*
Y173324D01*
Y175321D02*
Y175712D01*
X201500Y172156D02*
Y173224D01*
X201600Y172295D02*
Y173124D01*
X202200Y175433D02*
Y175748D01*
X202300Y175433D02*
Y175748D01*
X202400Y175433D02*
Y175748D01*
X202500Y175433D02*
Y175748D01*
X202600Y175433D02*
Y175748D01*
X202700Y175433D02*
Y175748D01*
X202800Y175433D02*
Y175748D01*
X202900Y175433D02*
Y175748D01*
X203000Y175433D02*
Y175748D01*
X203100Y175433D02*
Y175748D01*
X203200Y175433D02*
Y175748D01*
X203300Y175412D02*
Y175748D01*
X203400Y171704D02*
Y175748D01*
X203500Y171704D02*
Y175748D01*
X203600Y171704D02*
Y175748D01*
X203700Y175421D02*
Y175748D01*
X203800Y175433D02*
Y175748D01*
X203900Y175433D02*
Y175748D01*
X204000Y175433D02*
Y175748D01*
X204100Y175433D02*
Y175748D01*
X204200Y175433D02*
Y175748D01*
X204300Y175433D02*
Y175748D01*
X204400Y175433D02*
Y175748D01*
X204500Y175433D02*
Y175748D01*
X204600Y175433D02*
Y175748D01*
X204700Y175433D02*
Y175748D01*
X204800Y175433D02*
Y175748D01*
X205700Y171704D02*
Y175748D01*
X205800Y171704D02*
Y175748D01*
X205900Y171704D02*
Y175748D01*
X206000Y175293D02*
Y175748D01*
X206100Y175228D02*
Y175748D01*
X206200Y174830D02*
Y175719D01*
X206300Y174604D02*
Y175496D01*
X206400Y174383D02*
Y175273D01*
X206500Y174162D02*
Y175050D01*
X206600Y173941D02*
Y174828D01*
X206700Y173720D02*
Y174605D01*
X206800Y173499D02*
Y174382D01*
X206900Y173279D02*
Y174160D01*
X207000Y173058D02*
Y173937D01*
X207100Y172837D02*
Y173714D01*
X207200Y172616D02*
Y173491D01*
X207300Y172395D02*
Y173269D01*
X207400Y172174D02*
Y173046D01*
X207500Y171954D02*
Y172817D01*
X207600Y171733D02*
Y172563D01*
X207700Y171704D02*
Y172373D01*
X207800Y171737D02*
Y172540D01*
X207900Y171962D02*
Y172752D01*
X208000Y172187D02*
Y172917D01*
X208100Y172412D02*
Y173140D01*
X208200Y172637D02*
Y173362D01*
X208300Y172862D02*
Y173585D01*
X208400Y173087D02*
Y173808D01*
X208500Y173312D02*
Y174031D01*
X208600Y173537D02*
Y174253D01*
X208700Y173762D02*
Y174476D01*
X208800Y173987D02*
Y174699D01*
X208900Y174212D02*
Y174921D01*
X209000Y174437D02*
Y175144D01*
X209100Y174662D02*
Y175367D01*
X209200Y174885D02*
Y175590D01*
X209300Y175235D02*
Y175748D01*
X209400Y175291D02*
Y175748D01*
X209500Y171704D02*
Y175748D01*
X209600Y171704D02*
Y175748D01*
X209700Y171704D02*
Y175748D01*
X210800Y171851D02*
Y172254D01*
X210900Y171808D02*
Y172192D01*
X211000Y171765D02*
Y172129D01*
Y175276D02*
Y175610D01*
X211100Y171722D02*
Y172067D01*
Y175342D02*
Y175653D01*
X211200Y171696D02*
Y172017D01*
Y173657D02*
Y173972D01*
Y175409D02*
Y175696D01*
X211300Y171685D02*
Y172004D01*
Y173657D02*
Y173972D01*
Y175440D02*
Y175739D01*
X211400Y171674D02*
Y171992D01*
Y173657D02*
Y173972D01*
Y175452D02*
Y175757D01*
X211500Y171663D02*
Y171979D01*
Y173656D02*
Y173973D01*
Y175465D02*
Y175768D01*
X211600Y171652D02*
Y171967D01*
Y173644D02*
Y173987D01*
Y175477D02*
Y175780D01*
X211700Y171648D02*
Y171963D01*
Y173631D02*
Y174001D01*
Y175490D02*
Y175791D01*
X211800Y171658D02*
Y171977D01*
Y173619D02*
Y174016D01*
Y175481D02*
Y175802D01*
X211900Y171668D02*
Y171992D01*
Y173606D02*
Y174030D01*
Y175464D02*
Y175800D01*
X212000Y171678D02*
Y172006D01*
Y173588D02*
Y174061D01*
Y175447D02*
Y175787D01*
X212100Y171688D02*
Y172022D01*
Y173555D02*
Y173814D01*
Y173875D02*
Y174094D01*
Y175429D02*
Y175775D01*
X212200Y171698D02*
Y172062D01*
Y173521D02*
Y173771D01*
Y173917D02*
Y174127D01*
Y175379D02*
Y175762D01*
X212300Y171745D02*
Y172102D01*
Y173488D02*
Y173738D01*
Y173950D02*
Y174172D01*
Y175329D02*
Y175749D01*
X212400Y171816D02*
Y172142D01*
Y173406D02*
Y173705D01*
Y173984D02*
Y174305D01*
Y175211D02*
Y175682D01*
X212500Y171888D02*
Y172295D01*
Y173281D02*
Y173664D01*
Y174031D02*
Y174503D01*
Y174961D02*
Y175616D01*
X212600Y171959D02*
Y172463D01*
Y173153D02*
Y173604D01*
Y174111D02*
Y175549D01*
X212700Y172061D02*
Y173544D01*
Y174191D02*
Y175446D01*
X212800Y172181D02*
Y173444D01*
Y174357D02*
Y175321D01*
X212900Y172301D02*
Y173294D01*
Y174744D02*
Y174976D01*
X213000Y172677D02*
Y173055D01*
X214000Y171704D02*
Y172375D01*
X214100Y171704D02*
Y172608D01*
Y175046D02*
Y175428D01*
X214200Y171704D02*
Y172755D01*
Y175146D02*
Y175500D01*
X214300Y171704D02*
Y172028D01*
Y172172D02*
Y172855D01*
Y175217D02*
Y175571D01*
X214400Y171704D02*
Y172018D01*
Y172497D02*
Y172955D01*
Y175267D02*
Y175642D01*
X214500Y171704D02*
Y172018D01*
Y172659D02*
Y173051D01*
Y175317D02*
Y175697D01*
X214600Y171704D02*
Y172018D01*
Y172743D02*
Y173129D01*
Y175367D02*
Y175715D01*
X214700Y171704D02*
Y172018D01*
Y172826D02*
Y173207D01*
Y175417D02*
Y175733D01*
X214800Y171704D02*
Y172018D01*
Y172909D02*
Y173284D01*
Y175445D02*
Y175752D01*
X214900Y171704D02*
Y172018D01*
Y172987D02*
Y173362D01*
Y175465D02*
Y175770D01*
X215000Y171704D02*
Y172018D01*
Y173062D02*
Y173440D01*
Y175485D02*
Y175788D01*
X215100Y171704D02*
Y172018D01*
Y173137D02*
Y173512D01*
Y175482D02*
Y175806D01*
X215200Y171704D02*
Y172018D01*
Y173212D02*
Y173584D01*
Y175462D02*
Y175794D01*
X215300Y171704D02*
Y172018D01*
Y173287D02*
Y173655D01*
Y175442D02*
Y175782D01*
X215400Y171704D02*
Y172018D01*
Y173359D02*
Y173726D01*
Y175408D02*
Y175769D01*
X215500Y171704D02*
Y172018D01*
Y173430D02*
Y173835D01*
Y175358D02*
Y175757D01*
X215600Y171704D02*
Y172018D01*
Y173502D02*
Y173960D01*
Y175307D02*
Y175720D01*
X215700Y171704D02*
Y172018D01*
Y173573D02*
Y174115D01*
Y175179D02*
Y175653D01*
X215800Y171704D02*
Y172018D01*
Y173685D02*
Y174367D01*
Y175038D02*
Y175587D01*
X215900Y171704D02*
Y172018D01*
Y173805D02*
Y175514D01*
X216000Y171704D02*
Y172018D01*
Y173925D02*
Y175364D01*
X216100Y171704D02*
Y172018D01*
Y174154D02*
Y175214D01*
X216200Y171704D02*
Y172018D01*
Y174499D02*
Y174861D01*
X216300Y171704D02*
Y172018D01*
X216400Y171704D02*
Y172018D01*
X217400Y171704D02*
Y175748D01*
X217500Y171704D02*
Y175748D01*
X217600Y171704D02*
Y175748D01*
X217700Y171704D02*
Y175748D01*
X217800Y173539D02*
Y173853D01*
Y175433D02*
Y175748D01*
X217900Y173539D02*
Y173853D01*
Y175433D02*
Y175748D01*
X218000Y173539D02*
Y173853D01*
Y175433D02*
Y175748D01*
X218100Y173539D02*
Y173853D01*
Y175433D02*
Y175748D01*
X218200Y173539D02*
Y173853D01*
Y175433D02*
Y175748D01*
X218300Y173539D02*
Y173853D01*
Y175433D02*
Y175748D01*
X218400Y173539D02*
Y173853D01*
Y175433D02*
Y175748D01*
X218500Y173539D02*
Y173853D01*
Y175433D02*
Y175748D01*
X218600Y173539D02*
Y173853D01*
Y175433D02*
Y175748D01*
X218700Y173539D02*
Y173853D01*
Y175433D02*
Y175748D01*
X218800Y173539D02*
Y173853D01*
Y175433D02*
Y175748D01*
X218900Y173539D02*
Y173853D01*
Y175433D02*
Y175748D01*
X219000Y173539D02*
Y173853D01*
Y175433D02*
Y175748D01*
X219100Y173539D02*
Y173853D01*
Y175433D02*
Y175748D01*
X219200Y173539D02*
Y173853D01*
Y175433D02*
Y175748D01*
X219300Y175433D02*
Y175748D01*
X219800Y172710D02*
Y173096D01*
X219900Y172710D02*
Y173218D01*
X220000Y172710D02*
Y173341D01*
X220100Y172710D02*
Y173463D01*
X220200Y172710D02*
Y173585D01*
X220300Y172710D02*
Y173024D01*
Y173212D02*
Y173708D01*
X220400Y172710D02*
Y173024D01*
Y173332D02*
Y173842D01*
X220500Y172710D02*
Y173024D01*
Y173452D02*
Y173975D01*
X220600Y172710D02*
Y173024D01*
Y173584D02*
Y174108D01*
X220700Y172710D02*
Y173024D01*
Y173718D02*
Y174242D01*
X220800Y172710D02*
Y173024D01*
Y173851D02*
Y174375D01*
X220900Y172710D02*
Y173024D01*
Y173991D02*
Y174521D01*
X221000Y172710D02*
Y173024D01*
Y174141D02*
Y174671D01*
X221100Y172710D02*
Y173024D01*
Y174291D02*
Y174821D01*
X221200Y172710D02*
Y173024D01*
Y174441D02*
Y174971D01*
X221300Y172710D02*
Y173024D01*
Y174609D02*
Y175121D01*
X221400Y172710D02*
Y173024D01*
Y174781D02*
Y175321D01*
X221500Y172710D02*
Y173024D01*
Y174952D02*
Y175521D01*
X221600Y172710D02*
Y173024D01*
Y175124D02*
Y175721D01*
X221700Y172701D02*
Y173033D01*
Y175187D02*
Y175807D01*
X221800Y171704D02*
Y175807D01*
X221900Y171704D02*
Y175807D01*
X222000Y171704D02*
Y175807D01*
X222100Y172682D02*
Y173052D01*
X222200Y172710D02*
Y173024D01*
X222300Y172710D02*
Y173024D01*
X222400Y172710D02*
Y173024D01*
X222500Y172710D02*
Y173024D01*
X222600Y172710D02*
Y173024D01*
X241500Y284976D02*
Y284997D01*
Y287833D02*
Y287854D01*
X241600Y282479D02*
Y282794D01*
Y284538D02*
Y285464D01*
Y286124D02*
Y286369D01*
Y287395D02*
Y288321D01*
X241700Y282442D02*
Y282830D01*
Y284398D02*
Y284716D01*
Y285296D02*
Y285539D01*
Y286127D02*
Y286366D01*
Y287255D02*
Y287573D01*
Y288153D02*
Y288396D01*
X241800Y282405D02*
Y282566D01*
Y282676D02*
Y282866D01*
Y284308D02*
Y284492D01*
Y285463D02*
Y285539D01*
Y286253D02*
Y286268D01*
Y287165D02*
Y287349D01*
Y288320D02*
Y288396D01*
X241900Y282368D02*
Y282552D01*
Y282709D02*
Y282901D01*
Y284225D02*
Y284432D01*
Y287082D02*
Y287289D01*
X242000Y282331D02*
Y282538D01*
Y282742D02*
Y282937D01*
Y284189D02*
Y284375D01*
Y287046D02*
Y287232D01*
X242100Y282294D02*
Y282508D01*
Y282778D02*
Y282973D01*
Y284167D02*
Y284355D01*
Y287024D02*
Y287212D01*
X242200Y282256D02*
Y282470D01*
Y282814D02*
Y283008D01*
Y284144D02*
Y284336D01*
Y287002D02*
Y287193D01*
X242300Y282219D02*
Y282432D01*
Y282850D02*
Y283044D01*
Y284146D02*
Y284351D01*
Y287003D02*
Y287209D01*
X242400Y282182D02*
Y282394D01*
Y282885D02*
Y283080D01*
Y284162D02*
Y284368D01*
Y287020D02*
Y287225D01*
X242500Y282145D02*
Y282356D01*
Y282921D02*
Y283116D01*
Y284207D02*
Y284418D01*
Y287064D02*
Y287275D01*
X242600Y282108D02*
Y282318D01*
Y282957D02*
Y283151D01*
Y284273D02*
Y284498D01*
Y287131D02*
Y287355D01*
X242700Y282071D02*
Y282279D01*
Y282992D02*
Y283187D01*
Y284388D02*
Y284673D01*
Y287245D02*
Y287530D01*
X242800Y282034D02*
Y282241D01*
Y283028D02*
Y283223D01*
Y284613D02*
Y285275D01*
Y287470D02*
Y288133D01*
X242900Y281996D02*
Y282203D01*
Y283064D02*
Y283258D01*
Y284731D02*
Y285275D01*
Y287588D02*
Y288133D01*
X243000Y281959D02*
Y282165D01*
Y283100D02*
Y283294D01*
Y284481D02*
Y284761D01*
Y287338D02*
Y287618D01*
X243100Y281922D02*
Y282127D01*
Y283135D02*
Y283330D01*
Y284356D02*
Y284551D01*
Y287213D02*
Y287408D01*
X243200Y281885D02*
Y282088D01*
Y283171D02*
Y283366D01*
Y284288D02*
Y284476D01*
Y287145D02*
Y287333D01*
X243300Y281848D02*
Y282050D01*
Y283207D02*
Y283401D01*
Y284248D02*
Y284438D01*
Y287105D02*
Y287295D01*
X243400Y281811D02*
Y282012D01*
Y283242D02*
Y283437D01*
Y284230D02*
Y284418D01*
Y287087D02*
Y287275D01*
X243500Y281774D02*
Y281974D01*
Y283278D02*
Y283473D01*
Y284213D02*
Y284422D01*
Y287071D02*
Y287279D01*
X243600Y281736D02*
Y281936D01*
Y283314D02*
Y283508D01*
Y284222D02*
Y284442D01*
Y287080D02*
Y287299D01*
X243700Y281699D02*
Y281898D01*
Y283350D02*
Y283544D01*
Y284237D02*
Y284478D01*
Y287094D02*
Y287335D01*
X243800Y281662D02*
Y281859D01*
Y283385D02*
Y283580D01*
Y284278D02*
Y284528D01*
Y285422D02*
Y285426D01*
Y287135D02*
Y287385D01*
Y288279D02*
Y288283D01*
X243900Y281625D02*
Y281821D01*
Y283421D02*
Y283616D01*
Y284358D02*
Y284703D01*
Y285271D02*
Y285426D01*
Y287215D02*
Y287560D01*
Y288128D02*
Y288283D01*
X244000Y281588D02*
Y281783D01*
Y283457D02*
Y283651D01*
Y284487D02*
Y285361D01*
Y287344D02*
Y288218D01*
X244100Y284834D02*
Y284920D01*
Y287691D02*
Y287777D01*
X245300Y282098D02*
Y282869D01*
Y283646D02*
Y283954D01*
Y285488D02*
Y285689D01*
Y286734D02*
Y287584D01*
X245400Y281561D02*
Y282869D01*
Y283646D02*
Y284020D01*
Y285488D02*
Y285689D01*
Y286514D02*
Y287872D01*
X245500Y281365D02*
Y281897D01*
Y282669D02*
Y282869D01*
Y283646D02*
Y284086D01*
Y285488D02*
Y285689D01*
Y286390D02*
Y286707D01*
Y287615D02*
Y288000D01*
X245600Y281245D02*
Y281605D01*
Y282669D02*
Y282869D01*
Y283646D02*
Y283848D01*
Y283947D02*
Y284152D01*
Y285488D02*
Y285689D01*
Y286390D02*
Y286591D01*
Y287748D02*
Y288100D01*
X245700Y281146D02*
Y281425D01*
Y282669D02*
Y282869D01*
Y283646D02*
Y283847D01*
Y284003D02*
Y284219D01*
Y285488D02*
Y285689D01*
Y286390D02*
Y286591D01*
Y287882D02*
Y288181D01*
X245800Y281066D02*
Y281331D01*
Y282669D02*
Y282869D01*
Y283646D02*
Y283847D01*
Y284069D02*
Y284285D01*
Y285488D02*
Y285689D01*
Y286390D02*
Y286591D01*
Y287960D02*
Y288258D01*
X245900Y281008D02*
Y281264D01*
Y282669D02*
Y282869D01*
Y283646D02*
Y283847D01*
Y284135D02*
Y284351D01*
Y285488D02*
Y285689D01*
Y286390D02*
Y286591D01*
Y288015D02*
Y288308D01*
X246000Y280958D02*
Y281197D01*
Y282669D02*
Y282869D01*
Y283646D02*
Y283847D01*
Y284200D02*
Y284417D01*
Y285488D02*
Y285689D01*
Y286390D02*
Y286591D01*
Y288071D02*
Y288358D01*
X246100Y280920D02*
Y281140D01*
Y282669D02*
Y282869D01*
Y283646D02*
Y283847D01*
Y284266D02*
Y284483D01*
Y285488D02*
Y285689D01*
Y286390D02*
Y286591D01*
Y288120D02*
Y288376D01*
X246200Y280892D02*
Y281124D01*
Y282669D02*
Y282869D01*
Y283646D02*
Y283847D01*
Y284331D02*
Y284549D01*
Y285488D02*
Y285689D01*
Y286390D02*
Y286591D01*
Y288137D02*
Y288393D01*
X246300Y280863D02*
Y281109D01*
Y282669D02*
Y282869D01*
Y283646D02*
Y283847D01*
Y284397D02*
Y284615D01*
Y285488D02*
Y285689D01*
Y286390D02*
Y286591D01*
Y288154D02*
Y288406D01*
X246400Y280851D02*
Y281093D01*
Y282669D02*
Y282869D01*
Y283646D02*
Y283847D01*
Y284462D02*
Y284681D01*
Y285488D02*
Y285689D01*
Y286390D02*
Y287155D01*
Y288170D02*
Y288419D01*
X246500Y280838D02*
Y281078D01*
Y282669D02*
Y282869D01*
Y283646D02*
Y283847D01*
Y284527D02*
Y284747D01*
Y285488D02*
Y285689D01*
Y286390D02*
Y287155D01*
Y288187D02*
Y288431D01*
X246600Y280828D02*
Y281066D01*
Y282669D02*
Y282869D01*
Y283646D02*
Y283847D01*
Y284593D02*
Y284813D01*
Y285488D02*
Y285689D01*
Y288187D02*
Y288422D01*
X246700Y280841D02*
Y281083D01*
Y282669D02*
Y282869D01*
Y283646D02*
Y283847D01*
Y284658D02*
Y284879D01*
Y285488D02*
Y285689D01*
Y288169D02*
Y288410D01*
X246800Y280853D02*
Y281099D01*
Y282669D02*
Y282869D01*
Y283646D02*
Y283847D01*
Y284724D02*
Y284945D01*
Y285488D02*
Y285689D01*
Y288151D02*
Y288397D01*
X246900Y280866D02*
Y281116D01*
Y282669D02*
Y282869D01*
Y283646D02*
Y283847D01*
Y284789D02*
Y285011D01*
Y285488D02*
Y285689D01*
Y288132D02*
Y288369D01*
X247000Y280880D02*
Y281133D01*
Y282669D02*
Y282869D01*
Y283646D02*
Y283847D01*
Y284855D02*
Y285077D01*
Y285488D02*
Y285689D01*
Y288107D02*
Y288341D01*
X247100Y280895D02*
Y281168D01*
Y282669D02*
Y282869D01*
Y283646D02*
Y283847D01*
Y284920D02*
Y285144D01*
Y285488D02*
Y285689D01*
Y288047D02*
Y288304D01*
X247200Y280931D02*
Y281231D01*
Y282669D02*
Y282869D01*
Y283646D02*
Y283847D01*
Y284986D02*
Y285210D01*
Y285488D02*
Y285689D01*
Y287987D02*
Y288254D01*
X247300Y280981D02*
Y281293D01*
Y282669D02*
Y282869D01*
Y283646D02*
Y283847D01*
Y285051D02*
Y285276D01*
Y285488D02*
Y285689D01*
Y287927D02*
Y288200D01*
X247400Y281056D02*
Y281380D01*
Y282669D02*
Y282869D01*
Y283646D02*
Y283847D01*
Y285117D02*
Y285336D01*
Y285488D02*
Y285689D01*
Y287850D02*
Y288134D01*
X247500Y281161D02*
Y281560D01*
Y282669D02*
Y282869D01*
Y283646D02*
Y283847D01*
Y285182D02*
Y285386D01*
Y285488D02*
Y285689D01*
Y287716D02*
Y288061D01*
X247600Y281311D02*
Y281846D01*
Y282669D02*
Y282869D01*
Y283646D02*
Y283847D01*
Y285247D02*
Y285689D01*
Y286428D02*
Y286583D01*
Y287583D02*
Y287911D01*
X247700Y281493D02*
Y282869D01*
Y283646D02*
Y283847D01*
Y285313D02*
Y285689D01*
Y286428D02*
Y287730D01*
X247800Y282028D02*
Y282869D01*
Y283646D02*
Y283847D01*
Y285378D02*
Y285689D01*
Y286642D02*
Y287448D01*
*
G04 PC Custom Flashes*
G04 Layer Name 20220803_3_copper_2.pcb - flashes*
%LPD*%
*
*
G04 PC Circuitry*
G04 Layer Name 20220803_3_copper_2.pcb - circuitry*
%LPD*%
*
G54D10*
G54D24*
X318578Y138676D02*
Y198912D01*
X362672*
Y138676*
X318578*
X203227Y139370D02*
G75*
G03X203227I-22361J0D01*
G01X162866Y150370D02*
X168866D01*
X165866Y153370D02*
Y147370D01*
X190866Y150370D02*
X197866D01*
X296375Y126565D02*
X290320D01*
Y115935*
X308430*
Y126565*
X296375*
Y115935*
X254408Y139370D02*
G03X254408I-22361J0D01*
G01X214047Y150370D02*
X220047D01*
X217047Y153370D02*
Y147370D01*
X242047Y150370D02*
X249047D01*
X329026Y328801D02*
X359026D01*
Y304801*
X329026*
Y328801*
X341026Y306801D02*
X348026D01*
Y302801*
X341026*
Y306801*
X100000Y100000D02*
Y336220D01*
X414961*
Y100000*
X100000*
G54D25*
X344970Y135861D02*
X378829D01*
Y115389*
X344970*
X338671Y121688*
Y129562*
X344970Y135861*
X144144Y319606D02*
Y320394D01*
X352530Y202264D02*
X318671D01*
Y222736*
X352530*
X358829Y216437*
Y208563*
X352530Y202264*
X405655Y201639D02*
X371796D01*
Y222111*
X405655*
X411954Y215812*
Y207938*
X405655Y201639*
X105315Y255295D02*
X144685D01*
Y274587*
X110236*
X105315Y269075*
Y255295*
Y235295D02*
X144685D01*
Y254587*
X110236*
X105315Y249075*
Y235295*
Y215295D02*
X144685D01*
Y234587*
X110236*
X105315Y229075*
Y215295*
Y195295D02*
X144685D01*
Y214587*
X110236*
X105315Y209075*
Y195295*
Y175295D02*
X144685D01*
Y194587*
X110236*
X105315Y189075*
Y175295*
Y155295D02*
X144685D01*
Y174587*
X110236*
X105315Y169075*
Y155295*
Y135295D02*
X144685D01*
Y154587*
X110236*
X105315Y149075*
Y135295*
X275315Y272795D02*
X314685D01*
Y292087*
X280236*
X275315Y286575*
Y272795*
Y252795D02*
X314685D01*
Y272087*
X280236*
X275315Y266575*
Y252795*
Y232795D02*
X314685D01*
Y252087*
X280236*
X275315Y246575*
Y232795*
Y212795D02*
X314685D01*
Y232087*
X280236*
X275315Y226575*
Y212795*
Y192795D02*
X314685D01*
Y212087*
X280236*
X275315Y206575*
Y192795*
Y172795D02*
X314685D01*
Y192087*
X280236*
X275315Y186575*
Y172795*
Y152795D02*
X314685D01*
Y172087*
X280236*
X275315Y166575*
Y152795*
Y132795D02*
X314685D01*
Y152087*
X280236*
X275315Y146575*
Y132795*
X150236Y287421D02*
X152736Y289921D01*
X167736*
X170236Y287421*
Y172421*
X167736Y169921*
X152736*
X150236Y172421*
Y287421*
X250236D02*
X252736Y289921D01*
X267736*
X270236Y287421*
Y172421*
X267736Y169921*
X252736*
X250236Y172421*
Y287421*
X190236Y177421D02*
X230236D01*
Y169921*
X190236*
Y177421*
X182446Y309641D02*
Y310428D01*
X202131Y309641D02*
Y310428D01*
X275315Y305295D02*
X314685D01*
Y324587*
X280236*
X275315Y319075*
Y305295*
X221816Y309641D02*
Y310428D01*
X318784Y276270D02*
X367997D01*
Y295561*
X323706*
X318784Y290049*
Y276270*
Y252648D02*
X367997D01*
Y271939*
X323706*
X318784Y266427*
Y252648*
X241501Y309641D02*
Y310428D01*
X370940Y228420D02*
X410310D01*
Y247712*
X375861*
X370940Y242200*
Y228420*
X318440D02*
X357810D01*
Y247712*
X323361*
X318440Y242200*
Y228420*
X105315Y275295D02*
X144685D01*
Y294587*
X110236*
X105315Y289075*
Y275295*
X124311Y112500D02*
G03X124311I-11811J0D01*
G01X414311D02*
G03X414311I-11811J0D01*
G01X414961Y324409D02*
G03X414961I-11811J0D01*
G01X123622D02*
G03X123622I-11811J0D01*
G54D26*
G01X149656Y317047D02*
X137844D01*
Y322953*
X149656*
Y317047*
X137844D02*
X136860D01*
Y322953*
X137844*
Y317047*
X144537Y318819D02*
Y321181D01*
X143356Y320000*
X144537Y318819*
X142963D02*
Y321181D01*
X156594Y322953D02*
X168406D01*
Y317047*
X156594*
Y322953*
X187958Y307082D02*
X176147D01*
Y312987*
X187958*
Y307082*
X176147D02*
X175162D01*
Y312987*
X176147*
Y307082*
X182840Y308853D02*
Y311216D01*
X181658Y310034*
X182840Y308853*
X181265D02*
Y311216D01*
X207643Y307082D02*
X195832D01*
Y312987*
X207643*
Y307082*
X195832D02*
X194847D01*
Y312987*
X195832*
Y307082*
X202525Y308853D02*
Y311216D01*
X201344Y310034*
X202525Y308853*
X200950D02*
Y311216D01*
X227328Y307082D02*
X215517D01*
Y312987*
X227328*
Y307082*
X215517D02*
X214532D01*
Y312987*
X215517*
Y307082*
X222210Y308853D02*
Y311216D01*
X221029Y310034*
X222210Y308853*
X220635D02*
Y311216D01*
X214892Y322426D02*
X226703D01*
Y316521*
X214892*
Y322426*
X175522D02*
X187333D01*
Y316521*
X175522*
Y322426*
X195207D02*
X207018D01*
Y316521*
X195207*
Y322426*
X247013Y307082D02*
X235202D01*
Y312987*
X247013*
Y307082*
X235202D02*
X234218D01*
Y312987*
X235202*
Y307082*
X241895Y308853D02*
Y311216D01*
X240714Y310034*
X241895Y308853*
X240320D02*
Y311216D01*
X234577Y322426D02*
X246388D01*
Y316521*
X234577*
Y322426*
X201608Y161927D02*
X200266Y159343D01*
X202279*
X201608Y161927D02*
Y158051D01*
X205366Y161927D02*
X204024Y158051D01*
X203487Y161927D02*
X205366D01*
X207379D02*
X206977Y161742D01*
X206708Y161188*
X206574Y160266*
Y159712*
X206708Y158789*
X206977Y158236*
X207379Y158051*
X207648*
X208050Y158236*
X208319Y158789*
X208453Y159712*
Y160266*
X208319Y161188*
X208050Y161742*
X207648Y161927*
X207379*
X209661Y160635D02*
Y158789D01*
X209795Y158236*
X210064Y158051*
X210466*
X210735Y158236*
X211137Y158789*
Y160635D02*
Y158051D01*
X212345Y161927D02*
Y158051D01*
Y161927D02*
X214090D01*
X212345Y160081D02*
X213419D01*
X267233Y123007D02*
X266965Y123376D01*
X266562Y123561*
X266025*
X265623Y123376*
X265354Y123007*
Y122638*
X265489Y122269*
X265623Y122084*
X265891Y121900*
X266696Y121531*
X266965Y121346*
X267099Y121161*
X267233Y120792*
Y120239*
X266965Y119870*
X266562Y119685*
X266025*
X265623Y119870*
X265354Y120239*
X268441Y123561D02*
Y119685D01*
Y123561D02*
X269515Y119685D01*
X270589Y123561D02*
X269515Y119685D01*
X270589Y123561D02*
Y119685D01*
X272065Y123561D02*
X273542D01*
X272736Y122084*
X273139*
X273407Y121900*
X273542Y121715*
X273676Y121161*
Y120792*
X273542Y120239*
X273273Y119870*
X272870Y119685*
X272468*
X272065Y119870*
X271931Y120054*
X271797Y120423*
X276226Y123561D02*
X274884Y120977D01*
X276897*
X276226Y123561D02*
Y119685D01*
X278910Y123561D02*
X278508Y123376D01*
X278239Y122822*
X278105Y121900*
Y121346*
X278239Y120423*
X278508Y119870*
X278910Y119685*
X279179*
X279581Y119870*
X279850Y120423*
X279984Y121346*
Y121900*
X279850Y122822*
X279581Y123376*
X279179Y123561*
X278910*
X282266D02*
X281192Y119685D01*
X282266Y123561D02*
X283339Y119685D01*
X281594Y120977D02*
X282937D01*
X380000Y131887D02*
X380268Y132072D01*
X380671Y132625*
Y128750*
X382013Y131703D02*
Y131887D01*
X382147Y132256*
X382282Y132441*
X382550Y132625*
X383087*
X383355Y132441*
X383490Y132256*
X383624Y131887*
Y131518*
X383490Y131149*
X383221Y130595*
X381879Y128750*
X383758*
X384966Y132625D02*
X386040Y128750D01*
X387113Y132625D02*
X386040Y128750D01*
X391408Y132625D02*
Y128750D01*
Y132625D02*
X392616D01*
X393019Y132441*
X393153Y132256*
X393287Y131887*
Y131518*
X393153Y131149*
X393019Y130965*
X392616Y130780*
X391408D02*
X392616D01*
X393019Y130595*
X393153Y130411*
X393287Y130042*
Y129488*
X393153Y129119*
X393019Y128935*
X392616Y128750*
X391408*
X395569Y132625D02*
X394495Y128750D01*
X395569Y132625D02*
X396643Y128750D01*
X394898Y130042D02*
X396240D01*
X398790Y132625D02*
Y128750D01*
X397851Y132625D02*
X399730D01*
X401877D02*
Y128750D01*
X400938Y132625D02*
X402817D01*
X404025D02*
Y128750D01*
Y132625D02*
X405770D01*
X404025Y130780D02*
X405098D01*
X404025Y128750D02*
X405770D01*
X406977Y132625D02*
Y128750D01*
Y132625D02*
X408185D01*
X408588Y132441*
X408722Y132256*
X408856Y131887*
Y131518*
X408722Y131149*
X408588Y130965*
X408185Y130780*
X406977*
X407917D02*
X408856Y128750D01*
X410064Y132625D02*
X411138Y130780D01*
Y128750*
X412212Y132625D02*
X411138Y130780D01*
G54D27*
X333048Y326301D02*
X332980Y326489D01*
X332844Y326676*
X332707Y326770*
X332435*
X332298Y326676*
X332162Y326489*
X332094Y326301*
X332026Y326020*
Y325551*
X332094Y325270*
X332162Y325082*
X332298Y324895*
X332435Y324801*
X332707*
X332844Y324895*
X332980Y325082*
X333048Y325270*
Y325551*
X332707D02*
X333048D01*
X333662Y326770D02*
Y324801D01*
Y326770D02*
X334616Y324801D01*
Y326770D02*
Y324801D01*
X335230Y326770D02*
Y324801D01*
Y326770D02*
X335707D01*
X335912Y326676*
X336048Y326489*
X336116Y326301*
X336116D02*
X336185Y326020D01*
Y325551*
X336116Y325270*
X336116D02*
X336048Y325082D01*
X335912Y324895*
X335707Y324801*
X335230*
X351026Y316770D02*
Y314801D01*
Y316770D02*
X351980Y314801D01*
Y316770D02*
Y314801D01*
X352594Y316770D02*
Y314801D01*
Y316770D02*
X353207D01*
X353412Y316676*
X353480Y316582*
X353548Y316395*
Y316207*
X353480Y316020*
X353412Y315926*
X353207Y315832*
X352594*
X353071D02*
X353548Y314801D01*
X355116Y316489D02*
X354980Y316676D01*
X354776Y316770*
X354503*
X354298Y316676*
X354162Y316489*
Y316301*
X354230Y316114*
X354298Y316020*
X354435Y315926*
X354844Y315739*
X354980Y315645*
X355048Y315551*
X355116Y315364*
X355116D02*
Y315082D01*
X355116D02*
X354980Y314895D01*
X354776Y314801*
X354503*
X354298Y314895*
X354162Y315082*
X356207Y316770D02*
Y314801D01*
X355730Y316770D02*
X356685D01*
X352162Y326770D02*
X352912D01*
X352503Y326020*
X352707*
X352844Y325926*
X352912Y325832*
X352980Y325551*
Y325364*
X352912Y325082*
X352776Y324895*
X352571Y324801*
X352366*
X352366D02*
X352162Y324895D01*
X352094Y324989*
X352026Y325176*
X353594Y326770D02*
X354139Y324801D01*
X354685Y326770D02*
X354139Y324801D01*
X355435Y326770D02*
X356185D01*
X355776Y326020*
X355980*
X356116Y325926*
X356116D02*
X356185Y325832D01*
X356253Y325551*
Y325364*
X356185Y325082*
X356048Y324895*
X355844Y324801*
X355639*
X355435Y324895*
X355366Y324989*
X355366D02*
X355298Y325176D01*
X341980Y326489D02*
X341844Y326676D01*
X341639Y326770*
X341366*
X341366D02*
X341162Y326676D01*
X341026Y326489*
Y326301*
X341094Y326114*
X341162Y326020*
X341298Y325926*
X341707Y325739*
X341844Y325645*
X341912Y325551*
X341980Y325364*
Y325082*
X341844Y324895*
X341639Y324801*
X341366*
X341366D02*
X341162Y324895D01*
X341026Y325082*
X342594Y326770D02*
X342935Y324801D01*
X343276Y326770D02*
X342935Y324801D01*
X343276Y326770D02*
X343616Y324801D01*
X343957Y326770D02*
X343616Y324801D01*
X345594Y326301D02*
X345526Y326489D01*
X345389Y326676*
X345253Y326770*
X344980*
X344844Y326676*
X344707Y326489*
X344639Y326301*
X344571Y326020*
Y325551*
X344639Y325270*
X344707Y325082*
X344844Y324895*
X344980Y324801*
X345253*
X345389Y324895*
X345526Y325082*
X345594Y325270*
X346207Y326770D02*
Y324801D01*
X347026*
X347639Y326770D02*
Y324801D01*
X348594Y326770D02*
X347639Y325457D01*
X347980Y325926D02*
X348594Y324801D01*
X341980Y316489D02*
X341844Y316676D01*
X341639Y316770*
X341366*
X341366D02*
X341162Y316676D01*
X341026Y316489*
Y316301*
X341094Y316114*
X341162Y316020*
X341298Y315926*
X341707Y315739*
X341844Y315645*
X341912Y315551*
X341980Y315364*
Y315082*
X341844Y314895*
X341639Y314801*
X341366*
X341366D02*
X341162Y314895D01*
X341026Y315082*
X342594Y316770D02*
X342935Y314801D01*
X343276Y316770D02*
X342935Y314801D01*
X343276Y316770D02*
X343616Y314801D01*
X343957Y316770D02*
X343616Y314801D01*
X344571Y316770D02*
Y314801D01*
Y316770D02*
X345048D01*
X345253Y316676*
X345389Y316489*
X345457Y316301*
X345526Y316020*
Y315551*
X345457Y315270*
X345389Y315082*
X345253Y314895*
X345048Y314801*
X344571*
X346139Y316770D02*
Y314801D01*
X347162Y316770D02*
X347026Y316676D01*
X346889Y316489*
X346821Y316301*
X346753Y316020*
Y315551*
X346821Y315270*
X346889Y315082*
X347026Y314895*
X347162Y314801*
X347435*
X347571Y314895*
X347707Y315082*
X347776Y315270*
X347844Y315551*
Y316020*
X347776Y316301*
X347707Y316489*
X347571Y316676*
X347435Y316770*
X347162*
X332162D02*
X332912D01*
X332503Y316020*
X332707*
X332844Y315926*
X332912Y315832*
X332980Y315551*
Y315364*
X332912Y315082*
X332776Y314895*
X332571Y314801*
X332366*
X332366D02*
X332162Y314895D01*
X332094Y314989*
X332026Y315176*
X333594Y316770D02*
X334139Y314801D01*
X334685Y316770D02*
X334139Y314801D01*
X335435Y316770D02*
X336185D01*
X335776Y316020*
X335980*
X336116Y315926*
X336116D02*
X336185Y315832D01*
X336253Y315551*
Y315364*
X336185Y315082*
X336048Y314895*
X335844Y314801*
X335639*
X335435Y314895*
X335366Y314989*
X335366D02*
X335298Y315176D01*
G54D28*
X170625Y331526D02*
Y326875D01*
Y331526D02*
X172075D01*
X172558Y331304*
X172719Y331083*
X172880Y330640*
Y330197*
X172719Y329754*
X172558Y329532*
X172075Y329311*
X170625*
X171752D02*
X172880Y326875D01*
X175296Y331526D02*
X174974Y331304D01*
X174651Y330861*
X174490Y330418*
X174329Y329754*
Y328647*
X174490Y327982*
X174651Y327539*
X174974Y327096*
X175296Y326875*
X175940*
X176262Y327096*
X176584Y327539*
X176745Y327982*
X176906Y328647*
Y329754*
X176745Y330418*
X176584Y330861*
X176262Y331304*
X175940Y331526*
X175296*
X178517Y329975D02*
X178356Y329754D01*
X178517Y329532*
X178678Y329754*
X178517Y329975*
Y327318D02*
X178356Y327096D01*
X178517Y326875*
X178678Y327096*
X178517Y327318*
X180128Y331526D02*
Y326875D01*
Y331526D02*
X181577D01*
X182060Y331304*
X182221Y331083*
X182382Y330640*
Y330197*
X182221Y329754*
X182060Y329532*
X181577Y329311*
X180128D02*
X181577D01*
X182060Y329090*
X182221Y328868*
X182382Y328425*
Y327761*
X182221Y327318*
X182060Y327096*
X181577Y326875*
X180128*
X183832Y331526D02*
Y326875D01*
X186409Y331526D02*
Y326875D01*
X185281Y331526D02*
X187536D01*
X192690Y330640D02*
X193012Y330861D01*
X193495Y331526*
Y326875*
X196878Y330861D02*
X196717Y331304D01*
X196233Y331526*
X195911*
X195428Y331304*
X195106Y330640*
X194945Y329532*
Y328425*
X195106Y327539*
X195428Y327096*
X195911Y326875*
X196072*
X196556Y327096*
X196878Y327539*
X197039Y328204*
Y328425*
X196878Y329090*
X196556Y329532*
X196072Y329754*
X195911*
X195428Y329532*
X195106Y329090*
X194945Y328425*
X198971Y331526D02*
Y327761D01*
X199133Y327096*
X199455Y326875*
X199777*
X198488Y329975D02*
X199616D01*
X201226Y331526D02*
Y326875D01*
Y329090D02*
X201709Y329754D01*
X202032Y329975*
X202515*
X202837Y329754*
X202998Y329090*
Y326875*
X208152Y331526D02*
X208957Y326875D01*
X209762Y331526D02*
X208957Y326875D01*
X209762Y331526D02*
X210568Y326875D01*
X211373Y331526D02*
X210568Y326875D01*
X213628Y329975D02*
X213306Y329754D01*
X212984Y329311*
X212823Y328647*
Y328204*
X212984Y327539*
X213306Y327096*
X213628Y326875*
X214111*
X214433Y327096*
X214755Y327539*
X214916Y328204*
Y328647*
X214755Y329311*
X214433Y329754*
X214111Y329975*
X213628*
X217171D02*
X216849Y329754D01*
X216527Y329311*
X216366Y328647*
Y328204*
X216527Y327539*
X216849Y327096*
X217171Y326875*
X217654*
X217976Y327096*
X218299Y327539*
X218460Y328204*
Y328647*
X218299Y329311*
X217976Y329754*
X217654Y329975*
X217171*
X219909Y331526D02*
Y326875D01*
Y329311D02*
X220231Y329754D01*
X220553Y329975*
X221037*
X221359Y329754*
X221681Y329311*
X221842Y328647*
Y328204*
X221681Y327539*
X221359Y327096*
X221037Y326875*
X220553*
X220231Y327096*
X219909Y327539*
X223291Y331526D02*
X223452Y331304D01*
X223614Y331526*
X223452Y331747*
X223291Y331526*
X223452Y329975D02*
Y326875D01*
X225063Y329975D02*
Y326875D01*
Y329090D02*
X225546Y329754D01*
X225868Y329975*
X226352*
X226674Y329754*
X226835Y329090*
Y326875*
X231989Y331526D02*
Y326875D01*
X234243Y331526D02*
X231989Y328425D01*
X232794Y329532D02*
X234243Y326875D01*
X236498Y329975D02*
X236176Y329754D01*
X235854Y329311*
X235693Y328647*
Y328204*
X235854Y327539*
X236176Y327096*
X236498Y326875*
X236981*
X237304Y327096*
X237626Y327539*
X237787Y328204*
Y328647*
X237626Y329311*
X237304Y329754*
X236981Y329975*
X236498*
X239236Y331526D02*
Y326875D01*
Y329090D02*
X239719Y329754D01*
X240042Y329975*
X240525*
X240847Y329754*
X241008Y329090*
Y326875*
X107036Y302918D02*
Y303140D01*
X107197Y303583*
X107358Y303804*
X107680Y304026*
X108325*
X108647Y303804*
X108808Y303583*
X108969Y303140*
Y302697*
X108808Y302254*
X108486Y301590*
X106875Y299375*
X109130*
X111546Y304026D02*
X111063Y303804D01*
X110740Y303140*
X110579Y302032*
Y301368*
X110740Y300261*
X111063Y299596*
X111546Y299375*
X111868*
X112351Y299596*
X112673Y300261*
X112834Y301368*
Y302032*
X112673Y303140*
X112351Y303804*
X111868Y304026*
X111546*
X114445Y302918D02*
Y303140D01*
X114606Y303583*
X114767Y303804*
X115089Y304026*
X115733*
X116055Y303804*
X116216Y303583*
X116378Y303140*
Y302697*
X116216Y302254*
X115894Y301590*
X114284Y299375*
X116539*
X118149Y302918D02*
Y303140D01*
X118310Y303583*
X118471Y303804*
X118793Y304026*
X119438*
X119760Y303804*
X119921Y303583*
X120082Y303140*
Y302697*
X119921Y302254*
X119599Y301590*
X117988Y299375*
X120243*
X127652Y303361D02*
X127330Y303804D01*
X126846Y304026*
X126202*
X125719Y303804*
X125397Y303361*
Y302918*
X125558Y302475*
X125719Y302254*
X126041Y302032*
X127007Y301590*
X127330Y301368*
X127491Y301147*
X127652Y300704*
Y300039*
X127330Y299596*
X126846Y299375*
X126202*
X125719Y299596*
X125397Y300039*
X129101Y304026D02*
Y299375D01*
Y304026D02*
X130551D01*
X131034Y303804*
X131195Y303583*
X131356Y303140*
Y302697*
X131195Y302254*
X131034Y302032*
X130551Y301811*
X129101*
X130229D02*
X131356Y299375D01*
X135221Y302918D02*
X135060Y303361D01*
X134738Y303804*
X134416Y304026*
X133772*
X133450Y303804*
X133128Y303361*
X132967Y302918*
X132806Y302254*
Y301147*
X132967Y300482*
X133128Y300039*
X133450Y299596*
X133772Y299375*
X134416*
X134738Y299596*
X135060Y300039*
X135221Y300482*
X140375Y304026D02*
Y299375D01*
X141825Y304026D02*
Y299375D01*
Y304026D02*
X143274D01*
X143758Y303804*
X143919Y303583*
X144080Y303140*
Y302697*
X143919Y302254*
X143758Y302032*
X143274Y301811*
X141825*
X142952D02*
X144080Y299375D01*
X147945Y302918D02*
X147784Y303361D01*
X147462Y303804*
X147140Y304026*
X146496*
X146173Y303804*
X145851Y303361*
X145690Y302918*
X145529Y302254*
Y301147*
X145690Y300482*
X145851Y300039*
X146173Y299596*
X146496Y299375*
X147140*
X147462Y299596*
X147784Y300039*
X147945Y300482*
X155354Y303361D02*
X155032Y303804D01*
X154549Y304026*
X153904*
X153421Y303804*
X153099Y303361*
Y302918*
X153260Y302475*
X153421Y302254*
X153743Y302032*
X154710Y301590*
X155032Y301368*
X155193Y301147*
X155354Y300704*
Y300039*
X155032Y299596*
X154549Y299375*
X153904*
X153421Y299596*
X153099Y300039*
X156803Y304026D02*
Y300704D01*
X156964Y300039*
X157287Y299596*
X157770Y299375*
X158092*
X158575Y299596*
X158897Y300039*
X159058Y300704*
Y304026*
X160508D02*
Y299375D01*
Y304026D02*
X161796Y299375D01*
X163085Y304026D02*
X161796Y299375D01*
X163085Y304026D02*
Y299375D01*
X165501Y304026D02*
X165179Y303804D01*
X164856Y303361*
X164695Y302918*
X164534Y302254*
Y301147*
X164695Y300482*
X164856Y300039*
X165179Y299596*
X165501Y299375*
X166145*
X166467Y299596*
X166789Y300039*
X166950Y300482*
X167111Y301147*
Y302254*
X166950Y302918*
X166789Y303361*
X166467Y303804*
X166145Y304026*
X165501*
G54D29*
X138214Y117210D02*
Y114626D01*
Y117210D02*
X139019D01*
X139287Y117087*
X139377Y116964*
X139466Y116718*
Y116348*
X139377Y116102*
X139287Y115979*
X139019Y115856*
X138214*
X140987Y117210D02*
X140272Y114626D01*
X140987Y117210D02*
X141703Y114626D01*
X140540Y115487D02*
X141435D01*
X143403Y117210D02*
X142509Y115487D01*
X142509D02*
X143851D01*
X143403Y117210D02*
Y114626D01*
X138214Y113666D02*
Y111083D01*
Y113666D02*
X139019D01*
X139287Y113543*
X139377Y113420*
X139466Y113174*
Y112805*
X139377Y112559*
X139287Y112436*
X139019Y112313*
X138214*
X140987Y113666D02*
X140272Y111083D01*
X140987Y113666D02*
X141703Y111083D01*
X140540Y111944D02*
X141435D01*
X143672Y113666D02*
X142777D01*
X142687Y112559*
X142777Y112682*
X143045Y112805*
X143314*
X143582Y112682*
X143761Y112436*
X143851Y112067*
X143761Y111821*
X143672Y111452*
X143493Y111206*
X143224Y111083*
X142956*
X142687Y111206*
X142598Y111329*
X142509Y111575*
X138214Y110123D02*
Y107539D01*
Y110123D02*
X139019D01*
X139287Y110000*
X139377Y109877*
X139466Y109631*
Y109262*
X139377Y109016*
X139287Y108893*
X139019Y108770*
X138214*
X140987Y110123D02*
X140272Y107539D01*
X140987Y110123D02*
X141703Y107539D01*
X140540Y108401D02*
X141435D01*
X143582Y109754D02*
X143493Y110000D01*
X143224Y110123*
X143045*
X142777Y110000*
X142598Y109631*
X142509Y109016*
X142509D02*
Y108401D01*
X142509D02*
X142598Y107908D01*
X142777Y107662*
X143045Y107539*
X143135*
X143403Y107662*
X143582Y107908*
X143672Y108278*
Y108401*
X143582Y108770*
X143403Y109016*
X143135Y109139*
X143045*
X142777Y109016*
X142598Y108770*
X142509Y108401*
X138214Y106580D02*
Y103996D01*
Y106580D02*
X139019D01*
X139287Y106457*
X139377Y106334*
X139466Y106088*
Y105719*
X139377Y105472*
X139287Y105349*
X139019Y105226*
X138214*
X140987Y106580D02*
X140272Y103996D01*
X140987Y106580D02*
X141703Y103996D01*
X140540Y104857D02*
X141435D01*
X143761Y106580D02*
X142866Y103996D01*
X142509Y106580D02*
X143761D01*
X146088Y117210D02*
Y114626D01*
Y117210D02*
X146893D01*
X147161Y117087*
X147251Y116964*
X147340Y116718*
Y116348*
X147251Y116102*
X147161Y115979*
X146893Y115856*
X146088*
X149488Y116594D02*
X149398Y116841D01*
X149219Y117087*
X149040Y117210*
X148682*
X148503Y117087*
X148325Y116841*
X148235Y116594*
X148146Y116225*
Y115610*
X148235Y115241*
X148325Y114995*
X148503Y114749*
X148682Y114626*
X149040*
X149219Y114749*
X149398Y114995*
X149488Y115241*
X150383Y116594D02*
Y116718D01*
X150472Y116964*
X150561Y117087*
X150740Y117210*
X151098*
X151277Y117087*
X151367Y116964*
X151456Y116718*
Y116471*
X151367Y116225*
X151188Y115856*
X150293Y114626*
X151546*
X146088Y113666D02*
Y111083D01*
Y113666D02*
X146893D01*
X147161Y113543*
X147251Y113420*
X147340Y113174*
Y112805*
X147251Y112559*
X147161Y112436*
X146893Y112313*
X146088*
X149488Y113051D02*
X149398Y113297D01*
X149219Y113543*
X149040Y113666*
X148682*
X148503Y113543*
X148325Y113297*
X148235Y113051*
X148146Y112682*
Y112067*
X148235Y111698*
X148325Y111452*
X148503Y111206*
X148682Y111083*
X149040*
X149219Y111206*
X149398Y111452*
X149488Y111698*
X150472Y113666D02*
X151456D01*
X150919Y112682*
X151188*
X151367Y112559*
X151456Y112436*
X151546Y112067*
Y111821*
X151456Y111452*
X151277Y111206*
X151009Y111083*
X150740*
X150472Y111206*
X150383Y111329*
X150293Y111575*
X146088Y110123D02*
Y107539D01*
Y110123D02*
X146893D01*
X147161Y110000*
X147251Y109877*
X147340Y109631*
Y109262*
X147251Y109016*
X147161Y108893*
X146893Y108770*
X146088*
X149488Y109508D02*
X149398Y109754D01*
X149219Y110000*
X149040Y110123*
X148682*
X148503Y110000*
X148325Y109754*
X148235Y109508*
X148146Y109139*
Y108524*
X148235Y108155*
X148325Y107908*
X148503Y107662*
X148682Y107539*
X149040*
X149219Y107662*
X149398Y107908*
X149488Y108155*
X151188Y110123D02*
X150293Y108401D01*
X151635*
X151188Y110123D02*
Y107539D01*
X146088Y106580D02*
Y103996D01*
Y106580D02*
X146893D01*
X147161Y106457*
X147251Y106334*
X147340Y106088*
Y105719*
X147251Y105472*
X147161Y105349*
X146893Y105226*
X146088*
X149488Y105965D02*
X149398Y106211D01*
X149219Y106457*
X149040Y106580*
X148682*
X148503Y106457*
X148325Y106211*
X148235Y105965*
X148146Y105595*
Y104980*
X148235Y104611*
X148325Y104365*
X148503Y104119*
X148682Y103996*
X149040*
X149219Y104119*
X149398Y104365*
X149488Y104611*
X151456Y106580D02*
X150561D01*
X150472Y105472*
X150561Y105595*
X150830Y105719*
X151098*
X151367Y105595*
X151546Y105349*
X151635Y104980*
X151546Y104734*
X151456Y104365*
X151277Y104119*
X151009Y103996*
X150740*
X150472Y104119*
X150383Y104242*
X150293Y104488*
X146088Y120753D02*
Y118169D01*
Y120753D02*
X146893D01*
X147161Y120630*
X147251Y120507*
X147340Y120261*
Y119892*
X147251Y119646*
X147161Y119523*
X146893Y119400*
X146088*
X149488Y120138D02*
X149398Y120384D01*
X149219Y120630*
X149040Y120753*
X148682*
X148503Y120630*
X148325Y120384*
X148235Y120138*
X148146Y119769*
Y119154*
X148235Y118784*
X148325Y118538*
X148503Y118292*
X148682Y118169*
X149040*
X149219Y118292*
X149398Y118538*
X149488Y118784*
X150293Y120261D02*
X150472Y120384D01*
X150740Y120753*
Y118169*
X138214Y120753D02*
Y118169D01*
Y120753D02*
X139019D01*
X139287Y120630*
X139377Y120507*
X139466Y120261*
Y119892*
X139377Y119646*
X139287Y119523*
X139019Y119400*
X138214*
X140987Y120753D02*
X140272Y118169D01*
X140987Y120753D02*
X141703Y118169D01*
X140540Y119031D02*
X141435D01*
X142687Y120753D02*
X143672D01*
X143135Y119769*
X143403*
X143582Y119646*
X143672Y119523*
X143761Y119154*
Y118907*
X143672Y118538*
X143493Y118292*
X143224Y118169*
X142956*
X142687Y118292*
X142598Y118415*
X142509Y118661*
X146088Y124296D02*
Y121713D01*
Y124296D02*
X146893D01*
X147161Y124173*
X147251Y124050*
X147340Y123804*
Y123435*
X147251Y123189*
X147161Y123066*
X146893Y122943*
X146088*
X149488Y123681D02*
X149398Y123927D01*
X149219Y124173*
X149040Y124296*
X148682*
X148503Y124173*
X148325Y123927*
X148235Y123681*
X148146Y123312*
Y122697*
X148235Y122328*
X148325Y122082*
X148503Y121836*
X148682Y121713*
X149040*
X149219Y121836*
X149398Y122082*
X149488Y122328*
X150830Y124296D02*
X150561Y124173D01*
X150383Y123804*
X150293Y123189*
Y122820*
X150383Y122205*
X150561Y121836*
X150830Y121713*
X151009*
X151277Y121836*
X151456Y122205*
X151546Y122820*
Y123189*
X151456Y123804*
X151277Y124173*
X151009Y124296*
X150830*
X138214D02*
Y121713D01*
Y124296D02*
X139019D01*
X139287Y124173*
X139377Y124050*
X139466Y123804*
Y123435*
X139377Y123189*
X139287Y123066*
X139019Y122943*
X138214*
X140987Y124296D02*
X140272Y121713D01*
X140987Y124296D02*
X141703Y121713D01*
X140540Y122574D02*
X141435D01*
X142598Y123681D02*
Y123804D01*
X142687Y124050*
X142777Y124173*
X142956Y124296*
X143314*
X143493Y124173*
X143582Y124050*
X143672Y123804*
Y123558*
X143582Y123312*
X143403Y122943*
X142509Y121713*
X142509D02*
X143761D01*
X146088Y127840D02*
Y125256D01*
Y127840D02*
X146893D01*
X147161Y127717*
X147251Y127594*
X147340Y127347*
Y126978*
X147251Y126732*
X147161Y126609*
X146893Y126486*
X146088*
X148146Y127840D02*
Y125256D01*
Y127840D02*
X148951D01*
X149219Y127717*
X149309Y127594*
X149398Y127347*
Y127101*
X149309Y126855*
X149219Y126732*
X148951Y126609*
X148146D02*
X148951D01*
X149219Y126486*
X149309Y126363*
X149398Y126117*
Y125748*
X149309Y125502*
X149219Y125379*
X148951Y125256*
X148146*
X150204Y127347D02*
X150383Y127470D01*
X150651Y127840*
Y125256*
X138214Y127840D02*
Y125256D01*
Y127840D02*
X139019D01*
X139287Y127717*
X139377Y127594*
X139466Y127347*
Y126978*
X139377Y126732*
X139287Y126609*
X139019Y126486*
X138214*
X140987Y127840D02*
X140272Y125256D01*
X140987Y127840D02*
X141703Y125256D01*
X140540Y126117D02*
X141435D01*
X142509Y127347D02*
X142687Y127470D01*
X142956Y127840*
Y125256*
X138214Y131383D02*
Y128799D01*
Y131383D02*
X139019D01*
X139287Y131260*
X139377Y131137*
X139466Y130891*
Y130522*
X139377Y130276*
X139287Y130153*
X139019Y130030*
X138214*
X140987Y131383D02*
X140272Y128799D01*
X140987Y131383D02*
X141703Y128799D01*
X140540Y129660D02*
X141435D01*
X143045Y131383D02*
X142777Y131260D01*
X142598Y130891*
X142509Y130276*
X142509D02*
Y129906D01*
X142509D02*
X142598Y129291D01*
X142777Y128922*
X143045Y128799*
X143224*
X143493Y128922*
X143672Y129291*
X143761Y129906*
Y130276*
X143672Y130891*
X143493Y131260*
X143224Y131383*
X143045*
X146088D02*
Y128799D01*
Y131383D02*
X146893D01*
X147161Y131260*
X147251Y131137*
X147340Y130891*
Y130522*
X147251Y130276*
X147161Y130153*
X146893Y130030*
X146088*
X148146Y131383D02*
Y128799D01*
Y131383D02*
X148951D01*
X149219Y131260*
X149309Y131137*
X149398Y130891*
Y130645*
X149309Y130399*
X149219Y130276*
X148951Y130153*
X148146D02*
X148951D01*
X149219Y130030*
X149309Y129906*
X149398Y129660*
Y129291*
X149309Y129045*
X149219Y128922*
X148951Y128799*
X148146*
X150740Y131383D02*
X150472Y131260D01*
X150293Y130891*
X150204Y130276*
Y129906*
X150293Y129291*
X150472Y128922*
X150740Y128799*
X150919*
X151188Y128922*
X151367Y129291*
X151456Y129906*
Y130276*
X151367Y130891*
X151188Y131260*
X150919Y131383*
X150740*
X302805Y332544D02*
Y329961D01*
Y332544D02*
X303610D01*
X303879Y332421*
X303968Y332298*
X304058Y332052*
Y331683*
X303968Y331437*
X303879Y331314*
X303610Y331191*
X302805*
X306205Y331929D02*
X306116Y332175D01*
X305937Y332421*
X305758Y332544*
X305400*
X305221Y332421*
X305042Y332175*
X304953Y331929*
X304863Y331560*
Y330945*
X304953Y330576*
X305042Y330330*
X305221Y330084*
X305400Y329961*
X305758*
X305937Y330084*
X306116Y330330*
X306205Y330576*
X307011Y332052D02*
X307190Y332175D01*
X307458Y332544*
Y329961*
X308800Y332544D02*
X308532Y332421D01*
X308353Y332052*
X308263Y331437*
Y331068*
X308353Y330453*
X308532Y330084*
X308800Y329961*
X308979*
X309247Y330084*
X309426Y330453*
X309516Y331068*
Y331437*
X309426Y332052*
X309247Y332421*
X308979Y332544*
X308800*
X293750D02*
Y329961D01*
Y332544D02*
X294555D01*
X294824Y332421*
X294913Y332298*
X295003Y332052*
Y331683*
X294913Y331437*
X294824Y331314*
X294555Y331191*
X293750*
X297150Y331929D02*
X297061Y332175D01*
X296882Y332421*
X296703Y332544*
X296345*
X296166Y332421*
X295987Y332175*
X295897Y331929*
X295808Y331560*
Y330945*
X295897Y330576*
X295987Y330330*
X296166Y330084*
X296345Y329961*
X296703*
X296882Y330084*
X297061Y330330*
X297150Y330576*
X297955Y332052D02*
X298134Y332175D01*
X298403Y332544*
Y329961*
X299208Y332052D02*
X299387Y332175D01*
X299656Y332544*
Y329961*
X294931Y329001D02*
Y326417D01*
Y329001D02*
X295736D01*
X296005Y328878*
X296094Y328755*
X296184Y328509*
Y328263*
X296094Y328017*
X296005Y327894*
X295736Y327771*
X294931*
X295557D02*
X296184Y326417D01*
X296989Y329001D02*
X298242Y326417D01*
Y329001D02*
X296989Y326417D01*
X305006Y329001D02*
Y326417D01*
X304380Y329001D02*
X305633D01*
X306438D02*
X307691Y326417D01*
Y329001D02*
X306438Y326417D01*
X284856Y328386D02*
X284766Y328632D01*
X284588Y328878*
X284409Y329001*
X284051*
X283872Y328878*
X283693Y328632*
X283603Y328386*
X283514Y328017*
Y327402*
X283603Y327032*
X283693Y326786*
X283872Y326540*
X284051Y326417*
X284409*
X284588Y326540*
X284766Y326786*
X284856Y327032*
Y327402*
X284409D02*
X284856D01*
X285661Y329001D02*
Y326417D01*
Y329001D02*
X286914Y326417D01*
Y329001D02*
Y326417D01*
X287719Y329001D02*
Y326417D01*
Y329001D02*
X288346D01*
X288614Y328878*
X288793Y328632*
X288882Y328386*
X288972Y328017*
Y327402*
X288882Y327032*
X288793Y326786*
X288614Y326540*
X288346Y326417*
X287719*
X381166Y279375D02*
X383750D01*
X381166D02*
Y280180D01*
X381289Y280449*
X381412Y280538*
X381658Y280628*
X382028*
X382274Y280538*
X382397Y280449*
X382520Y280180*
Y279375*
X381166Y281433D02*
X383750D01*
X381166D02*
Y282238D01*
X381289Y282507*
X381412Y282596*
X381658Y282686*
X381905*
X382151Y282596*
X382274Y282507*
X382397Y282238*
Y281433D02*
Y282238D01*
X382520Y282507*
X382643Y282596*
X382889Y282686*
X383258*
X383504Y282596*
X383627Y282507*
X383750Y282238*
Y281433*
X381166Y284386D02*
X382889Y283491D01*
Y284833*
X381166Y284386D02*
X383750D01*
X375531Y284467D02*
X375285Y284378D01*
X375039Y284199*
X374916Y284020*
Y283662*
X375039Y283483*
X375285Y283304*
X375531Y283214*
X375901Y283125*
X376516*
X376885Y283214*
X377131Y283304*
X377377Y283483*
X377500Y283662*
Y284020*
X377377Y284199*
X377131Y284378*
X376885Y284467*
X376516*
Y284020D02*
Y284467D01*
X374916Y285272D02*
X377500D01*
X374916D02*
X377500Y286525D01*
X374916D02*
X377500D01*
X374916Y287330D02*
X377500D01*
X374916D02*
Y287957D01*
X375039Y288225*
X375285Y288404*
X375531Y288494*
X375901Y288583*
X376516*
X376885Y288494*
X377131Y288404*
X377377Y288225*
X377500Y287957*
Y287330*
X393041Y284913D02*
Y284018D01*
X394149Y283929*
X394026Y284018*
X393903Y284287*
Y284555*
X394026Y284824*
X394272Y285003*
X394641Y285092*
X394887Y285003*
X395256Y284913*
X395502Y284734*
X395625Y284466*
Y284197*
X395502Y283929*
X395379Y283839*
X395133Y283750*
X393041Y285897D02*
X395625Y286613D01*
X393041Y287329D02*
X395625Y286613D01*
X381166Y287501D02*
X383750D01*
X381166Y286875D02*
Y288128D01*
Y288933D02*
X383750D01*
X381166Y289738D02*
X383750D01*
X381166D02*
X383750Y290454D01*
X381166Y291170D02*
X383750Y290454D01*
X381166Y291170D02*
X383750D01*
X381166Y292154D02*
Y293138D01*
X382151Y292602*
Y292870*
X382274Y293049*
X382397Y293138*
X382766Y293228*
X383012*
X383381Y293138*
X383627Y292959*
X383750Y292691*
Y292423*
X383627Y292154*
X383504Y292065*
X383258Y291975*
X400541Y279375D02*
X403125D01*
X400541D02*
Y280180D01*
X400664Y280449*
X400787Y280538*
X401033Y280628*
X401403*
X401649Y280538*
X401772Y280449*
X401895Y280180*
Y279375*
X400541Y281433D02*
X403125D01*
X400541D02*
Y282238D01*
X400664Y282507*
X400787Y282596*
X401033Y282686*
X401280*
X401526Y282596*
X401649Y282507*
X401772Y282238*
Y281433D02*
Y282238D01*
X401895Y282507*
X402018Y282596*
X402264Y282686*
X402633*
X402879Y282596*
X403002Y282507*
X403125Y282238*
Y281433*
X400541Y284654D02*
Y283759D01*
X401649Y283670*
X401526Y283759*
X401403Y284028*
Y284296*
X401526Y284565*
X401772Y284744*
X402141Y284833*
X402387Y284744*
X402756Y284654*
X403002Y284475*
X403125Y284207*
Y283938*
X403002Y283670*
X402879Y283580*
X402633Y283491*
X400541Y287501D02*
X403125D01*
X400541Y286875D02*
Y288128D01*
Y288933D02*
X403125D01*
X400541Y289738D02*
X403125D01*
X400541D02*
X403125Y290454D01*
X400541Y291170D02*
X403125Y290454D01*
X400541Y291170D02*
X403125D01*
X400541Y292154D02*
Y293138D01*
X401526Y292602*
Y292870*
X401649Y293049*
X401772Y293138*
X402141Y293228*
X402387*
X402756Y293138*
X403002Y292959*
X403125Y292691*
Y292423*
X403002Y292154*
X402879Y292065*
X402633Y291975*
X375531Y260717D02*
X375285Y260628D01*
X375039Y260449*
X374916Y260270*
Y259912*
X375039Y259733*
X375285Y259554*
X375531Y259464*
X375901Y259375*
X376516*
X376885Y259464*
X377131Y259554*
X377377Y259733*
X377500Y259912*
Y260270*
X377377Y260449*
X377131Y260628*
X376885Y260717*
X376516*
Y260270D02*
Y260717D01*
X374916Y261522D02*
X377500D01*
X374916D02*
X377500Y262775D01*
X374916D02*
X377500D01*
X374916Y263580D02*
X377500D01*
X374916D02*
Y264207D01*
X375039Y264475*
X375285Y264654*
X375531Y264744*
X375901Y264833*
X376516*
X376885Y264744*
X377131Y264654*
X377377Y264475*
X377500Y264207*
Y263580*
X393041Y261163D02*
Y260268D01*
X394149Y260179*
X394026Y260268*
X393903Y260537*
Y260805*
X394026Y261074*
X394272Y261253*
X394641Y261342*
X394887Y261253*
X395256Y261163*
X395502Y260984*
X395625Y260716*
Y260447*
X395502Y260179*
X395379Y260089*
X395133Y260000*
X393041Y262147D02*
X395625Y262863D01*
X393041Y263579D02*
X395625Y262863D01*
X381166Y255625D02*
X383750D01*
X381166D02*
Y256430D01*
X381289Y256699*
X381412Y256788*
X381658Y256878*
X382028*
X382274Y256788*
X382397Y256699*
X382520Y256430*
Y255625*
X381166Y257683D02*
X383750D01*
X381166D02*
Y258488D01*
X381289Y258757*
X381412Y258846*
X381658Y258936*
X381905*
X382151Y258846*
X382274Y258757*
X382397Y258488*
Y257683D02*
Y258488D01*
X382520Y258757*
X382643Y258846*
X382889Y258936*
X383258*
X383504Y258846*
X383627Y258757*
X383750Y258488*
Y257683*
X381535Y260815D02*
X381289Y260725D01*
X381166Y260457*
Y260278*
X381289Y260009*
X381658Y259830*
X382274Y259741*
X382889*
X383381Y259830*
X383627Y260009*
X383750Y260278*
Y260367*
X383627Y260636*
X383381Y260815*
X383012Y260904*
X382889*
X382520Y260815*
X382274Y260636*
X382151Y260367*
Y260278*
X382274Y260009*
X382520Y259830*
X382889Y259741*
X381166Y263751D02*
X383750D01*
X381166Y263125D02*
Y264378D01*
Y265183D02*
X383750D01*
X381166Y265988D02*
X383750D01*
X381166D02*
X383750Y266704D01*
X381166Y267420D02*
X383750Y266704D01*
X381166Y267420D02*
X383750D01*
X381166Y269120D02*
X382889Y268225D01*
Y269567*
X381166Y269120D02*
X383750D01*
X400541Y263751D02*
X403125D01*
X400541Y263125D02*
Y264378D01*
Y265183D02*
X403125D01*
X400541Y265988D02*
X403125D01*
X400541D02*
X403125Y266704D01*
X400541Y267420D02*
X403125Y266704D01*
X400541Y267420D02*
X403125D01*
X400541Y269120D02*
X402264Y268225D01*
Y269567*
X400541Y269120D02*
X403125D01*
X400541Y255625D02*
X403125D01*
X400541D02*
Y256430D01*
X400664Y256699*
X400787Y256788*
X401033Y256878*
X401403*
X401649Y256788*
X401772Y256699*
X401895Y256430*
Y255625*
X400541Y257683D02*
X403125D01*
X400541D02*
Y258488D01*
X400664Y258757*
X400787Y258846*
X401033Y258936*
X401280*
X401526Y258846*
X401649Y258757*
X401772Y258488*
Y257683D02*
Y258488D01*
X401895Y258757*
X402018Y258846*
X402264Y258936*
X402633*
X402879Y258846*
X403002Y258757*
X403125Y258488*
Y257683*
X400541Y260994D02*
X403125Y260099D01*
X400541Y259741D02*
Y260994D01*
X377592Y185719D02*
X377503Y185965D01*
X377324Y186211*
X377145Y186334*
X376787*
X376608Y186211*
X376429Y185965*
X376339Y185719*
X376250Y185349*
Y184734*
X376339Y184365*
X376429Y184119*
X376608Y183873*
X376787Y183750*
X377145*
X377324Y183873*
X377503Y184119*
X377592Y184365*
Y184734*
X377145D02*
X377592D01*
X378397Y186334D02*
Y183750D01*
Y186334D02*
X379650Y183750D01*
Y186334D02*
Y183750D01*
X380455Y186334D02*
Y183750D01*
Y186334D02*
X381082D01*
X381350Y186211*
X381529Y185965*
X381619Y185719*
X381708Y185349*
Y184734*
X381619Y184365*
X381529Y184119*
X381350Y183873*
X381082Y183750*
X380455*
X395001Y186959D02*
Y184375D01*
X394375Y186959D02*
X395628D01*
X396433D02*
Y184375D01*
X397238Y186959D02*
Y184375D01*
Y186959D02*
X397954Y184375D01*
X398670Y186959D02*
X397954Y184375D01*
X398670Y186959D02*
Y184375D01*
X399475Y186467D02*
X399654Y186590D01*
X399923Y186959*
Y184375*
X395000Y192584D02*
Y190000D01*
Y192584D02*
X395805D01*
X396074Y192461*
X396163Y192338*
X396253Y192092*
Y191722*
X396163Y191476*
X396074Y191353*
X395805Y191230*
X395000*
X397774Y192584D02*
X397058Y190000D01*
X397774Y192584D02*
X398490Y190000D01*
X397326Y190861D02*
X398221D01*
X399742Y192584D02*
X399474Y192461D01*
X399384Y192215*
Y191969*
X399474Y191722*
X399653Y191599*
X400011Y191476*
X400279Y191353*
X400458Y191107*
X400548Y190861*
Y190492*
X400458Y190246*
X400369Y190123*
X400100Y190000*
X399742*
X399474Y190123*
X399384Y190246*
X399295Y190492*
Y190861*
X399384Y191107*
X399563Y191353*
X399832Y191476*
X400190Y191599*
X400369Y191722*
X400458Y191969*
Y192215*
X400369Y192461*
X400100Y192584*
X399742*
X385625Y186334D02*
Y183750D01*
Y186334D02*
X386251D01*
X386520Y186211*
X386699Y185965*
X386788Y185719*
X386878Y185349*
Y184734*
X386788Y184365*
X386699Y184119*
X386520Y183873*
X386251Y183750*
X385625*
X387683Y186334D02*
Y183750D01*
X388488Y186334D02*
Y183750D01*
Y186334D02*
X389294D01*
X389562Y186211*
X389651Y186088*
X389741Y185842*
Y185595*
X389651Y185349*
X389562Y185226*
X389294Y185103*
X388488*
X389115D02*
X389741Y183750D01*
X386250Y180709D02*
Y178125D01*
Y180709D02*
X386966Y178125D01*
X387682Y180709D02*
X386966Y178125D01*
X387682Y180709D02*
Y178125D01*
X388487Y180217D02*
X388666Y180340D01*
X388934Y180709*
Y178125*
X385000Y191959D02*
Y189375D01*
Y191959D02*
X385805D01*
X386074Y191836*
X386163Y191713*
X386253Y191467*
Y191097*
X386163Y190851*
X386074Y190728*
X385805Y190605*
X385000*
X388400Y191344D02*
X388311Y191590D01*
X388132Y191836*
X387953Y191959*
X387595*
X387416Y191836*
X387237Y191590*
X387147Y191344*
X387058Y190974*
Y190359*
X387147Y189990*
X387237Y189744*
X387416Y189498*
X387595Y189375*
X387953*
X388132Y189498*
X388311Y189744*
X388400Y189990*
X389205Y191467D02*
X389384Y191590D01*
X389653Y191959*
Y189375*
X390637Y191959D02*
X391621D01*
X391084Y190974*
X391353*
X391532Y190851*
X391621Y190728*
X391711Y190359*
Y190113*
X391621Y189744*
X391442Y189498*
X391174Y189375*
X390906*
X390637Y189498*
X390548Y189621*
X390458Y189867*
X377592Y161969D02*
X377503Y162215D01*
X377324Y162461*
X377145Y162584*
X376787*
X376608Y162461*
X376429Y162215*
X376339Y161969*
X376250Y161599*
Y160984*
X376339Y160615*
X376429Y160369*
X376608Y160123*
X376787Y160000*
X377145*
X377324Y160123*
X377503Y160369*
X377592Y160615*
Y160984*
X377145D02*
X377592D01*
X378397Y162584D02*
Y160000D01*
Y162584D02*
X379650Y160000D01*
Y162584D02*
Y160000D01*
X380455Y162584D02*
Y160000D01*
Y162584D02*
X381082D01*
X381350Y162461*
X381529Y162215*
X381619Y161969*
X381708Y161599*
Y160984*
X381619Y160615*
X381529Y160369*
X381350Y160123*
X381082Y160000*
X380455*
X385000Y168209D02*
Y165625D01*
Y168209D02*
X385805D01*
X386074Y168086*
X386163Y167963*
X386253Y167717*
Y167347*
X386163Y167101*
X386074Y166978*
X385805Y166855*
X385000*
X387058Y168209D02*
Y165625D01*
Y168209D02*
X387863D01*
X388132Y168086*
X388221Y167963*
X388311Y167717*
Y167470*
X388221Y167224*
X388132Y167101*
X387863Y166978*
X387058D02*
X387863D01*
X388132Y166855*
X388221Y166732*
X388311Y166486*
Y166117*
X388221Y165871*
X388132Y165748*
X387863Y165625*
X387058*
X389563Y168209D02*
X389295Y168086D01*
X389205Y167840*
Y167594*
X389295Y167347*
X389474Y167224*
X389832Y167101*
X390100Y166978*
X390279Y166732*
X390369Y166486*
Y166117*
X390279Y165871*
X390190Y165748*
X389921Y165625*
X389563*
X389295Y165748*
X389205Y165871*
X389116Y166117*
Y166486*
X389205Y166732*
X389384Y166978*
X389653Y167101*
X390011Y167224*
X390190Y167347*
X390279Y167594*
Y167840*
X390190Y168086*
X389921Y168209*
X389563*
X385625Y162584D02*
Y160000D01*
Y162584D02*
X386251D01*
X386520Y162461*
X386699Y162215*
X386788Y161969*
X386878Y161599*
Y160984*
X386788Y160615*
X386699Y160369*
X386520Y160123*
X386251Y160000*
X385625*
X387683Y162584D02*
Y160000D01*
X388488Y162584D02*
Y160000D01*
Y162584D02*
X389294D01*
X389562Y162461*
X389651Y162338*
X389741Y162092*
Y161845*
X389651Y161599*
X389562Y161476*
X389294Y161353*
X388488*
X389115D02*
X389741Y160000D01*
X395000Y168834D02*
Y166250D01*
Y168834D02*
X395805D01*
X396074Y168711*
X396163Y168588*
X396253Y168342*
Y167972*
X396163Y167726*
X396074Y167603*
X395805Y167480*
X395000*
X397774Y168834D02*
X397058Y166250D01*
X397774Y168834D02*
X398490Y166250D01*
X397326Y167111D02*
X398221D01*
X400458Y167972D02*
X400369Y167603D01*
X400190Y167357*
X399921Y167234*
X399832*
X399563Y167357*
X399384Y167603*
X399295Y167972*
Y168095*
X399384Y168465*
X399563Y168711*
X399832Y168834*
X399921*
X400190Y168711*
X400369Y168465*
X400458Y167972*
Y167357*
X400369Y166742*
X400190Y166373*
X399921Y166250*
X399742*
X399474Y166373*
X399384Y166619*
X395001Y163209D02*
Y160625D01*
X394375Y163209D02*
X395628D01*
X396433D02*
Y160625D01*
X397238Y163209D02*
Y160625D01*
Y163209D02*
X397954Y160625D01*
X398670Y163209D02*
X397954Y160625D01*
X398670Y163209D02*
Y160625D01*
X399475Y162717D02*
X399654Y162840D01*
X399923Y163209*
Y160625*
X386250Y156959D02*
Y154375D01*
Y156959D02*
X386966Y154375D01*
X387682Y156959D02*
X386966Y154375D01*
X387682Y156959D02*
Y154375D01*
X388576Y156344D02*
Y156467D01*
X388666Y156713*
X388755Y156836*
X388934Y156959*
X389292*
X389471Y156836*
X389561Y156713*
X389650Y156467*
Y156220*
X389561Y155974*
X389382Y155605*
X388487Y154375*
X389740*
X404375Y192584D02*
Y190000D01*
X405449*
X406254Y190984D02*
X407328D01*
Y191230*
X407238Y191476*
X407149Y191599*
X406970Y191722*
X406701*
X406522Y191599*
X406344Y191353*
X406254Y190984*
Y190738*
X406344Y190369*
X406522Y190123*
X406701Y190000*
X406970*
X407149Y190123*
X407328Y190369*
X408849Y192584D02*
X408670D01*
X408491Y192461*
X408401Y192092*
Y190000*
X408133Y191722D02*
X408759D01*
X409923Y192584D02*
Y190492D01*
X410012Y190123*
X410191Y190000*
X410370*
X409654Y191722D02*
X410281D01*
X404375Y168834D02*
Y166250D01*
Y168834D02*
X405180D01*
X405449Y168711*
X405538Y168588*
X405628Y168342*
Y168095*
X405538Y167849*
X405449Y167726*
X405180Y167603*
X404375*
X405001D02*
X405628Y166250D01*
X406433Y168834D02*
X406522Y168711D01*
X406612Y168834*
X406522Y168957*
X406433Y168834*
X406522Y167972D02*
Y166250D01*
X408491Y167972D02*
Y166004D01*
X408401Y165635*
X408312Y165512*
X408133Y165389*
X407865*
X407686Y165512*
X408491Y167603D02*
X408312Y167849D01*
X408133Y167972*
X407865*
X407686Y167849*
X407507Y167603*
X407417Y167234*
Y166988*
X407507Y166619*
X407686Y166373*
X407865Y166250*
X408133*
X408312Y166373*
X408491Y166619*
X409296Y168834D02*
Y166250D01*
Y167480D02*
X409565Y167849D01*
X409744Y167972*
X410012*
X410191Y167849*
X410281Y167480*
Y166250*
X411354Y168834D02*
Y166742D01*
X411444Y166373*
X411623Y166250*
X411802*
X411086Y167972D02*
X411712D01*
X404375Y188209D02*
Y185625D01*
Y188209D02*
X405091Y185625D01*
X405807Y188209D02*
X405091Y185625D01*
X405807Y188209D02*
Y185625D01*
X407059Y187347D02*
X406880Y187224D01*
X406701Y186978*
X406612Y186609*
Y186363*
X406701Y185994*
X406880Y185748*
X407059Y185625*
X407328*
X407507Y185748*
X407686Y185994*
X407775Y186363*
Y186609*
X407686Y186978*
X407507Y187224*
X407328Y187347*
X407059*
X408849Y188209D02*
Y186117D01*
X408938Y185748*
X409117Y185625*
X409296*
X408580Y187347D02*
X409207D01*
X410549D02*
X410370Y187224D01*
X410191Y186978*
X410102Y186609*
Y186363*
X410191Y185994*
X410370Y185748*
X410549Y185625*
X410817*
X410996Y185748*
X411175Y185994*
X411265Y186363*
Y186609*
X411175Y186978*
X410996Y187224*
X410817Y187347*
X410549*
X412070D02*
Y185625D01*
Y186609D02*
X412160Y186978D01*
X412338Y187224*
X412517Y187347*
X412786*
X404375Y164459D02*
Y161875D01*
Y164459D02*
X405091Y161875D01*
X405807Y164459D02*
X405091Y161875D01*
X405807Y164459D02*
Y161875D01*
X407059Y163597D02*
X406880Y163474D01*
X406701Y163228*
X406612Y162859*
Y162613*
X406701Y162244*
X406880Y161998*
X407059Y161875*
X407328*
X407507Y161998*
X407686Y162244*
X407775Y162613*
Y162859*
X407686Y163228*
X407507Y163474*
X407328Y163597*
X407059*
X408849Y164459D02*
Y162367D01*
X408938Y161998*
X409117Y161875*
X409296*
X408580Y163597D02*
X409207D01*
X410549D02*
X410370Y163474D01*
X410191Y163228*
X410102Y162859*
Y162613*
X410191Y162244*
X410370Y161998*
X410549Y161875*
X410817*
X410996Y161998*
X411175Y162244*
X411265Y162613*
Y162859*
X411175Y163228*
X410996Y163474*
X410817Y163597*
X410549*
X412070D02*
Y161875D01*
Y162859D02*
X412160Y163228D01*
X412338Y163474*
X412517Y163597*
X412786*
X187805Y315536D02*
X187984Y315659D01*
X188253Y316029*
Y313445*
X189505Y316029D02*
X189237Y315906D01*
X189147Y315659*
Y315413*
X189237Y315167*
X189416Y315044*
X189774Y314921*
X190042Y314798*
X190221Y314552*
X190310Y314306*
Y313937*
X190221Y313691*
X190132Y313568*
X189863Y313445*
X189505*
X189237Y313568*
X189147Y313691*
X189058Y313937*
Y314306*
X189147Y314552*
X189326Y314798*
X189595Y314921*
X189953Y315044*
X190132Y315167*
X190221Y315413*
Y315659*
X190132Y315906*
X189863Y316029*
X189505*
X191653D02*
X191384Y315906D01*
X191205Y315536*
X191116Y314921*
Y314552*
X191205Y313937*
X191384Y313568*
X191653Y313445*
X191832*
X192100Y313568*
X192279Y313937*
X192368Y314552*
Y314921*
X192279Y315536*
X192100Y315906*
X191832Y316029*
X191653*
X207805Y315536D02*
X207984Y315659D01*
X208253Y316029*
Y313445*
X209505Y316029D02*
X209237Y315906D01*
X209147Y315659*
Y315413*
X209237Y315167*
X209416Y315044*
X209774Y314921*
X210042Y314798*
X210221Y314552*
X210310Y314306*
Y313937*
X210221Y313691*
X210132Y313568*
X209863Y313445*
X209505*
X209237Y313568*
X209147Y313691*
X209058Y313937*
Y314306*
X209147Y314552*
X209326Y314798*
X209595Y314921*
X209953Y315044*
X210132Y315167*
X210221Y315413*
Y315659*
X210132Y315906*
X209863Y316029*
X209505*
X211653D02*
X211384Y315906D01*
X211205Y315536*
X211116Y314921*
Y314552*
X211205Y313937*
X211384Y313568*
X211653Y313445*
X211832*
X212100Y313568*
X212279Y313937*
X212368Y314552*
Y314921*
X212279Y315536*
X212100Y315906*
X211832Y316029*
X211653*
X227180Y316161D02*
X227359Y316284D01*
X227628Y316654*
Y314070*
X228880Y316654D02*
X228612Y316531D01*
X228522Y316284*
Y316038*
X228612Y315792*
X228791Y315669*
X229149Y315546*
X229417Y315423*
X229596Y315177*
X229685Y314931*
Y314562*
X229596Y314316*
X229507Y314193*
X229238Y314070*
X228880*
X228612Y314193*
X228522Y314316*
X228433Y314562*
Y314931*
X228522Y315177*
X228701Y315423*
X228970Y315546*
X229328Y315669*
X229507Y315792*
X229596Y316038*
Y316284*
X229507Y316531*
X229238Y316654*
X228880*
X231028D02*
X230759Y316531D01*
X230580Y316161*
X230491Y315546*
Y315177*
X230580Y314562*
X230759Y314193*
X231028Y314070*
X231207*
X231475Y314193*
X231654Y314562*
X231743Y315177*
Y315546*
X231654Y316161*
X231475Y316531*
X231207Y316654*
X231028*
X250930Y314911D02*
X251109Y315034D01*
X251378Y315404*
Y312820*
X252630Y315404D02*
X252362Y315281D01*
X252272Y315034*
Y314788*
X252362Y314542*
X252541Y314419*
X252899Y314296*
X253167Y314173*
X253346Y313927*
X253435Y313681*
Y313312*
X253346Y313066*
X253257Y312943*
X252988Y312820*
X252630*
X252362Y312943*
X252272Y313066*
X252183Y313312*
Y313681*
X252272Y313927*
X252451Y314173*
X252720Y314296*
X253078Y314419*
X253257Y314542*
X253346Y314788*
Y315034*
X253257Y315281*
X252988Y315404*
X252630*
X254778D02*
X254509Y315281D01*
X254330Y314911*
X254241Y314296*
Y313927*
X254330Y313312*
X254509Y312943*
X254778Y312820*
X254957*
X255225Y312943*
X255404Y313312*
X255493Y313927*
Y314296*
X255404Y314911*
X255225Y315281*
X254957Y315404*
X254778*
X318750Y135709D02*
Y133125D01*
X319824*
X320629Y135709D02*
Y133125D01*
Y135709D02*
X321345Y133125D01*
X322061Y135709D02*
X321345Y133125D01*
X322061Y135709D02*
Y133125D01*
X322955Y135094D02*
Y135217D01*
X323045Y135463*
X323134Y135586*
X323313Y135709*
X323671*
X323850Y135586*
X323940Y135463*
X324029Y135217*
Y134970*
X323940Y134724*
X323761Y134355*
X322866Y133125*
X324119*
X326087Y135709D02*
X325192D01*
X325103Y134601*
X325192Y134724*
X325461Y134847*
X325729*
X325998Y134724*
X326177Y134478*
X326266Y134109*
X326177Y133863*
X326087Y133494*
X325908Y133248*
X325640Y133125*
X325371*
X325103Y133248*
X325013Y133371*
X324924Y133617*
X328235Y134847D02*
X328145Y134478D01*
X327966Y134232*
X327698Y134109*
X327608*
X327340Y134232*
X327161Y134478*
X327071Y134847*
Y134970*
X327161Y135340*
X327340Y135586*
X327608Y135709*
X327698*
X327966Y135586*
X328145Y135340*
X328235Y134847*
Y134232*
X328145Y133617*
X327966Y133248*
X327698Y133125*
X327519*
X327250Y133248*
X327161Y133494*
X330114Y135340D02*
X330024Y135586D01*
X329756Y135709*
X329577*
X329308Y135586*
X329129Y135217*
X329040Y134601*
Y133986*
X329129Y133494*
X329308Y133248*
X329577Y133125*
X329666*
X329935Y133248*
X330114Y133494*
X330203Y133863*
Y133986*
X330114Y134355*
X329935Y134601*
X329666Y134724*
X329577*
X329308Y134601*
X329129Y134355*
X329040Y133986*
X331008Y134232D02*
X332619D01*
X334588Y135709D02*
X333693D01*
X333603Y134601*
X333693Y134724*
X333961Y134847*
X334230*
X334498Y134724*
X334677Y134478*
X334766Y134109*
X334677Y133863*
X334588Y133494*
X334409Y133248*
X334140Y133125*
X333872*
X333603Y133248*
X333514Y133371*
X333424Y133617*
X137426Y103209D02*
Y132343D01*
X152387*
Y103209*
X137426*
X144906Y132343D02*
Y103209D01*
X371875Y295005D02*
X408371D01*
Y277288*
X371875*
Y295005*
X380025Y277288D02*
Y295005D01*
X389473Y277288D02*
Y295005D01*
X398922Y277288D02*
Y295005D01*
X380025Y253538D02*
Y271255D01*
X389473Y253538D02*
Y271255D01*
X398922Y253538D02*
Y271255D01*
X371875D02*
X408371D01*
Y253538*
X371875*
Y271255*
X383223Y176038D02*
Y193755D01*
X392672Y176038D02*
Y193755D01*
X374375D02*
X402121D01*
Y176038*
X374375*
Y193755*
X383223Y152288D02*
Y170005D01*
X392672Y152288D02*
Y170005D01*
X374375D02*
X402121D01*
Y152288*
X374375*
Y170005*
G54D30*
X385925Y281074D02*
X385728Y281002D01*
X385531Y280859*
X385433Y280716*
Y280429*
X385531Y280286*
X385728Y280143*
X385925Y280072*
X386220Y280000*
X386713*
X387008Y280072*
X387205Y280143*
X387402Y280286*
X387500Y280429*
Y280716*
X387402Y280859*
X387205Y281002*
X387008Y281074*
X385433Y281718D02*
X387500D01*
X385433Y282720D02*
X387500D01*
X386417Y281718D02*
Y282720D01*
X385827Y283364D02*
X385728Y283508D01*
X385433Y283722*
X387500*
X385433Y288125D02*
X387500D01*
X385433D02*
Y289056D01*
X386417Y288125D02*
Y288698D01*
X387500Y288125D02*
Y289056D01*
X385433Y289700D02*
X387500D01*
X385433D02*
X387500Y290702D01*
X385433D02*
X387500D01*
X385827Y291346D02*
X385728Y291489D01*
X385433Y291704*
X387500*
X405300Y281074D02*
X405103Y281002D01*
X404906Y280859*
X404808Y280716*
Y280429*
X404906Y280286*
X405103Y280143*
X405300Y280072*
X405595Y280000*
X406088*
X406383Y280072*
X406580Y280143*
X406777Y280286*
X406875Y280429*
Y280716*
X406777Y280859*
X406580Y281002*
X406383Y281074*
X404808Y281718D02*
X406875D01*
X404808Y282720D02*
X406875D01*
X405792Y281718D02*
Y282720D01*
X405300Y283436D02*
X405202D01*
X405005Y283508*
X404906Y283579*
X404808Y283722*
Y284009*
X404906Y284152*
X405005Y284223*
X405202Y284295*
X405399*
X405595Y284223*
X405891Y284080*
X406875Y283364*
Y284366*
X404808Y288125D02*
X406875D01*
X404808D02*
Y289056D01*
X405792Y288125D02*
Y288698D01*
X406875Y288125D02*
Y289056D01*
X404808Y289700D02*
X406875D01*
X404808D02*
X406875Y290702D01*
X404808D02*
X406875D01*
X405202Y291346D02*
X405103Y291489D01*
X404808Y291704*
X406875*
X385925Y257324D02*
X385728Y257252D01*
X385531Y257109*
X385433Y256966*
Y256679*
X385531Y256536*
X385728Y256393*
X385925Y256322*
X386220Y256250*
X386713*
X387008Y256322*
X387205Y256393*
X387402Y256536*
X387500Y256679*
Y256966*
X387402Y257109*
X387205Y257252*
X387008Y257324*
X385433Y257968D02*
X387500D01*
X385433Y258970D02*
X387500D01*
X386417Y257968D02*
Y258970D01*
X385827Y259614D02*
X385728Y259758D01*
X385433Y259972*
X387500*
X385433Y264375D02*
X387500D01*
X385433D02*
Y265306D01*
X386417Y264375D02*
Y264948D01*
X387500Y264375D02*
Y265306D01*
X385433Y265950D02*
X387500D01*
X385433D02*
X387500Y266952D01*
X385433D02*
X387500D01*
X385925Y267668D02*
X385827D01*
X385630Y267739*
X385531Y267811*
X385433Y267954*
Y268240*
X385531Y268384*
X385630Y268455*
X385827Y268527*
X386024*
X386220Y268455*
X386516Y268312*
X387500Y267596*
Y268598*
X404808Y264375D02*
X406875D01*
X404808D02*
Y265306D01*
X405792Y264375D02*
Y264948D01*
X406875Y264375D02*
Y265306D01*
X404808Y265950D02*
X406875D01*
X404808D02*
X406875Y266952D01*
X404808D02*
X406875D01*
X405300Y267668D02*
X405202D01*
X405005Y267739*
X404906Y267811*
X404808Y267954*
Y268240*
X404906Y268384*
X405005Y268455*
X405202Y268527*
X405399*
X405595Y268455*
X405891Y268312*
X406875Y267596*
Y268598*
X405300Y257324D02*
X405103Y257252D01*
X404906Y257109*
X404808Y256966*
Y256679*
X404906Y256536*
X405103Y256393*
X405300Y256322*
X405595Y256250*
X406088*
X406383Y256322*
X406580Y256393*
X406777Y256536*
X406875Y256679*
Y256966*
X406777Y257109*
X406580Y257252*
X406383Y257324*
X404808Y257968D02*
X406875D01*
X404808Y258970D02*
X406875D01*
X405792Y257968D02*
Y258970D01*
X405300Y259686D02*
X405202D01*
X405005Y259758*
X404906Y259829*
X404808Y259972*
Y260259*
X404906Y260402*
X405005Y260473*
X405202Y260545*
X405399*
X405595Y260473*
X405891Y260330*
X406875Y259614*
Y260616*
X394375Y178942D02*
Y176875D01*
Y178942D02*
X395019D01*
X395234Y178844*
X395306Y178745*
X395377Y178548*
Y178253*
X395306Y178056*
X395234Y177958*
X395019Y177859*
X394375*
X396021Y178942D02*
X396379Y176875D01*
X396737Y178942D02*
X396379Y176875D01*
X396737Y178942D02*
X397095Y176875D01*
X397453Y178942D02*
X397095Y176875D01*
X398097Y178942D02*
Y176875D01*
Y178942D02*
X398670Y176875D01*
X399243Y178942D02*
X398670Y176875D01*
X399243Y178942D02*
Y176875D01*
X399887Y178548D02*
X400030Y178647D01*
X400245Y178942*
Y176875*
X396074Y182200D02*
X396002Y182397D01*
X395859Y182594*
X395716Y182692*
X395429*
X395286Y182594*
X395143Y182397*
X395072Y182200*
X395000Y181905*
Y181412*
X395072Y181117*
X395143Y180920*
X395286Y180723*
X395429Y180625*
X395716*
X395859Y180723*
X396002Y180920*
X396074Y181117*
X396718Y182692D02*
Y180625D01*
X397720Y182692D02*
Y180625D01*
X396718Y181708D02*
X397720D01*
X398364Y182298D02*
X398508Y182397D01*
X398722Y182692*
Y180625*
X396074Y158450D02*
X396002Y158647D01*
X395859Y158844*
X395716Y158942*
X395429*
X395286Y158844*
X395143Y158647*
X395072Y158450*
X395000Y158155*
Y157662*
X395072Y157367*
X395143Y157170*
X395286Y156973*
X395429Y156875*
X395716*
X395859Y156973*
X396002Y157170*
X396074Y157367*
X396718Y158942D02*
Y156875D01*
X397720Y158942D02*
Y156875D01*
X396718Y157958D02*
X397720D01*
X398436Y158450D02*
Y158548D01*
X398508Y158745*
X398579Y158844*
X398722Y158942*
X399009*
X399152Y158844*
X399223Y158745*
X399295Y158548*
Y158351*
X399223Y158155*
X399080Y157859*
X398364Y156875*
X399366*
X394375Y155192D02*
Y153125D01*
Y155192D02*
X395019D01*
X395234Y155094*
X395306Y154995*
X395377Y154798*
Y154503*
X395306Y154306*
X395234Y154208*
X395019Y154109*
X394375*
X396021Y155192D02*
X396379Y153125D01*
X396737Y155192D02*
X396379Y153125D01*
X396737Y155192D02*
X397095Y153125D01*
X397453Y155192D02*
X397095Y153125D01*
X398097Y155192D02*
Y153125D01*
Y155192D02*
X398670Y153125D01*
X399243Y155192D02*
X398670Y153125D01*
X399243Y155192D02*
Y153125D01*
X399958Y154700D02*
Y154798D01*
X400030Y154995*
X400102Y155094*
X400245Y155192*
X400531*
X400674Y155094*
X400746Y154995*
X400817Y154798*
Y154601*
X400746Y154405*
X400603Y154109*
X399887Y153125*
X400889*
G74*
X0Y0D02*
M02*
